v -0.07091229 -0.00774784 0.00069518
v -0.07916723 -0.00925451 -0.00337671
v -0.07101989 -0.00788826 0.00096527
v -0.07927483 -0.00939493 -0.00310662
v -0.07107913 -0.00812745 0.00117389
v -0.07933408 -0.00963412 -0.00289800
v -0.07108102 -0.00842899 0.00128928
v -0.07933596 -0.00993566 -0.00278260
v -0.07102524 -0.00874697 0.00129388
v -0.07928019 -0.01025365 -0.00277801
v -0.07092031 -0.00903299 0.00118698
v -0.07917526 -0.01053966 -0.00288491
v -0.07078219 -0.00924350 0.00098485
v -0.07903713 -0.01075017 -0.00308703
v -0.07063191 -0.00934645 0.00071828
v -0.07888685 -0.01085312 -0.00335361
v -0.07049234 -0.00932617 0.00042784
v -0.07874729 -0.01083284 -0.00364405
v -0.07038475 -0.00918574 0.00015775
v -0.07863969 -0.01069242 -0.00391414
v -0.07032549 -0.00894655 -0.00005087
v -0.07858044 -0.01045323 -0.00412276
v -0.07032362 -0.00864501 -0.00016627
v -0.07857855 -0.01015169 -0.00423815
v -0.07037938 -0.00832703 -0.00017086
v -0.07863433 -0.00983370 -0.00424275
v -0.07048432 -0.00804101 -0.00006396
v -0.07873926 -0.00954769 -0.00413585
v -0.07062244 -0.00783050 0.00013816
v -0.07887738 -0.00933718 -0.00393372
v -0.07077272 -0.00772755 0.00040474
v -0.07902767 -0.00923423 -0.00366715
vn 0.399852 0.819181 0.411170
vn -0.778529 0.604125 -0.170078
vn 0.302798 0.692563 0.654729
vn -0.875570 0.477473 0.073466
vn 0.249395 0.476859 0.842857
vn -0.928983 0.261800 0.261633
vn 0.247679 0.204940 0.946918
vn -0.930697 -0.010139 0.365652
vn 0.297989 -0.081806 0.951057
vn -0.880399 -0.296886 0.369806
vn 0.392605 -0.339733 0.854660
vn -0.785777 -0.554806 0.273394
vn 0.517170 -0.529555 0.672388
vn -0.661213 -0.744642 0.091138
vn 0.652661 -0.622427 0.431993
vn -0.525704 -0.837470 -0.149264
vn 0.778542 -0.604103 0.170093
vn -0.399827 -0.819196 -0.411165
vn 0.875558 -0.477492 -0.073485
vn -0.302825 -0.692551 -0.654729
vn 0.928999 -0.261781 -0.261594
vn -0.249350 -0.476867 -0.842865
vn 0.930690 0.010133 -0.365668
vn -0.247697 -0.204939 -0.946914
vn 0.880404 0.296884 -0.369795
vn -0.297978 0.081811 -0.951061
vn 0.785772 0.554808 -0.273405
vn -0.392616 0.339728 -0.854656
vn 0.661224 0.744633 -0.091125
vn -0.517157 0.529569 -0.672388
vn 0.525672 0.837494 0.149240
vn -0.652691 0.622392 -0.431999
f 2//2 3//3 1//1
f 4//4 5//5 3//3
f 6//6 7//7 5//5
f 8//8 9//9 7//7
f 10//10 11//11 9//9
f 12//12 13//13 11//11
f 14//14 15//15 13//13
f 16//16 17//17 15//15
f 18//18 19//19 17//17
f 20//20 21//21 19//19
f 22//22 23//23 21//21
f 24//24 25//25 23//23
f 26//26 27//27 25//25
f 28//28 29//29 27//27
f 10//10 6//6 22//22
f 30//30 31//31 29//29
f 32//32 1//1 31//31
f 27//27 31//31 15//15
f 2//2 4//4 3//3
f 4//4 6//6 5//5
f 6//6 8//8 7//7
f 8//8 10//10 9//9
f 10//10 12//12 11//11
f 12//12 14//14 13//13
f 14//14 16//16 15//15
f 16//16 18//18 17//17
f 18//18 20//20 19//19
f 20//20 22//22 21//21
f 22//22 24//24 23//23
f 24//24 26//26 25//25
f 26//26 28//28 27//27
f 28//28 30//30 29//29
f 6//6 4//4 2//2
f 2//2 32//32 30//30
f 30//30 28//28 26//26
f 26//26 24//24 22//22
f 22//22 20//20 18//18
f 18//18 16//16 14//14
f 14//14 12//12 10//10
f 10//10 8//8 6//6
f 6//6 2//2 30//30
f 30//30 26//26 6//6
f 26//26 22//22 6//6
f 22//22 18//18 14//14
f 14//14 10//10 22//22
f 30//30 32//32 31//31
f 32//32 2//2 1//1
f 31//31 1//1 3//3
f 3//3 5//5 7//7
f 7//7 9//9 11//11
f 11//11 13//13 15//15
f 15//15 17//17 19//19
f 19//19 21//21 23//23
f 23//23 25//25 27//27
f 27//27 29//29 31//31
f 31//31 3//3 7//7
f 7//7 11//11 31//31
f 11//11 15//15 31//31
f 15//15 19//19 23//23
f 23//23 27//27 15//15
