v 0.01124709 0.00475638 -0.00161381
v 0.00785530 0.01067363 0.00111989
v 0.01159060 0.00482850 -0.00134372
v 0.00819881 0.01074575 0.00138998
v 0.01183500 0.00479852 -0.00097558
v 0.00844321 0.01071577 0.00175811
v 0.01194307 0.00467099 -0.00056545
v 0.00855128 0.01058824 0.00216825
v 0.01189837 0.00446533 -0.00017576
v 0.00850658 0.01038259 0.00255793
v 0.01170770 0.00421286 0.00013416
v 0.00831591 0.01013011 0.00286786
v 0.01140008 0.00395200 0.00031713
v 0.00800829 0.00986926 0.00305083
v 0.01102236 0.00372248 0.00034529
v 0.00763057 0.00963973 0.00307899
v 0.01063203 0.00355923 0.00021436
v 0.00724024 0.00947648 0.00294806
v 0.01028852 0.00348711 -0.00005573
v 0.00689673 0.00940436 0.00267797
v 0.01004412 0.00351709 -0.00042386
v 0.00665233 0.00943434 0.00230984
v 0.00993605 0.00364462 -0.00083399
v 0.00654426 0.00956187 0.00189971
v 0.00998075 0.00385027 -0.00122368
v 0.00658896 0.00976752 0.00151002
v 0.01017143 0.00410275 -0.00153360
v 0.00677963 0.01002000 0.00120010
v 0.01047904 0.00436360 -0.00171657
v 0.00708725 0.01028085 0.00101713
v 0.01085676 0.00459313 -0.00174474
v 0.00746497 0.01051038 0.00098896
vn 0.509466 -0.142605 -0.848592
vn -0.105119 0.929602 -0.353256
vn 0.735290 -0.095163 -0.671039
vn 0.120696 0.977020 -0.175685
vn 0.895953 -0.114904 -0.429029
vn 0.281368 0.957306 0.066321
vn 0.967010 -0.198710 -0.159397
vn 0.352425 0.873465 0.335939
vn 0.937615 -0.333935 0.096773
vn 0.323033 0.738268 0.592124
vn 0.812271 -0.499893 0.300537
vn 0.197671 0.572299 0.795865
vn 0.610043 -0.671398 0.420799
vn -0.004537 0.400795 0.916156
vn 0.361726 -0.822280 0.439330
vn -0.252859 0.249908 0.934670
vn 0.105129 -0.929606 0.353244
vn -0.509465 0.142588 0.848595
vn -0.120715 -0.977013 0.175706
vn -0.735291 0.095191 0.671033
vn -0.281356 -0.957309 -0.066320
vn -0.895957 0.114894 0.429023
vn -0.352436 -0.873463 -0.335934
vn -0.967007 0.198721 0.159398
vn -0.323020 -0.738275 -0.592121
vn -0.937618 0.333925 -0.096783
vn -0.197696 -0.572284 -0.795869
vn -0.812267 0.499913 -0.300516
vn 0.004553 -0.400814 -0.916148
vn -0.610041 0.671386 -0.420822
vn 0.252859 -0.249912 -0.934669
vn -0.361723 0.822279 -0.439333
f 2//2 3//3 1//1
f 4//4 5//5 3//3
f 6//6 7//7 5//5
f 8//8 9//9 7//7
f 10//10 11//11 9//9
f 12//12 13//13 11//11
f 14//14 15//15 13//13
f 16//16 17//17 15//15
f 18//18 19//19 17//17
f 20//20 21//21 19//19
f 22//22 23//23 21//21
f 24//24 25//25 23//23
f 26//26 27//27 25//25
f 28//28 29//29 27//27
f 22//22 14//14 6//6
f 30//30 31//31 29//29
f 32//32 1//1 31//31
f 15//15 23//23 31//31
f 2//2 4//4 3//3
f 4//4 6//6 5//5
f 6//6 8//8 7//7
f 8//8 10//10 9//9
f 10//10 12//12 11//11
f 12//12 14//14 13//13
f 14//14 16//16 15//15
f 16//16 18//18 17//17
f 18//18 20//20 19//19
f 20//20 22//22 21//21
f 22//22 24//24 23//23
f 24//24 26//26 25//25
f 26//26 28//28 27//27
f 28//28 30//30 29//29
f 6//6 4//4 2//2
f 2//2 32//32 6//6
f 32//32 30//30 6//6
f 30//30 28//28 26//26
f 26//26 24//24 30//30
f 24//24 22//22 30//30
f 22//22 20//20 18//18
f 18//18 16//16 22//22
f 16//16 14//14 22//22
f 14//14 12//12 10//10
f 10//10 8//8 14//14
f 8//8 6//6 14//14
f 6//6 30//30 22//22
f 30//30 32//32 31//31
f 32//32 2//2 1//1
f 31//31 1//1 3//3
f 3//3 5//5 7//7
f 7//7 9//9 11//11
f 11//11 13//13 15//15
f 15//15 17//17 19//19
f 19//19 21//21 23//23
f 23//23 25//25 27//27
f 27//27 29//29 31//31
f 31//31 3//3 7//7
f 7//7 11//11 15//15
f 15//15 19//19 23//23
f 23//23 27//27 31//31
f 31//31 7//7 15//15
