v -0.07554714 -0.00300715 -0.00182044
v -0.08182471 -0.00818995 -0.00324987
v -0.07536080 -0.00331109 -0.00153680
v -0.08163837 -0.00849388 -0.00296624
v -0.07510047 -0.00366199 -0.00140781
v -0.08137804 -0.00884479 -0.00283724
v -0.07480577 -0.00400645 -0.00145310
v -0.08108333 -0.00918924 -0.00288254
v -0.07452157 -0.00429201 -0.00166578
v -0.08079914 -0.00947481 -0.00309522
v -0.07429115 -0.00447521 -0.00201347
v -0.08056872 -0.00965801 -0.00344291
v -0.07414958 -0.00452816 -0.00244324
v -0.08042714 -0.00971096 -0.00387268
v -0.07411841 -0.00444279 -0.00288966
v -0.08039597 -0.00962559 -0.00431910
v -0.07420238 -0.00423211 -0.00328477
v -0.08047995 -0.00941490 -0.00471420
v -0.07438873 -0.00392818 -0.00356840
v -0.08066629 -0.00911097 -0.00499784
v -0.07464906 -0.00357727 -0.00369740
v -0.08092663 -0.00876007 -0.00512683
v -0.07494376 -0.00323282 -0.00365210
v -0.08122133 -0.00841561 -0.00508154
v -0.07522795 -0.00294725 -0.00343942
v -0.08150552 -0.00813004 -0.00486886
v -0.07545838 -0.00276405 -0.00309173
v -0.08173595 -0.00794684 -0.00452117
v -0.07559995 -0.00271110 -0.00266196
v -0.08187751 -0.00789389 -0.00409140
v -0.07563113 -0.00279647 -0.00221554
v -0.08190869 -0.00797926 -0.00364498
vn 0.075898 0.808878 0.583058
vn -0.935340 -0.026010 0.352794
vn 0.194992 0.614636 0.764331
vn -0.816254 -0.220264 0.534054
vn 0.361384 0.390381 0.846761
vn -0.649870 -0.444520 0.616499
vn 0.549710 0.170225 0.817828
vn -0.461523 -0.664657 0.587560
vn 0.731342 -0.012278 0.681900
vn -0.279896 -0.847164 0.451633
vn 0.878608 -0.129360 0.459689
vn -0.132648 -0.964248 0.229414
vn 0.969091 -0.163183 0.185026
vn -0.042119 -0.998088 -0.045237
vn 0.989011 -0.108634 -0.100279
vn -0.022248 -0.943527 -0.330548
vn 0.935340 0.026007 -0.352794
vn -0.075901 -0.808877 -0.583059
vn 0.816250 0.220251 -0.534066
vn -0.194990 -0.614633 -0.764333
vn 0.649876 0.444522 -0.616492
vn -0.361380 -0.390374 -0.846766
vn 0.461522 0.664654 -0.587565
vn -0.549725 -0.170242 -0.817814
vn 0.279896 0.847162 -0.451636
vn -0.731345 0.012276 -0.681897
vn 0.132634 0.964247 -0.229424
vn -0.878608 0.129364 -0.459688
vn 0.042169 0.998086 0.045244
vn -0.969091 0.163182 -0.185023
vn 0.022239 0.943528 0.330546
vn -0.989009 0.108643 0.100284
f 2//2 3//3 1//1
f 4//4 5//5 3//3
f 6//6 7//7 5//5
f 8//8 9//9 7//7
f 10//10 11//11 9//9
f 12//12 13//13 11//11
f 14//14 15//15 13//13
f 16//16 17//17 15//15
f 18//18 19//19 17//17
f 20//20 21//21 19//19
f 22//22 23//23 21//21
f 24//24 25//25 23//23
f 26//26 27//27 25//25
f 28//28 29//29 27//27
f 22//22 14//14 6//6
f 30//30 31//31 29//29
f 32//32 1//1 31//31
f 15//15 23//23 31//31
f 2//2 4//4 3//3
f 4//4 6//6 5//5
f 6//6 8//8 7//7
f 8//8 10//10 9//9
f 10//10 12//12 11//11
f 12//12 14//14 13//13
f 14//14 16//16 15//15
f 16//16 18//18 17//17
f 18//18 20//20 19//19
f 20//20 22//22 21//21
f 22//22 24//24 23//23
f 24//24 26//26 25//25
f 26//26 28//28 27//27
f 28//28 30//30 29//29
f 6//6 4//4 2//2
f 2//2 32//32 6//6
f 32//32 30//30 6//6
f 30//30 28//28 22//22
f 28//28 26//26 22//22
f 26//26 24//24 22//22
f 22//22 20//20 14//14
f 20//20 18//18 14//14
f 18//18 16//16 14//14
f 14//14 12//12 10//10
f 10//10 8//8 14//14
f 8//8 6//6 14//14
f 6//6 30//30 22//22
f 30//30 32//32 31//31
f 32//32 2//2 1//1
f 31//31 1//1 7//7
f 1//1 3//3 7//7
f 3//3 5//5 7//7
f 7//7 9//9 15//15
f 9//9 11//11 15//15
f 11//11 13//13 15//15
f 15//15 17//17 23//23
f 17//17 19//19 23//23
f 19//19 21//21 23//23
f 23//23 25//25 31//31
f 25//25 27//27 31//31
f 27//27 29//29 31//31
f 31//31 7//7 15//15
