v -0.05625265 0.00627765 -0.00267061
v -0.06218817 0.01175551 -0.00056385
v -0.05600555 0.00639222 -0.00227232
v -0.06194106 0.01187007 -0.00016556
v -0.05586622 0.00636582 -0.00181112
v -0.06180173 0.01184367 0.00029564
v -0.05585586 0.00620246 -0.00135722
v -0.06179138 0.01168032 0.00074955
v -0.05597606 0.00592703 -0.00097971
v -0.06191158 0.01140489 0.00112705
v -0.05620852 0.00558145 -0.00073609
v -0.06214404 0.01105931 0.00137068
v -0.05651785 0.00521833 -0.00066342
v -0.06245337 0.01069619 0.00144335
v -0.05685696 0.00489296 -0.00077278
v -0.06279247 0.01037082 0.00133399
v -0.05717421 0.00465486 -0.00104752
v -0.06310973 0.01013272 0.00105925
v -0.05742131 0.00454029 -0.00144580
v -0.06335682 0.01001815 0.00066096
v -0.05756065 0.00456670 -0.00190701
v -0.06349616 0.01004455 0.00019976
v -0.05757100 0.00473005 -0.00236091
v -0.06350651 0.01020791 -0.00025415
v -0.05745080 0.00500548 -0.00273841
v -0.06338631 0.01048334 -0.00063165
v -0.05721834 0.00535106 -0.00298204
v -0.06315386 0.01082892 -0.00087528
v -0.05690901 0.00571418 -0.00305471
v -0.06284452 0.01119204 -0.00094794
v -0.05656991 0.00603955 -0.00294535
v -0.06250542 0.01151741 -0.00083858
vn 0.751416 0.052722 -0.657719
vn -0.195331 0.926481 -0.321680
vn 0.900517 0.121882 -0.417389
vn -0.046236 0.995613 -0.081341
vn 0.984598 0.105925 -0.139093
vn 0.037876 0.979682 0.196947
vn 0.990844 0.007385 0.134811
vn 0.044088 0.881114 0.470844
vn 0.918315 -0.158841 0.362585
vn -0.028433 0.714913 0.698635
vn 0.778038 -0.367352 0.509616
vn -0.168714 0.506389 0.845639
vn 0.591395 -0.586476 0.553442
vn -0.355348 0.287263 0.889498
vn 0.386766 -0.782809 0.487465
vn -0.559984 0.090946 0.823496
vn 0.195342 -0.926481 0.321674
vn -0.751413 -0.052738 0.657721
vn 0.046211 -0.995613 0.081355
vn -0.900519 -0.121874 0.417387
vn -0.037840 -0.979683 -0.196952
vn -0.984597 -0.105945 0.139087
vn -0.044119 -0.881113 -0.470843
vn -0.990844 -0.007373 -0.134807
vn 0.028444 -0.714918 -0.698630
vn -0.918311 0.158830 -0.362597
vn 0.168690 -0.506379 -0.845650
vn -0.778045 0.367370 -0.509594
vn 0.355363 -0.287282 -0.889486
vn -0.591381 0.586469 -0.553464
vn 0.559975 -0.090935 -0.823504
vn -0.386774 0.782813 -0.487452
f 2//2 3//3 1//1
f 4//4 5//5 3//3
f 6//6 7//7 5//5
f 8//8 9//9 7//7
f 10//10 11//11 9//9
f 12//12 13//13 11//11
f 14//14 15//15 13//13
f 16//16 17//17 15//15
f 18//18 19//19 17//17
f 20//20 21//21 19//19
f 22//22 23//23 21//21
f 24//24 25//25 23//23
f 26//26 27//27 25//25
f 28//28 29//29 27//27
f 10//10 6//6 22//22
f 30//30 31//31 29//29
f 32//32 1//1 31//31
f 15//15 23//23 31//31
f 2//2 4//4 3//3
f 4//4 6//6 5//5
f 6//6 8//8 7//7
f 8//8 10//10 9//9
f 10//10 12//12 11//11
f 12//12 14//14 13//13
f 14//14 16//16 15//15
f 16//16 18//18 17//17
f 18//18 20//20 19//19
f 20//20 22//22 21//21
f 22//22 24//24 23//23
f 24//24 26//26 25//25
f 26//26 28//28 27//27
f 28//28 30//30 29//29
f 6//6 4//4 2//2
f 2//2 32//32 30//30
f 30//30 28//28 26//26
f 26//26 24//24 30//30
f 24//24 22//22 30//30
f 22//22 20//20 14//14
f 20//20 18//18 14//14
f 18//18 16//16 14//14
f 14//14 12//12 10//10
f 10//10 8//8 6//6
f 6//6 2//2 22//22
f 2//2 30//30 22//22
f 14//14 10//10 22//22
f 30//30 32//32 31//31
f 32//32 2//2 1//1
f 31//31 1//1 3//3
f 3//3 5//5 7//7
f 7//7 9//9 11//11
f 11//11 13//13 15//15
f 15//15 17//17 19//19
f 19//19 21//21 23//23
f 23//23 25//25 27//27
f 27//27 29//29 31//31
f 31//31 3//3 7//7
f 7//7 11//11 15//15
f 15//15 19//19 23//23
f 23//23 27//27 31//31
f 31//31 7//7 15//15
