v 0.07209403 -0.01434856 -0.00365915
v 0.07008081 -0.00830865 0.00092793
v 0.07232938 -0.01434854 -0.00355589
v 0.07031616 -0.00830863 0.00103119
v 0.07251640 -0.01441130 -0.00339116
v 0.07050318 -0.00837140 0.00119592
v 0.07262662 -0.01452730 -0.00319005
v 0.07061340 -0.00848740 0.00139703
v 0.07264327 -0.01467888 -0.00298316
v 0.07063004 -0.00863897 0.00160392
v 0.07256379 -0.01484295 -0.00280201
v 0.07055057 -0.00880304 0.00178507
v 0.07240031 -0.01499453 -0.00267416
v 0.07038709 -0.00895463 0.00191292
v 0.07217769 -0.01511057 -0.00261908
v 0.07016447 -0.00907066 0.00196800
v 0.07192985 -0.01517337 -0.00264516
v 0.06991663 -0.00913347 0.00194192
v 0.07169450 -0.01517339 -0.00274842
v 0.06968128 -0.00913349 0.00183866
v 0.07150748 -0.01511063 -0.00291315
v 0.06949426 -0.00907072 0.00167393
v 0.07139726 -0.01499463 -0.00311427
v 0.06938404 -0.00895472 0.00147282
v 0.07138062 -0.01484305 -0.00332115
v 0.06936739 -0.00880315 0.00126593
v 0.07146009 -0.01467898 -0.00350231
v 0.06944687 -0.00863908 0.00108478
v 0.07162357 -0.01452739 -0.00363015
v 0.06961035 -0.00848749 0.00095693
v 0.07184619 -0.01441136 -0.00368523
v 0.06983297 -0.00837146 0.00090185
vn 0.263791 -0.045192 -0.963521
vn -0.077793 0.979612 -0.185228
vn 0.530413 -0.045170 -0.846535
vn 0.188817 0.979640 -0.068217
vn 0.742282 -0.116292 -0.659919
vn 0.400698 0.908529 0.118388
vn 0.867160 -0.247683 -0.432074
vn 0.525556 0.777118 0.346235
vn 0.886002 -0.419417 -0.197714
vn 0.544430 0.605394 0.580598
vn 0.795977 -0.605280 0.007522
vn 0.454380 0.419538 0.785829
vn 0.610768 -0.777015 0.152348
vn 0.269188 0.247783 0.930667
vn 0.358577 -0.908457 0.214773
vn 0.016981 0.116362 0.993062
vn 0.077797 -0.979613 0.185220
vn -0.263791 0.045182 0.963521
vn -0.188824 -0.979638 0.068232
vn -0.530412 0.045187 0.846535
vn -0.400687 -0.908533 -0.118397
vn -0.742287 0.116279 0.659916
vn -0.525575 -0.777112 -0.346219
vn -0.867150 0.247705 0.432080
vn -0.544406 -0.605410 -0.580604
vn -0.886014 0.419399 0.197695
vn -0.454387 -0.419532 -0.785828
vn -0.795974 0.605285 -0.007514
vn -0.269173 -0.247810 -0.930664
vn -0.610771 0.777007 -0.152378
vn -0.016993 -0.116336 -0.993065
vn -0.358576 0.908465 -0.214744
f 2//2 3//3 1//1
f 4//4 5//5 3//3
f 6//6 7//7 5//5
f 8//8 9//9 7//7
f 10//10 11//11 9//9
f 12//12 13//13 11//11
f 14//14 15//15 13//13
f 16//16 17//17 15//15
f 18//18 19//19 17//17
f 20//20 21//21 19//19
f 22//22 23//23 21//21
f 24//24 25//25 23//23
f 26//26 27//27 25//25
f 28//28 29//29 27//27
f 22//22 14//14 6//6
f 30//30 31//31 29//29
f 32//32 1//1 31//31
f 27//27 31//31 15//15
f 2//2 4//4 3//3
f 4//4 6//6 5//5
f 6//6 8//8 7//7
f 8//8 10//10 9//9
f 10//10 12//12 11//11
f 12//12 14//14 13//13
f 14//14 16//16 15//15
f 16//16 18//18 17//17
f 18//18 20//20 19//19
f 20//20 22//22 21//21
f 22//22 24//24 23//23
f 24//24 26//26 25//25
f 26//26 28//28 27//27
f 28//28 30//30 29//29
f 6//6 4//4 2//2
f 2//2 32//32 30//30
f 30//30 28//28 26//26
f 26//26 24//24 22//22
f 22//22 20//20 18//18
f 18//18 16//16 14//14
f 14//14 12//12 10//10
f 10//10 8//8 6//6
f 6//6 2//2 30//30
f 30//30 26//26 22//22
f 22//22 18//18 14//14
f 14//14 10//10 6//6
f 6//6 30//30 22//22
f 30//30 32//32 31//31
f 32//32 2//2 1//1
f 31//31 1//1 7//7
f 1//1 3//3 7//7
f 3//3 5//5 7//7
f 7//7 9//9 11//11
f 11//11 13//13 15//15
f 15//15 17//17 23//23
f 17//17 19//19 23//23
f 19//19 21//21 23//23
f 23//23 25//25 27//27
f 27//27 29//29 31//31
f 7//7 11//11 31//31
f 11//11 15//15 31//31
f 23//23 27//27 15//15
