v -0.03103227 -0.01043212 -0.00001487
v -0.03520259 -0.01667278 -0.00489247
v -0.03085954 -0.01061396 0.00007011
v -0.03502987 -0.01685462 -0.00480749
v -0.03063938 -0.01076109 0.00007012
v -0.03480971 -0.01700175 -0.00480748
v -0.03040530 -0.01085112 -0.00001484
v -0.03457562 -0.01709178 -0.00489244
v -0.03019292 -0.01087033 -0.00017183
v -0.03436325 -0.01711099 -0.00504943
v -0.03003459 -0.01081581 -0.00037696
v -0.03420492 -0.01705647 -0.00525457
v -0.02995441 -0.01069585 -0.00059900
v -0.03412474 -0.01693651 -0.00547660
v -0.02996459 -0.01052872 -0.00080414
v -0.03413491 -0.01676937 -0.00568174
v -0.03006357 -0.01033985 -0.00096115
v -0.03423390 -0.01658051 -0.00583875
v -0.03023629 -0.01015801 -0.00104613
v -0.03440662 -0.01639867 -0.00592373
v -0.03045646 -0.01001088 -0.00104614
v -0.03462678 -0.01625154 -0.00592374
v -0.03069054 -0.00992085 -0.00096118
v -0.03486087 -0.01616151 -0.00583879
v -0.03090292 -0.00990164 -0.00080419
v -0.03507324 -0.01614230 -0.00568179
v -0.03106125 -0.00995616 -0.00059905
v -0.03523157 -0.01619682 -0.00547666
v -0.03114142 -0.01007612 -0.00037702
v -0.03531175 -0.01631678 -0.00525462
v -0.03113125 -0.01024326 -0.00017188
v -0.03530157 -0.01648391 -0.00504948
vn -0.222417 0.413382 0.882976
vn -0.842697 -0.514838 0.157494
vn -0.032503 0.213445 0.976414
vn -0.652785 -0.714782 0.250917
vn 0.209581 0.051682 0.976425
vn -0.410710 -0.876554 0.250937
vn 0.466958 -0.047328 0.883012
vn -0.153320 -0.975539 0.157530
vn 0.700473 -0.068450 0.710389
vn 0.080191 -0.996665 -0.015095
vn 0.874561 -0.008495 0.484841
vn 0.254264 -0.936716 -0.240652
vn 0.962718 0.123417 0.240714
vn 0.342470 -0.804806 -0.484770
vn 0.951531 0.307179 0.015152
vn 0.331233 -0.621050 -0.710339
vn 0.842698 0.514835 -0.157495
vn 0.222413 -0.413382 -0.882977
vn 0.652786 0.714775 -0.250932
vn 0.032503 -0.213441 -0.976415
vn 0.410715 0.876555 -0.250928
vn -0.209579 -0.051673 -0.976426
vn 0.153320 0.975539 -0.157536
vn -0.466965 0.047304 -0.883010
vn -0.080192 0.996665 0.015090
vn -0.700474 0.068446 -0.710388
vn -0.254277 0.936715 0.240641
vn -0.874562 0.008497 -0.484839
vn -0.342423 0.804819 0.484781
vn -0.962718 -0.123421 -0.240712
vn -0.331242 0.621048 0.710336
vn -0.951533 -0.307174 -0.015143
f 2//2 3//3 1//1
f 4//4 5//5 3//3
f 6//6 7//7 5//5
f 8//8 9//9 7//7
f 10//10 11//11 9//9
f 12//12 13//13 11//11
f 14//14 15//15 13//13
f 16//16 17//17 15//15
f 18//18 19//19 17//17
f 20//20 21//21 19//19
f 22//22 23//23 21//21
f 24//24 25//25 23//23
f 26//26 27//27 25//25
f 28//28 29//29 27//27
f 22//22 14//14 6//6
f 30//30 31//31 29//29
f 32//32 1//1 31//31
f 15//15 23//23 31//31
f 2//2 4//4 3//3
f 4//4 6//6 5//5
f 6//6 8//8 7//7
f 8//8 10//10 9//9
f 10//10 12//12 11//11
f 12//12 14//14 13//13
f 14//14 16//16 15//15
f 16//16 18//18 17//17
f 18//18 20//20 19//19
f 20//20 22//22 21//21
f 22//22 24//24 23//23
f 24//24 26//26 25//25
f 26//26 28//28 27//27
f 28//28 30//30 29//29
f 6//6 4//4 2//2
f 2//2 32//32 6//6
f 32//32 30//30 6//6
f 30//30 28//28 22//22
f 28//28 26//26 22//22
f 26//26 24//24 22//22
f 22//22 20//20 14//14
f 20//20 18//18 14//14
f 18//18 16//16 14//14
f 14//14 12//12 10//10
f 10//10 8//8 14//14
f 8//8 6//6 14//14
f 6//6 30//30 22//22
f 30//30 32//32 31//31
f 32//32 2//2 1//1
f 31//31 1//1 7//7
f 1//1 3//3 7//7
f 3//3 5//5 7//7
f 7//7 9//9 15//15
f 9//9 11//11 15//15
f 11//11 13//13 15//15
f 15//15 17//17 23//23
f 17//17 19//19 23//23
f 19//19 21//21 23//23
f 23//23 25//25 31//31
f 25//25 27//27 31//31
f 27//27 29//29 31//31
f 31//31 7//7 15//15
