v 0.02993980 -0.01141588 -0.00159955
v 0.02967472 -0.00441522 -0.00196251
v 0.03039386 -0.01139308 -0.00149124
v 0.03012878 -0.00439241 -0.00185420
v 0.03077153 -0.01136458 -0.00121744
v 0.03050646 -0.00436392 -0.00158040
v 0.03101534 -0.01133473 -0.00081984
v 0.03075026 -0.00433407 -0.00118280
v 0.03108815 -0.01130808 -0.00035896
v 0.03082307 -0.00430742 -0.00072192
v 0.03097888 -0.01128868 0.00009502
v 0.03071381 -0.00428802 -0.00026793
v 0.03070417 -0.01127949 0.00047301
v 0.03043910 -0.00427883 0.00011005
v 0.03030584 -0.01128190 0.00071744
v 0.03004077 -0.00428124 0.00035448
v 0.02984453 -0.01129554 0.00079110
v 0.02957946 -0.00429488 0.00042815
v 0.02939047 -0.01131835 0.00068280
v 0.02912540 -0.00431769 0.00031984
v 0.02901280 -0.01134685 0.00040900
v 0.02874772 -0.00434619 0.00004604
v 0.02876899 -0.01137669 0.00001139
v 0.02850391 -0.00437603 -0.00035156
v 0.02869618 -0.01140335 -0.00044948
v 0.02843110 -0.00440269 -0.00081244
v 0.02880545 -0.01142275 -0.00090347
v 0.02854037 -0.00442209 -0.00126643
v 0.02908016 -0.01143194 -0.00128145
v 0.02881508 -0.00443128 -0.00164441
v 0.02947849 -0.01142953 -0.00152588
v 0.02921341 -0.00442887 -0.00188884
vn 0.054828 -0.701823 -0.710238
vn 0.004521 0.626845 -0.779131
vn 0.337703 -0.687616 -0.642761
vn 0.287390 0.641077 -0.711637
vn 0.572986 -0.669876 -0.472179
vn 0.522686 0.658817 -0.541072
vn 0.724888 -0.651263 -0.224486
vn 0.674562 0.677423 -0.293366
vn 0.770246 -0.634663 0.062639
vn 0.719942 0.694006 -0.006245
vn 0.702173 -0.622579 0.345469
vn 0.651850 0.706113 0.276580
vn 0.531023 -0.616864 0.580942
vn 0.480726 0.711818 0.512072
vn 0.282872 -0.618358 0.733223
vn 0.232558 0.710339 0.664330
vn -0.004518 -0.626852 0.779125
vn -0.054831 0.701817 0.710244
vn -0.287393 -0.641064 0.711648
vn -0.337701 0.687628 0.642749
vn -0.522675 -0.658830 0.541068
vn -0.572996 0.669864 0.472185
vn -0.674578 -0.677404 0.293372
vn -0.724873 0.651283 0.224477
vn -0.719936 -0.694012 0.006248
vn -0.770252 0.634656 -0.062642
vn -0.651863 -0.706100 -0.276582
vn -0.702161 0.622593 -0.345468
vn -0.480712 -0.711841 -0.512053
vn -0.531035 0.616839 -0.580958
vn -0.232562 -0.710333 -0.664335
vn -0.282869 0.618365 -0.733219
f 2//2 3//3 1//1
f 4//4 5//5 3//3
f 6//6 7//7 5//5
f 8//8 9//9 7//7
f 10//10 11//11 9//9
f 12//12 13//13 11//11
f 14//14 15//15 13//13
f 16//16 17//17 15//15
f 18//18 19//19 17//17
f 20//20 21//21 19//19
f 22//22 23//23 21//21
f 24//24 25//25 23//23
f 26//26 27//27 25//25
f 28//28 29//29 27//27
f 22//22 14//14 6//6
f 30//30 31//31 29//29
f 32//32 1//1 31//31
f 15//15 23//23 31//31
f 2//2 4//4 3//3
f 4//4 6//6 5//5
f 6//6 8//8 7//7
f 8//8 10//10 9//9
f 10//10 12//12 11//11
f 12//12 14//14 13//13
f 14//14 16//16 15//15
f 16//16 18//18 17//17
f 18//18 20//20 19//19
f 20//20 22//22 21//21
f 22//22 24//24 23//23
f 24//24 26//26 25//25
f 26//26 28//28 27//27
f 28//28 30//30 29//29
f 6//6 4//4 2//2
f 2//2 32//32 30//30
f 30//30 28//28 26//26
f 26//26 24//24 22//22
f 22//22 20//20 18//18
f 18//18 16//16 14//14
f 14//14 12//12 10//10
f 10//10 8//8 6//6
f 6//6 2//2 30//30
f 30//30 26//26 22//22
f 22//22 18//18 14//14
f 14//14 10//10 6//6
f 6//6 30//30 22//22
f 30//30 32//32 31//31
f 32//32 2//2 1//1
f 31//31 1//1 7//7
f 1//1 3//3 7//7
f 3//3 5//5 7//7
f 7//7 9//9 15//15
f 9//9 11//11 15//15
f 11//11 13//13 15//15
f 15//15 17//17 23//23
f 17//17 19//19 23//23
f 19//19 21//21 23//23
f 23//23 25//25 31//31
f 25//25 27//27 31//31
f 27//27 29//29 31//31
f 31//31 7//7 15//15
