v -0.00737028 0.00456962 -0.00285531
v -0.01109806 0.01182188 -0.00225494
v -0.00702621 0.00472185 -0.00255784
v -0.01075399 0.01197412 -0.00195747
v -0.00680502 0.00480092 -0.00213967
v -0.01053280 0.01205319 -0.00153929
v -0.00674040 0.00479480 -0.00166445
v -0.01046817 0.01204707 -0.00106407
v -0.00684217 0.00470442 -0.00120453
v -0.01056994 0.01195668 -0.00060416
v -0.00709484 0.00454353 -0.00082994
v -0.01082262 0.01179579 -0.00022957
v -0.00745995 0.00433663 -0.00059770
v -0.01118773 0.01158890 0.00000267
v -0.00788191 0.00411522 -0.00054317
v -0.01160969 0.01136749 0.00005720
v -0.00829649 0.00391301 -0.00067465
v -0.01202427 0.01116527 -0.00007427
v -0.00864056 0.00376078 -0.00097212
v -0.01236834 0.01101304 -0.00037174
v -0.00886174 0.00368170 -0.00139029
v -0.01258952 0.01093397 -0.00078992
v -0.00892637 0.00368782 -0.00186551
v -0.01265415 0.01094009 -0.00126514
v -0.00882460 0.00377821 -0.00232543
v -0.01255238 0.01103047 -0.00172505
v -0.00857193 0.00393910 -0.00270002
v -0.01229970 0.01119136 -0.00209965
v -0.00820681 0.00414600 -0.00293226
v -0.01193459 0.01139826 -0.00233189
v -0.00778485 0.00436741 -0.00298679
v -0.01151263 0.01161967 -0.00238642
vn 0.584636 -0.391191 -0.710753
vn -0.022380 0.789762 -0.613005
vn 0.793502 -0.298755 -0.530189
vn 0.186465 0.882186 -0.432411
vn 0.927766 -0.250781 -0.276331
vn 0.320746 0.930180 -0.178567
vn 0.967006 -0.254465 0.012147
vn 0.359962 0.926470 0.109912
vn 0.905220 -0.309363 0.291327
vn 0.298209 0.871591 0.389102
vn 0.751840 -0.407004 0.518733
vn 0.144802 0.773938 0.616484
vn 0.530204 -0.532622 0.659695
vn -0.076816 0.648324 0.757480
vn 0.274053 -0.667015 0.692810
vn -0.332978 0.513940 0.790563
vn 0.022399 -0.789775 0.612987
vn -0.584636 0.391166 0.710767
vn -0.186486 -0.882174 0.432427
vn -0.793501 0.298781 0.530176
vn -0.320731 -0.930186 0.178565
vn -0.927771 0.250765 0.276331
vn -0.359992 -0.926459 -0.109909
vn -0.966997 0.254497 -0.012146
vn -0.298185 -0.871604 -0.389093
vn -0.905225 0.309337 -0.291340
vn -0.144825 -0.773924 -0.616496
vn -0.751837 0.407029 -0.518719
vn 0.076831 -0.648345 -0.757460
vn -0.530198 0.532600 -0.659718
vn 0.332971 -0.513930 -0.790574
vn -0.274057 0.667026 -0.692798
f 2//2 3//3 1//1
f 4//4 5//5 3//3
f 6//6 7//7 5//5
f 8//8 9//9 7//7
f 10//10 11//11 9//9
f 12//12 13//13 11//11
f 14//14 15//15 13//13
f 16//16 17//17 15//15
f 18//18 19//19 17//17
f 20//20 21//21 19//19
f 22//22 23//23 21//21
f 24//24 25//25 23//23
f 26//26 27//27 25//25
f 28//28 29//29 27//27
f 22//22 14//14 6//6
f 30//30 31//31 29//29
f 32//32 1//1 31//31
f 15//15 23//23 31//31
f 2//2 4//4 3//3
f 4//4 6//6 5//5
f 6//6 8//8 7//7
f 8//8 10//10 9//9
f 10//10 12//12 11//11
f 12//12 14//14 13//13
f 14//14 16//16 15//15
f 16//16 18//18 17//17
f 18//18 20//20 19//19
f 20//20 22//22 21//21
f 22//22 24//24 23//23
f 24//24 26//26 25//25
f 26//26 28//28 27//27
f 28//28 30//30 29//29
f 6//6 4//4 2//2
f 2//2 32//32 30//30
f 30//30 28//28 26//26
f 26//26 24//24 22//22
f 22//22 20//20 18//18
f 18//18 16//16 14//14
f 14//14 12//12 10//10
f 10//10 8//8 6//6
f 6//6 2//2 30//30
f 30//30 26//26 22//22
f 22//22 18//18 14//14
f 14//14 10//10 6//6
f 6//6 30//30 22//22
f 30//30 32//32 31//31
f 32//32 2//2 1//1
f 31//31 1//1 3//3
f 3//3 5//5 7//7
f 7//7 9//9 11//11
f 11//11 13//13 15//15
f 15//15 17//17 19//19
f 19//19 21//21 23//23
f 23//23 25//25 27//27
f 27//27 29//29 31//31
f 31//31 3//3 7//7
f 7//7 11//11 15//15
f 15//15 19//19 23//23
f 23//23 27//27 31//31
f 31//31 7//7 15//15
