v -0.06222419 0.01164152 -0.00054760
v -0.06779432 0.01531110 -0.00355988
v -0.06226045 0.01181253 -0.00027222
v -0.06783058 0.01548210 -0.00328451
v -0.06237372 0.01188460 0.00002503
v -0.06794386 0.01555418 -0.00298725
v -0.06254676 0.01184678 0.00029893
v -0.06811690 0.01551635 -0.00271336
v -0.06275322 0.01170481 0.00050775
v -0.06832335 0.01537438 -0.00250453
v -0.06296167 0.01148031 0.00061972
v -0.06853180 0.01514988 -0.00239256
v -0.06314038 0.01120745 0.00061778
v -0.06871051 0.01487703 -0.00239450
v -0.06326213 0.01092779 0.00050224
v -0.06883227 0.01459736 -0.00251005
v -0.06330840 0.01068388 0.00029067
v -0.06887854 0.01435346 -0.00272161
v -0.06327214 0.01051288 0.00001530
v -0.06884228 0.01418245 -0.00299698
v -0.06315887 0.01044080 -0.00028196
v -0.06872901 0.01411038 -0.00329424
v -0.06298583 0.01047862 -0.00055585
v -0.06855597 0.01414820 -0.00356814
v -0.06277937 0.01062059 -0.00076468
v -0.06834951 0.01429017 -0.00377696
v -0.06257092 0.01084509 -0.00087665
v -0.06814106 0.01451467 -0.00388893
v -0.06239222 0.01111795 -0.00087471
v -0.06796235 0.01478753 -0.00388699
v -0.06227046 0.01139762 -0.00075916
v -0.06784059 0.01506719 -0.00377144
vn 0.990558 0.093626 -0.100140
vn -0.022736 0.761191 -0.648128
vn 0.958188 0.246288 0.145661
vn -0.055101 0.913841 -0.402316
vn 0.857077 0.310631 0.411008
vn -0.156223 0.978178 -0.136972
vn 0.702623 0.276848 0.655497
vn -0.310689 0.944412 0.107509
vn 0.518319 0.150138 0.841905
vn -0.494973 0.817685 0.293926
vn 0.332247 -0.050263 0.941852
vn -0.681045 0.617284 0.393875
vn 0.172740 -0.293837 0.940117
vn -0.840566 0.373720 0.392151
vn 0.064047 -0.543472 0.836980
vn -0.949257 0.124089 0.288988
vn 0.022733 -0.761190 0.648130
vn -0.990556 -0.093640 0.100149
vn 0.055104 -0.913840 0.402319
vn -0.958187 -0.246292 -0.145662
vn 0.156230 -0.978176 0.136982
vn -0.857078 -0.310621 -0.411012
vn 0.310650 -0.944421 -0.107539
vn -0.702622 -0.276848 -0.655498
vn 0.494981 -0.817686 -0.293911
vn -0.518319 -0.150134 -0.841906
vn 0.681044 -0.617287 -0.393872
vn -0.332244 0.050265 -0.941853
vn 0.840566 -0.373724 -0.392146
vn -0.172717 0.293825 -0.940125
vn 0.949254 -0.124086 -0.288996
vn -0.064054 0.543475 -0.836978
f 2//2 3//3 1//1
f 4//4 5//5 3//3
f 6//6 7//7 5//5
f 8//8 9//9 7//7
f 10//10 11//11 9//9
f 12//12 13//13 11//11
f 14//14 15//15 13//13
f 16//16 17//17 15//15
f 18//18 19//19 17//17
f 20//20 21//21 19//19
f 22//22 23//23 21//21
f 24//24 25//25 23//23
f 26//26 27//27 25//25
f 28//28 29//29 27//27
f 22//22 14//14 6//6
f 30//30 31//31 29//29
f 32//32 1//1 31//31
f 15//15 23//23 31//31
f 2//2 4//4 3//3
f 4//4 6//6 5//5
f 6//6 8//8 7//7
f 8//8 10//10 9//9
f 10//10 12//12 11//11
f 12//12 14//14 13//13
f 14//14 16//16 15//15
f 16//16 18//18 17//17
f 18//18 20//20 19//19
f 20//20 22//22 21//21
f 22//22 24//24 23//23
f 24//24 26//26 25//25
f 26//26 28//28 27//27
f 28//28 30//30 29//29
f 6//6 4//4 30//30
f 4//4 2//2 30//30
f 2//2 32//32 30//30
f 30//30 28//28 22//22
f 28//28 26//26 22//22
f 26//26 24//24 22//22
f 22//22 20//20 14//14
f 20//20 18//18 14//14
f 18//18 16//16 14//14
f 14//14 12//12 6//6
f 12//12 10//10 6//6
f 10//10 8//8 6//6
f 6//6 30//30 22//22
f 30//30 32//32 31//31
f 32//32 2//2 1//1
f 31//31 1//1 3//3
f 3//3 5//5 31//31
f 5//5 7//7 31//31
f 7//7 9//9 15//15
f 9//9 11//11 15//15
f 11//11 13//13 15//15
f 15//15 17//17 23//23
f 17//17 19//19 23//23
f 19//19 21//21 23//23
f 23//23 25//25 27//27
f 27//27 29//29 23//23
f 29//29 31//31 23//23
f 31//31 7//7 15//15
