v -0.03034778 0.00355280 0.00319486
v -0.02066278 0.00387917 0.00240032
v -0.03051783 0.00065676 0.00433378
v -0.02395093 -0.00141068 0.00474362
v -0.02784620 0.00451033 0.00314244
v -0.03056058 -0.00211325 0.00402653
v -0.02639559 -0.00325801 -0.00410221
v -0.02070750 0.00013195 -0.00461815
v -0.02848399 0.00588365 -0.00104446
v -0.02927673 -0.00219469 -0.00422474
v -0.02237785 -0.00381601 -0.00296693
v -0.02061553 -0.00273564 0.00382600
v -0.02065866 -0.00160462 -0.00413610
v -0.02644958 0.00439782 -0.00416798
v -0.02064865 -0.00470382 0.00185088
v -0.02929612 -0.00294386 0.00437859
v -0.02072438 0.00244822 0.00369072
v -0.02075448 0.00112312 0.00445367
v -0.02066603 -0.00276606 -0.00316287
v -0.03054030 -0.00467678 0.00151028
v -0.03055752 0.00219400 -0.00411496
v -0.02966968 -0.00498916 0.00306354
v -0.03053412 0.00034592 -0.00425260
v -0.03052781 -0.00180214 -0.00347548
v -0.02740776 -0.00562385 0.00285462
v -0.02974305 0.00501164 -0.00000695
v -0.02909208 0.00364232 -0.00434767
v -0.02482988 0.00493434 -0.00360662
v -0.02057222 0.00271715 -0.00420724
v -0.02227863 0.00490978 -0.00270534
v -0.02320980 -0.00556152 0.00189725
v -0.03053296 0.00454130 -0.00096482
v -0.02062384 -0.00117583 0.00440097
v -0.02593466 -0.00471135 -0.00241114
v -0.02845176 0.00562281 -0.00254044
v -0.02321308 0.00448497 0.00270484
v -0.03053799 0.00391484 -0.00279467
v -0.02776729 -0.00421209 -0.00311056
v -0.02241438 -0.00508678 0.00255296
v -0.03045828 -0.00459489 0.00256376
v -0.02530750 0.00564900 -0.00200715
v -0.02966238 0.00089932 0.00475875
v -0.02944751 -0.00502677 0.00086189
v -0.02063487 0.00399726 -0.00245676
vn -0.692178 0.516035 0.504576
vn 0.726357 0.609186 0.318273
vn -0.816329 0.078167 0.572274
vn 0.053350 -0.192906 0.979766
vn -0.093600 0.756923 0.646766
vn -0.810883 -0.149966 0.565667
vn 0.003586 -0.482385 -0.875952
vn 0.600904 -0.045014 -0.798053
vn -0.230393 0.971584 0.054253
vn -0.323584 -0.393164 -0.860648
vn 0.265942 -0.784666 -0.559978
vn 0.720036 -0.337263 0.606467
vn 0.704206 -0.296594 -0.645079
vn -0.010728 0.495682 -0.868438
vn 0.747865 -0.651825 0.125790
vn -0.204901 -0.333499 0.920214
vn 0.703766 0.375811 0.602892
vn 0.627212 0.210088 0.749979
vn 0.782647 -0.481152 -0.394913
vn -0.799139 -0.595217 -0.084223
vn -0.778562 0.141741 -0.611352
vn -0.373442 -0.775441 0.509149
vn -0.704261 -0.045515 -0.708480
vn -0.843847 -0.343584 -0.412156
vn -0.047314 -0.900940 0.431358
vn -0.508767 0.833373 0.215974
vn -0.272958 0.397396 -0.876111
vn 0.119907 0.753103 -0.646883
vn 0.698690 0.293960 -0.652243
vn 0.337082 0.889634 -0.308102
vn 0.170299 -0.982474 0.075780
vn -0.861615 0.506791 -0.027958
vn 0.714299 -0.117369 0.689929
vn 0.023843 -0.905142 -0.424440
vn -0.268396 0.874254 -0.404528
vn 0.161545 0.826738 0.538895
vn -0.845465 0.434133 -0.310994
vn -0.257488 -0.795503 -0.548521
vn 0.239618 -0.763993 0.599081
vn -0.807624 -0.514857 0.287516
vn 0.136937 0.984809 -0.106772
vn -0.235314 0.176296 0.955797
vn -0.310962 -0.925762 -0.215099
vn 0.811341 0.560808 -0.164987
f 20//20 6//6 24//24
f 21//21 23//23 24//24
f 40//40 6//6 20//20
f 3//3 32//32 6//6
f 32//32 37//37 21//21
f 37//37 27//27 21//21
f 38//38 20//20 24//24
f 38//38 43//43 20//20
f 22//22 6//6 40//40
f 22//22 16//16 6//6
f 42//42 1//1 3//3
f 1//1 32//32 3//3
f 40//40 20//20 22//22
f 10//10 24//24 23//23
f 5//5 26//26 1//1
f 1//1 26//26 32//32
f 26//26 9//9 32//32
f 9//9 41//41 35//35
f 27//27 23//23 21//21
f 27//27 10//10 23//23
f 10//10 7//7 38//38
f 34//34 43//43 38//38
f 34//34 25//25 43//43
f 32//32 35//35 37//37
f 5//5 9//9 26//26
f 41//41 28//28 35//35
f 28//28 14//14 35//35
f 14//14 27//27 35//35
f 27//27 8//8 10//10
f 7//7 34//34 38//38
f 11//11 15//15 31//31
f 31//31 25//25 34//34
f 5//5 36//36 9//9
f 29//29 14//14 28//28
f 30//30 28//28 41//41
f 8//8 7//7 10//10
f 7//7 11//11 34//34
f 11//11 31//31 34//34
f 39//39 25//25 31//31
f 8//8 13//13 7//7
f 39//39 12//12 25//25
f 16//16 22//22 25//25
f 4//4 18//18 42//42
f 42//42 5//5 1//1
f 30//30 29//29 28//28
f 15//15 13//13 29//29
f 13//13 8//8 29//29
f 44//44 2//2 29//29
f 14//14 8//8 27//27
f 2//2 44//44 30//30
f 19//19 15//15 11//11
f 15//15 39//39 31//31
f 15//15 19//19 13//13
f 6//6 42//42 3//3
f 33//33 18//18 4//4
f 18//18 5//5 42//42
f 18//18 36//36 5//5
f 44//44 29//29 30//30
f 39//39 15//15 12//12
f 2//2 33//33 12//12
f 8//8 14//14 29//29
f 13//13 11//11 7//7
f 13//13 19//19 11//11
f 2//2 18//18 33//33
f 42//42 6//6 16//16
f 18//18 17//17 36//36
f 17//17 18//18 2//2
f 2//2 36//36 17//17
f 24//24 32//32 21//21
f 36//36 41//41 9//9
f 42//42 16//16 4//4
f 38//38 24//24 10//10
f 35//35 27//27 37//37
f 33//33 4//4 12//12
f 16//16 25//25 12//12
f 29//29 12//12 15//15
f 43//43 22//22 20//20
f 36//36 30//30 41//41
f 32//32 9//9 35//35
f 24//24 6//6 32//32
f 16//16 12//12 4//4
f 29//29 2//2 12//12
f 43//43 25//25 22//22
f 36//36 2//2 30//30
