v 0.05288367 0.00480138 -0.00052322
v 0.05243718 0.00891213 0.00201859
v 0.05318742 0.00478467 -0.00044284
v 0.05274093 0.00889542 0.00209897
v 0.05343864 0.00470554 -0.00027073
v 0.05299215 0.00881628 0.00227108
v 0.05359910 0.00457602 -0.00003308
v 0.05315261 0.00868676 0.00250873
v 0.05364436 0.00441583 0.00023393
v 0.05319788 0.00852658 0.00277574
v 0.05356754 0.00424937 0.00048965
v 0.05312105 0.00836012 0.00303146
v 0.05338033 0.00410198 0.00069514
v 0.05293384 0.00821272 0.00323695
v 0.05311123 0.00399608 0.00081912
v 0.05266474 0.00810683 0.00336093
v 0.05280120 0.00394782 0.00084272
v 0.05235472 0.00805856 0.00338453
v 0.05249746 0.00396453 0.00076234
v 0.05205097 0.00807527 0.00330415
v 0.05224623 0.00404366 0.00059023
v 0.05179974 0.00815441 0.00313204
v 0.05208577 0.00417318 0.00035258
v 0.05163928 0.00828393 0.00289439
v 0.05204051 0.00433337 0.00008557
v 0.05159402 0.00844411 0.00262738
v 0.05211733 0.00449983 -0.00017015
v 0.05167084 0.00861057 0.00237167
v 0.05230454 0.00464722 -0.00037564
v 0.05185806 0.00875797 0.00216617
v 0.05257365 0.00475312 -0.00049962
v 0.05212716 0.00886386 0.00204219
vn 0.099392 -0.168900 -0.980609
vn -0.023080 0.958730 -0.283380
vn 0.380464 -0.184348 -0.906236
vn 0.257987 0.943277 -0.208977
vn 0.612932 -0.257589 -0.746969
vn 0.490464 0.870042 -0.049723
vn 0.761422 -0.377424 -0.527056
vn 0.638935 0.750196 0.170198
vn 0.803297 -0.525663 -0.279986
vn 0.680839 0.601955 0.417262
vn 0.732225 -0.679682 -0.043344
vn 0.609732 0.447939 0.653894
vn 0.558974 -0.816089 0.146787
vn 0.436511 0.311520 0.844046
vn 0.309970 -0.914060 0.261557
vn 0.187484 0.213562 0.958771
vn 0.023086 -0.958738 0.283353
vn -0.099394 0.168871 0.980614
vn -0.257987 -0.943274 0.208990
vn -0.380465 0.184360 0.906233
vn -0.490453 -0.870048 0.049713
vn -0.612940 0.257575 0.746967
vn -0.638946 -0.750190 -0.170186
vn -0.761414 0.377439 0.527057
vn -0.680818 -0.601974 -0.417269
vn -0.803314 0.525645 0.279971
vn -0.609751 -0.447920 -0.653890
vn -0.732210 0.679697 0.043360
vn -0.436495 -0.311549 -0.844043
vn -0.558985 0.816077 -0.146815
vn -0.187498 -0.213519 -0.958777
vn -0.309962 0.914075 -0.261515
f 2//2 3//3 1//1
f 4//4 5//5 3//3
f 6//6 7//7 5//5
f 8//8 9//9 7//7
f 10//10 11//11 9//9
f 12//12 13//13 11//11
f 14//14 15//15 13//13
f 16//16 17//17 15//15
f 18//18 19//19 17//17
f 20//20 21//21 19//19
f 22//22 23//23 21//21
f 24//24 25//25 23//23
f 26//26 27//27 25//25
f 28//28 29//29 27//27
f 22//22 14//14 6//6
f 30//30 31//31 29//29
f 32//32 1//1 31//31
f 23//23 27//27 31//31
f 2//2 4//4 3//3
f 4//4 6//6 5//5
f 6//6 8//8 7//7
f 8//8 10//10 9//9
f 10//10 12//12 11//11
f 12//12 14//14 13//13
f 14//14 16//16 15//15
f 16//16 18//18 17//17
f 18//18 20//20 19//19
f 20//20 22//22 21//21
f 22//22 24//24 23//23
f 24//24 26//26 25//25
f 26//26 28//28 27//27
f 28//28 30//30 29//29
f 6//6 4//4 2//2
f 2//2 32//32 30//30
f 30//30 28//28 26//26
f 26//26 24//24 22//22
f 22//22 20//20 18//18
f 18//18 16//16 14//14
f 14//14 12//12 10//10
f 10//10 8//8 6//6
f 6//6 2//2 30//30
f 30//30 26//26 22//22
f 22//22 18//18 14//14
f 14//14 10//10 6//6
f 6//6 30//30 22//22
f 30//30 32//32 31//31
f 32//32 2//2 1//1
f 31//31 1//1 3//3
f 3//3 5//5 7//7
f 7//7 9//9 11//11
f 11//11 13//13 15//15
f 15//15 17//17 19//19
f 19//19 21//21 23//23
f 23//23 25//25 27//27
f 27//27 29//29 31//31
f 31//31 3//3 15//15
f 3//3 7//7 15//15
f 7//7 11//11 15//15
f 15//15 19//19 31//31
f 19//19 23//23 31//31
