v 0.07563210 0.01473565 -0.00127554
v 0.07067610 0.00922809 0.00218710
v 0.07577666 0.01464669 -0.00121014
v 0.07082066 0.00913913 0.00225251
v 0.07591266 0.01452591 -0.00120759
v 0.07095665 0.00901836 0.00225505
v 0.07601939 0.01439171 -0.00126829
v 0.07106338 0.00888415 0.00219435
v 0.07608061 0.01426450 -0.00138300
v 0.07112461 0.00875694 0.00207964
v 0.07608700 0.01416366 -0.00153426
v 0.07113099 0.00865610 0.00192838
v 0.07603758 0.01410453 -0.00169903
v 0.07108157 0.00859697 0.00176361
v 0.07593987 0.01409613 -0.00185224
v 0.07098387 0.00858857 0.00161040
v 0.07580876 0.01413972 -0.00197055
v 0.07085276 0.00863216 0.00149209
v 0.07566421 0.01422868 -0.00203596
v 0.07070821 0.00872112 0.00142668
v 0.07552821 0.01434946 -0.00203851
v 0.07057220 0.00884190 0.00142413
v 0.07542148 0.01448366 -0.00197781
v 0.07046548 0.00897610 0.00148483
v 0.07536026 0.01461087 -0.00186310
v 0.07040425 0.00910331 0.00159955
v 0.07535388 0.01471171 -0.00171184
v 0.07039787 0.00920415 0.00175080
v 0.07540330 0.01477084 -0.00154707
v 0.07044729 0.00926328 0.00191558
v 0.07550099 0.01477924 -0.00139386
v 0.07054500 0.00927168 0.00206878
vn 0.262040 0.925238 0.274354
vn -0.544792 0.028626 0.838082
vn 0.493414 0.782851 0.379061
vn -0.313422 -0.113785 0.942772
vn 0.711095 0.589540 0.383127
vn -0.095736 -0.307089 0.946853
vn 0.881931 0.374716 0.285982
vn 0.075083 -0.521912 0.849688
vn 0.979919 0.171116 0.102359
vn 0.173103 -0.725515 0.666081
vn 0.990142 0.009682 -0.139729
vn 0.183291 -0.886932 0.423976
vn 0.911039 -0.084926 -0.403480
vn 0.104223 -0.981562 0.160227
vn 0.754651 -0.098423 -0.648703
vn -0.052187 -0.995015 -0.084981
vn 0.544803 -0.028600 -0.838076
vn -0.262025 -0.925235 -0.274378
vn 0.313418 0.113773 -0.942775
vn -0.493421 -0.782851 -0.379051
vn 0.095748 0.307098 -0.946849
vn -0.711094 -0.589533 -0.383141
vn -0.075104 0.521903 -0.849692
vn -0.881931 -0.374730 -0.285963
vn -0.173076 0.725521 -0.666081
vn -0.979921 -0.171094 -0.102376
vn -0.183325 0.886926 -0.423975
vn -0.990139 -0.009711 0.139749
vn -0.104195 0.981563 -0.160242
vn -0.911038 0.084957 0.403475
vn 0.052151 0.995014 0.085010
vn -0.754656 0.098378 0.648704
f 2//2 3//3 1//1
f 4//4 5//5 3//3
f 6//6 7//7 5//5
f 8//8 9//9 7//7
f 10//10 11//11 9//9
f 12//12 13//13 11//11
f 14//14 15//15 13//13
f 16//16 17//17 15//15
f 18//18 19//19 17//17
f 20//20 21//21 19//19
f 22//22 23//23 21//21
f 24//24 25//25 23//23
f 26//26 27//27 25//25
f 28//28 29//29 27//27
f 22//22 14//14 6//6
f 30//30 31//31 29//29
f 32//32 1//1 31//31
f 23//23 27//27 31//31
f 2//2 4//4 3//3
f 4//4 6//6 5//5
f 6//6 8//8 7//7
f 8//8 10//10 9//9
f 10//10 12//12 11//11
f 12//12 14//14 13//13
f 14//14 16//16 15//15
f 16//16 18//18 17//17
f 18//18 20//20 19//19
f 20//20 22//22 21//21
f 22//22 24//24 23//23
f 24//24 26//26 25//25
f 26//26 28//28 27//27
f 28//28 30//30 29//29
f 6//6 4//4 2//2
f 2//2 32//32 30//30
f 30//30 28//28 26//26
f 26//26 24//24 22//22
f 22//22 20//20 18//18
f 18//18 16//16 14//14
f 14//14 12//12 10//10
f 10//10 8//8 6//6
f 6//6 2//2 30//30
f 30//30 26//26 22//22
f 22//22 18//18 14//14
f 14//14 10//10 6//6
f 6//6 30//30 22//22
f 30//30 32//32 31//31
f 32//32 2//2 1//1
f 31//31 1//1 3//3
f 3//3 5//5 7//7
f 7//7 9//9 11//11
f 11//11 13//13 15//15
f 15//15 17//17 19//19
f 19//19 21//21 23//23
f 23//23 25//25 27//27
f 27//27 29//29 31//31
f 31//31 3//3 15//15
f 3//3 7//7 15//15
f 7//7 11//11 15//15
f 15//15 19//19 31//31
f 19//19 23//23 31//31
