v 0.06688940 -0.00371979 0.00349997
v 0.07169497 -0.00280293 -0.00110877
v 0.06701515 -0.00111340 0.00409558
v 0.07173798 0.00189590 0.00284668
v 0.06852251 -0.00440278 0.00027465
v 0.07183222 -0.00412582 0.00232479
v 0.06993011 -0.00386525 0.00324208
v 0.06725840 -0.00268121 -0.00154622
v 0.07097820 0.00265481 0.00259443
v 0.07172555 -0.00256435 0.00339334
v 0.06395064 -0.00258056 -0.00036947
v 0.06570568 0.00053315 -0.00124685
v 0.06744630 0.00259237 -0.00121604
v 0.07172210 0.00343654 0.00100061
v 0.06391905 -0.00172113 0.00313461
v 0.06410135 0.00317534 -0.00015221
v 0.07034205 0.00070856 0.00360993
v 0.06391489 -0.00470018 0.00197604
v 0.06382900 0.00233067 -0.00039594
v 0.07168917 0.00216314 -0.00047193
v 0.07167689 -0.00434011 0.00081121
v 0.06722069 -0.00497889 0.00290301
v 0.07170516 -0.00079670 0.00368454
v 0.07101618 -0.00472377 0.00255749
v 0.06390418 -0.00359314 0.00274321
v 0.06397256 0.00381958 0.00159451
v 0.06764027 0.00393009 0.00160061
v 0.06995689 -0.00496855 0.00232713
v 0.06776272 0.00395260 -0.00043534
v 0.06722324 0.00224241 0.00309832
v 0.07176822 0.00036697 -0.00115824
vn -0.104060 -0.331347 0.937753
vn 0.639644 -0.337935 -0.690402
vn -0.121470 0.031505 0.992095
vn 0.740177 0.334235 0.583460
vn -0.013820 -0.864445 -0.502538
vn 0.853597 -0.440096 0.278724
vn 0.121795 -0.371637 0.920354
vn -0.113174 -0.388254 -0.914577
vn 0.233732 0.660510 0.713509
vn 0.673096 -0.180473 0.717197
vn -0.732754 -0.314146 -0.603643
vn -0.250802 0.055685 -0.966436
vn -0.023909 0.321498 -0.946608
vn 0.693327 0.720455 -0.015550
vn -0.757378 0.002472 0.652972
vn -0.556204 0.605103 -0.569638
vn 0.113236 0.287295 0.951125
vn -0.664335 -0.744184 0.069636
vn -0.786816 0.183090 -0.589406
vn 0.706878 0.389016 -0.590754
vn 0.652290 -0.693020 -0.306987
vn -0.060780 -0.870674 0.488090
vn 0.678490 0.015305 0.734450
vn 0.369283 -0.809989 0.455575
vn -0.769787 -0.248282 0.588034
vn -0.634690 0.701091 0.325022
vn 0.037390 0.914355 0.403184
vn 0.097845 -0.992393 0.074717
vn 0.046483 0.850193 -0.524415
vn -0.089660 0.461505 0.882595
vn 0.708547 0.107020 -0.697501
f 26//26 16//16 19//19
f 13//13 12//12 19//19
f 11//11 18//18 19//19
f 18//18 15//15 19//19
f 15//15 26//26 19//19
f 26//26 29//29 16//16
f 13//13 19//19 16//16
f 12//12 11//11 19//19
f 9//9 30//30 17//17
f 25//25 15//15 18//18
f 8//8 31//31 2//2
f 27//27 29//29 26//26
f 7//7 23//23 3//3
f 8//8 18//18 11//11
f 4//4 9//9 17//17
f 30//30 27//27 26//26
f 3//3 30//30 26//26
f 5//5 18//18 8//8
f 5//5 28//28 18//18
f 28//28 22//22 18//18
f 22//22 25//25 18//18
f 9//9 4//4 14//14
f 31//31 13//13 20//20
f 28//28 24//24 22//22
f 24//24 7//7 22//22
f 1//1 7//7 3//3
f 3//3 17//17 30//30
f 27//27 30//30 9//9
f 31//31 20//20 14//14
f 31//31 8//8 13//13
f 12//12 13//13 8//8
f 6//6 21//21 2//2
f 2//2 21//21 5//5
f 21//21 24//24 28//28
f 7//7 1//1 22//22
f 23//23 17//17 3//3
f 10//10 24//24 6//6
f 24//24 21//21 6//6
f 2//2 31//31 6//6
f 4//4 23//23 6//6
f 23//23 10//10 6//6
f 5//5 8//8 2//2
f 10//10 7//7 24//24
f 14//14 27//27 9//9
f 17//17 23//23 4//4
f 31//31 4//4 6//6
f 1//1 15//15 25//25
f 22//22 1//1 25//25
f 29//29 13//13 16//16
f 28//28 5//5 21//21
f 12//12 8//8 11//11
f 29//29 20//20 13//13
f 14//14 29//29 27//27
f 7//7 10//10 23//23
f 31//31 14//14 4//4
f 1//1 3//3 15//15
f 29//29 14//14 20//20
f 15//15 3//3 26//26
