v -0.02062993 0.01051473 -0.00057287
v -0.02447911 0.01536746 -0.00783803
v -0.02058479 0.01077869 -0.00042048
v -0.02443397 0.01563142 -0.00768564
v -0.02064959 0.01101219 -0.00023018
v -0.02449877 0.01586492 -0.00749534
v -0.02081447 0.01117968 -0.00003095
v -0.02466366 0.01603241 -0.00729611
v -0.02105433 0.01125567 0.00014689
v -0.02490352 0.01610840 -0.00711827
v -0.02133266 0.01122858 0.00027626
v -0.02518184 0.01608131 -0.00698891
v -0.02160707 0.01110254 0.00033746
v -0.02545626 0.01595527 -0.00692770
v -0.02183580 0.01089674 0.00032118
v -0.02568498 0.01574947 -0.00694398
v -0.02198401 0.01064251 0.00022990
v -0.02583320 0.01549524 -0.00703527
v -0.02202916 0.01037856 0.00007751
v -0.02587834 0.01523129 -0.00718766
v -0.02196436 0.01014506 -0.00011279
v -0.02581354 0.01499779 -0.00737796
v -0.02179947 0.00997757 -0.00031202
v -0.02564866 0.01483030 -0.00757719
v -0.02155961 0.00990158 -0.00048986
v -0.02540879 0.01475431 -0.00775503
v -0.02128129 0.00992867 -0.00061923
v -0.02513047 0.01478140 -0.00788439
v -0.02100687 0.01005470 -0.00068043
v -0.02485606 0.01490743 -0.00794560
v -0.02077815 0.01026050 -0.00066415
v -0.02462733 0.01511323 -0.00792932
vn 0.908178 -0.398755 0.127311
vn 0.371397 0.277995 -0.885880
vn 0.950842 -0.149319 0.271300
vn 0.414030 0.527434 -0.741884
vn 0.889606 0.071332 0.451123
vn 0.352809 0.748079 -0.562053
vn 0.733795 0.229589 0.639402
vn 0.196987 0.906352 -0.373796
vn 0.507134 0.301413 0.807443
vn -0.029657 0.978161 -0.205723
vn 0.244127 0.275816 0.929692
vn -0.292676 0.952559 -0.083501
vn -0.015177 0.156698 0.987530
vn -0.551982 0.833462 -0.025636
vn -0.231319 -0.037764 0.972145
vn -0.768120 0.638989 -0.041052
vn -0.371389 -0.277997 0.885883
vn -0.908186 0.398744 -0.127285
vn -0.414046 -0.527429 0.741879
vn -0.950837 0.149326 -0.271314
vn -0.352795 -0.748076 0.562066
vn -0.889605 -0.071331 -0.451126
vn -0.197025 -0.906357 0.373762
vn -0.733793 -0.229591 -0.639403
vn 0.029670 -0.978155 0.205749
vn -0.507132 -0.301422 -0.807442
vn 0.292669 -0.952562 0.083486
vn -0.244130 -0.275798 -0.929697
vn 0.551981 -0.833462 0.025649
vn 0.015196 -0.156725 -0.987525
vn 0.768120 -0.638990 0.041043
vn 0.231314 0.037772 -0.972146
f 2//2 3//3 1//1
f 4//4 5//5 3//3
f 6//6 7//7 5//5
f 8//8 9//9 7//7
f 10//10 11//11 9//9
f 12//12 13//13 11//11
f 14//14 15//15 13//13
f 16//16 17//17 15//15
f 18//18 19//19 17//17
f 20//20 21//21 19//19
f 22//22 23//23 21//21
f 24//24 25//25 23//23
f 26//26 27//27 25//25
f 28//28 29//29 27//27
f 22//22 14//14 6//6
f 30//30 31//31 29//29
f 32//32 1//1 31//31
f 15//15 23//23 31//31
f 2//2 4//4 3//3
f 4//4 6//6 5//5
f 6//6 8//8 7//7
f 8//8 10//10 9//9
f 10//10 12//12 11//11
f 12//12 14//14 13//13
f 14//14 16//16 15//15
f 16//16 18//18 17//17
f 18//18 20//20 19//19
f 20//20 22//22 21//21
f 22//22 24//24 23//23
f 24//24 26//26 25//25
f 26//26 28//28 27//27
f 28//28 30//30 29//29
f 6//6 4//4 2//2
f 2//2 32//32 30//30
f 30//30 28//28 26//26
f 26//26 24//24 22//22
f 22//22 20//20 18//18
f 18//18 16//16 14//14
f 14//14 12//12 10//10
f 10//10 8//8 6//6
f 6//6 2//2 30//30
f 30//30 26//26 22//22
f 22//22 18//18 14//14
f 14//14 10//10 6//6
f 6//6 30//30 22//22
f 30//30 32//32 31//31
f 32//32 2//2 1//1
f 31//31 1//1 3//3
f 3//3 5//5 31//31
f 5//5 7//7 31//31
f 7//7 9//9 15//15
f 9//9 11//11 15//15
f 11//11 13//13 15//15
f 15//15 17//17 23//23
f 17//17 19//19 23//23
f 19//19 21//21 23//23
f 23//23 25//25 27//27
f 27//27 29//29 23//23
f 29//29 31//31 23//23
f 31//31 7//7 15//15
