v -0.00811881 -0.00326179 -0.00099802
v -0.00977403 -0.01140428 0.00109055
v -0.00766784 -0.00335298 -0.00099614
v -0.00932306 -0.01149547 0.00109242
v -0.00725903 -0.00347944 -0.00116517
v -0.00891425 -0.01162193 0.00092339
v -0.00695461 -0.00362192 -0.00147936
v -0.00860983 -0.01176440 0.00060920
v -0.00680093 -0.00375872 -0.00189089
v -0.00845615 -0.01190120 0.00019767
v -0.00682138 -0.00386901 -0.00233711
v -0.00847660 -0.01201150 -0.00024854
v -0.00701285 -0.00393602 -0.00275007
v -0.00866807 -0.01207850 -0.00066151
v -0.00734619 -0.00394953 -0.00306691
v -0.00900141 -0.01209201 -0.00097835
v -0.00777065 -0.00390748 -0.00323940
v -0.00942587 -0.01204997 -0.00115084
v -0.00822161 -0.00381629 -0.00324128
v -0.00987684 -0.01195878 -0.00115271
v -0.00863043 -0.00368983 -0.00307225
v -0.01028565 -0.01183232 -0.00098369
v -0.00893485 -0.00354736 -0.00275806
v -0.01059007 -0.01168984 -0.00066949
v -0.00908853 -0.00341056 -0.00234653
v -0.01074375 -0.01155305 -0.00025796
v -0.00906808 -0.00330026 -0.00190031
v -0.01072330 -0.01144275 0.00018825
v -0.00887661 -0.00323326 -0.00148735
v -0.01053183 -0.01137574 0.00060121
v -0.00854327 -0.00321975 -0.00117051
v -0.01019849 -0.01136224 0.00091806
vn 0.018456 0.836996 0.546897
vn -0.238772 -0.428381 0.871480
vn 0.303831 0.779282 0.548093
vn 0.046602 -0.486103 0.872658
vn 0.562528 0.699266 0.441122
vn 0.305306 -0.566121 0.765699
vn 0.755178 0.609092 0.242307
vn 0.497954 -0.656274 0.566874
vn 0.852424 0.522537 -0.018122
vn 0.595206 -0.742845 0.306450
vn 0.839498 0.452715 -0.300487
vn 0.582252 -0.812652 0.024084
vn 0.718318 0.410341 -0.561818
vn 0.461121 -0.855026 -0.237270
vn 0.507388 0.401749 -0.762335
vn 0.250146 -0.863601 -0.437745
vn 0.238776 0.428395 -0.871472
vn -0.018454 -0.836987 -0.546911
vn -0.046603 0.486092 -0.872664
vn -0.303833 -0.779277 -0.548099
vn -0.305296 0.566128 -0.765698
vn -0.562534 -0.699258 -0.441127
vn -0.497952 0.656274 -0.566876
vn -0.755172 -0.609105 -0.242295
vn -0.595192 0.742854 -0.306453
vn -0.852432 -0.522523 0.018119
vn -0.582275 0.812635 -0.024078
vn -0.839492 -0.452723 0.300490
vn -0.461086 0.855053 0.237242
vn -0.718318 -0.410340 0.561818
vn -0.250170 0.863578 0.437776
vn -0.507381 -0.401773 0.762327
f 2//2 3//3 1//1
f 4//4 5//5 3//3
f 6//6 7//7 5//5
f 8//8 9//9 7//7
f 10//10 11//11 9//9
f 12//12 13//13 11//11
f 14//14 15//15 13//13
f 16//16 17//17 15//15
f 18//18 19//19 17//17
f 20//20 21//21 19//19
f 22//22 23//23 21//21
f 24//24 25//25 23//23
f 26//26 27//27 25//25
f 28//28 29//29 27//27
f 22//22 14//14 6//6
f 30//30 31//31 29//29
f 32//32 1//1 31//31
f 23//23 27//27 31//31
f 2//2 4//4 3//3
f 4//4 6//6 5//5
f 6//6 8//8 7//7
f 8//8 10//10 9//9
f 10//10 12//12 11//11
f 12//12 14//14 13//13
f 14//14 16//16 15//15
f 16//16 18//18 17//17
f 18//18 20//20 19//19
f 20//20 22//22 21//21
f 22//22 24//24 23//23
f 24//24 26//26 25//25
f 26//26 28//28 27//27
f 28//28 30//30 29//29
f 6//6 4//4 2//2
f 2//2 32//32 6//6
f 32//32 30//30 6//6
f 30//30 28//28 22//22
f 28//28 26//26 22//22
f 26//26 24//24 22//22
f 22//22 20//20 14//14
f 20//20 18//18 14//14
f 18//18 16//16 14//14
f 14//14 12//12 10//10
f 10//10 8//8 14//14
f 8//8 6//6 14//14
f 6//6 30//30 22//22
f 30//30 32//32 31//31
f 32//32 2//2 1//1
f 31//31 1//1 3//3
f 3//3 5//5 7//7
f 7//7 9//9 11//11
f 11//11 13//13 15//15
f 15//15 17//17 19//19
f 19//19 21//21 23//23
f 23//23 25//25 27//27
f 27//27 29//29 31//31
f 31//31 3//3 15//15
f 3//3 7//7 15//15
f 7//7 11//11 15//15
f 15//15 19//19 31//31
f 19//19 23//23 31//31
