v -0.08520691 -0.00248340 0.00196242
v -0.08532955 0.00162765 0.00176138
v -0.08513208 0.00342226 -0.00092190
v -0.08476317 -0.00384795 -0.00253929
v -0.07750316 -0.00446286 -0.00285857
v -0.08361106 -0.00108895 -0.00446878
v -0.08241357 -0.00159324 -0.00469873
v -0.08222494 0.00344072 -0.00406918
v -0.07674757 0.00499086 -0.00200392
v -0.08029214 0.00003734 0.00264755
v -0.07859161 0.00166601 0.00210634
v -0.08394868 0.00009004 0.00287748
v -0.08322819 0.00285480 -0.00416697
v -0.08522771 0.00325615 -0.00227541
v -0.08522578 0.00008525 0.00233592
v -0.08522148 -0.00382051 -0.00055889
v -0.08093353 -0.00499045 -0.00058060
v -0.07660770 -0.00254544 0.00127869
v -0.07755830 -0.00488945 -0.00223243
v -0.08199916 0.00411753 -0.00339003
v -0.07667492 -0.00394402 -0.00161766
v -0.07665149 0.00274449 0.00113411
v -0.08013882 -0.00204124 0.00229188
v -0.08325029 0.00335599 0.00185500
v -0.08529668 0.00123307 -0.00334769
v -0.07665826 0.00121708 -0.00360504
v -0.08366612 -0.00326314 -0.00405293
v -0.08531071 -0.00106956 -0.00354554
v -0.08366178 -0.00466282 0.00039317
v -0.07665390 0.00036819 0.00215618
v -0.08146878 0.00423428 0.00104087
v -0.08283903 0.00426685 -0.00088318
v -0.07656698 -0.00152465 -0.00332766
vn -0.674457 -0.381851 0.631899
vn -0.807756 0.316939 0.497072
vn -0.729610 0.675121 0.109001
vn -0.610054 -0.697800 -0.375377
vn 0.432904 -0.585117 -0.685735
vn -0.334717 -0.020430 -0.942097
vn 0.005369 -0.137354 -0.990508
vn -0.070232 0.496408 -0.865243
vn 0.606232 0.766843 -0.210794
vn 0.090615 0.035294 0.995260
vn 0.136349 0.361220 0.922458
vn -0.161975 0.039076 0.986021
vn -0.305412 0.400088 -0.864091
vn -0.771188 0.570799 -0.281883
vn -0.759907 0.048352 0.648231
vn -0.831477 -0.554197 0.038874
vn 0.026253 -0.980165 0.196439
vn 0.714648 -0.430312 0.551462
vn 0.376193 -0.918712 -0.120198
vn -0.156824 0.872793 -0.462211
vn 0.873685 -0.486314 0.013139
vn 0.727280 0.434478 0.531313
vn 0.101209 -0.426633 0.898744
vn -0.244848 0.663269 0.707194
vn -0.838639 0.138240 -0.526853
vn 0.721802 0.120405 -0.681546
vn -0.292325 -0.563836 -0.772421
vn -0.844245 -0.080836 -0.529826
vn -0.226060 -0.899377 0.374190
vn 0.704392 0.043850 0.708455
vn -0.025796 0.850073 0.526032
vn -0.257485 0.965242 0.044815
vn 0.778070 -0.126044 -0.615402
f 15//15 12//12 2//2
f 12//12 24//24 2//2
f 14//14 25//25 2//2
f 25//25 6//6 28//28
f 1//1 15//15 2//2
f 3//3 14//14 2//2
f 6//6 27//27 28//28
f 27//27 4//4 28//28
f 4//4 16//16 28//28
f 16//16 1//1 28//28
f 24//24 3//3 2//2
f 24//24 32//32 3//3
f 20//20 13//13 14//14
f 13//13 25//25 14//14
f 16//16 29//29 1//1
f 23//23 12//12 1//1
f 24//24 31//31 32//32
f 8//8 9//9 26//26
f 19//19 17//17 4//4
f 17//17 29//29 4//4
f 23//23 10//10 12//12
f 13//13 20//20 8//8
f 6//6 25//25 13//13
f 31//31 9//9 32//32
f 8//8 7//7 13//13
f 30//30 10//10 23//23
f 22//22 33//33 9//9
f 7//7 5//5 27//27
f 7//7 33//33 5//5
f 33//33 21//21 5//5
f 19//19 4//4 27//27
f 5//5 21//21 19//19
f 21//21 18//18 19//19
f 18//18 17//17 19//19
f 18//18 29//29 17//17
f 18//18 23//23 29//29
f 23//23 1//1 29//29
f 31//31 24//24 11//11
f 30//30 22//22 11//11
f 11//11 22//22 31//31
f 9//9 31//31 22//22
f 9//9 8//8 20//20
f 11//11 24//24 12//12
f 30//30 18//18 33//33
f 18//18 21//21 33//33
f 26//26 9//9 33//33
f 11//11 10//10 30//30
f 27//27 6//6 7//7
f 26//26 33//33 7//7
f 27//27 5//5 19//19
f 30//30 23//23 18//18
f 7//7 8//8 26//26
f 32//32 9//9 20//20
f 7//7 6//6 13//13
f 2//2 28//28 1//1
f 29//29 16//16 4//4
f 14//14 32//32 20//20
f 10//10 11//11 12//12
f 15//15 1//1 12//12
f 22//22 30//30 33//33
f 2//2 25//25 28//28
f 14//14 3//3 32//32
