v 0.05354862 -0.01063167 0.00200032
v 0.05321181 -0.00454354 -0.00067125
v 0.05398116 -0.01056273 0.00210290
v 0.05364435 -0.00447459 -0.00056866
v 0.05433428 -0.01043459 0.00235040
v 0.05399748 -0.00434646 -0.00032117
v 0.05455423 -0.01026677 0.00270512
v 0.05421742 -0.00417863 0.00003355
v 0.05460752 -0.01008480 0.00311306
v 0.05427071 -0.00399667 0.00044150
v 0.05448603 -0.00991641 0.00351213
v 0.05414923 -0.00382828 0.00084057
v 0.05420827 -0.00978722 0.00384156
v 0.05387146 -0.00369908 0.00117000
v 0.05381651 -0.00971689 0.00405120
v 0.05347971 -0.00362876 0.00137964
v 0.05337040 -0.00971615 0.00410914
v 0.05303359 -0.00362801 0.00143758
v 0.05293786 -0.00978509 0.00400656
v 0.05260105 -0.00369696 0.00133499
v 0.05258473 -0.00991323 0.00375907
v 0.05224793 -0.00382510 0.00108750
v 0.05236479 -0.01008106 0.00340435
v 0.05202798 -0.00399292 0.00073278
v 0.05231149 -0.01026302 0.00299640
v 0.05197469 -0.00417488 0.00032484
v 0.05243298 -0.01043141 0.00259733
v 0.05209618 -0.00434328 -0.00007423
v 0.05271075 -0.01056061 0.00226790
v 0.05237394 -0.00447247 -0.00040366
v 0.05310250 -0.01063093 0.00205826
v 0.05276570 -0.00454279 -0.00061331
vn 0.091351 -0.905100 -0.415270
vn 0.023993 0.312542 -0.949601
vn 0.371307 -0.860465 -0.348900
vn 0.303946 0.357163 -0.883205
vn 0.599849 -0.777545 -0.188695
vn 0.532492 0.440106 -0.723021
vn 0.742223 -0.668906 0.040870
vn 0.674841 0.548733 -0.493439
vn 0.776693 -0.551158 0.304915
vn 0.709340 0.666491 -0.229404
vn 0.698081 -0.442146 0.563196
vn 0.630714 0.775478 0.028884
vn 0.518291 -0.358554 0.776410
vn 0.450938 0.859093 0.242105
vn 0.264742 -0.313025 0.912100
vn 0.197375 0.904618 0.377770
vn -0.023989 -0.312558 0.949596
vn -0.091354 0.905093 0.415285
vn -0.303947 -0.357154 0.883209
vn -0.371307 0.860469 0.348891
vn -0.532486 -0.440113 0.723021
vn -0.599854 0.777539 0.188699
vn -0.674862 -0.548708 0.493437
vn -0.742203 0.668926 -0.040888
vn -0.709330 -0.666500 0.229411
vn -0.776702 0.551146 -0.304914
vn -0.630720 -0.775472 -0.028887
vn -0.698075 0.442153 -0.563198
vn -0.450929 -0.859103 -0.242084
vn -0.518299 0.358531 -0.776416
vn -0.197381 -0.904611 -0.377784
vn -0.264738 0.313040 -0.912096
f 2//2 3//3 1//1
f 4//4 5//5 3//3
f 6//6 7//7 5//5
f 8//8 9//9 7//7
f 10//10 11//11 9//9
f 12//12 13//13 11//11
f 14//14 15//15 13//13
f 16//16 17//17 15//15
f 18//18 19//19 17//17
f 20//20 21//21 19//19
f 22//22 23//23 21//21
f 24//24 25//25 23//23
f 26//26 27//27 25//25
f 28//28 29//29 27//27
f 22//22 14//14 6//6
f 30//30 31//31 29//29
f 32//32 1//1 31//31
f 15//15 23//23 31//31
f 2//2 4//4 3//3
f 4//4 6//6 5//5
f 6//6 8//8 7//7
f 8//8 10//10 9//9
f 10//10 12//12 11//11
f 12//12 14//14 13//13
f 14//14 16//16 15//15
f 16//16 18//18 17//17
f 18//18 20//20 19//19
f 20//20 22//22 21//21
f 22//22 24//24 23//23
f 24//24 26//26 25//25
f 26//26 28//28 27//27
f 28//28 30//30 29//29
f 6//6 4//4 30//30
f 4//4 2//2 30//30
f 2//2 32//32 30//30
f 30//30 28//28 22//22
f 28//28 26//26 22//22
f 26//26 24//24 22//22
f 22//22 20//20 14//14
f 20//20 18//18 14//14
f 18//18 16//16 14//14
f 14//14 12//12 6//6
f 12//12 10//10 6//6
f 10//10 8//8 6//6
f 6//6 30//30 22//22
f 30//30 32//32 31//31
f 32//32 2//2 1//1
f 31//31 1//1 3//3
f 3//3 5//5 7//7
f 7//7 9//9 11//11
f 11//11 13//13 15//15
f 15//15 17//17 19//19
f 19//19 21//21 23//23
f 23//23 25//25 27//27
f 27//27 29//29 31//31
f 31//31 3//3 7//7
f 7//7 11//11 15//15
f 15//15 19//19 23//23
f 23//23 27//27 31//31
f 31//31 7//7 15//15
