v 0.01556685 -0.00235315 0.00498395
v 0.01723124 0.00012741 -0.00314472
v 0.00897157 0.00106293 0.00574903
v 0.00918532 -0.00326729 -0.00300674
v 0.00819936 -0.00530250 0.00399391
v 0.01664218 0.00020909 0.00521611
v 0.01712846 0.00211393 -0.00274988
v 0.01072063 -0.00542785 0.00372905
v 0.00949328 -0.00185825 0.00564214
v 0.01726422 -0.00308833 -0.00172422
v 0.00663428 -0.00187711 0.00530562
v 0.00663778 -0.00333189 -0.00216355
v 0.00936651 0.00326828 -0.00318066
v 0.01433560 -0.00531565 0.00309976
v 0.00753361 0.00069528 0.00567760
v 0.01728694 0.00347774 -0.00121475
v 0.00828728 0.00424936 0.00433743
v 0.01728099 0.00162305 0.00458549
v 0.01717872 0.00363766 0.00252310
v 0.00669582 0.00304450 -0.00256424
v 0.00689520 0.00341988 0.00392091
v 0.01146807 -0.00556379 0.00056237
v 0.01723476 -0.00304003 0.00416640
v 0.01714993 -0.00475297 0.00222778
v 0.00754819 0.00056501 -0.00343687
v 0.01722793 -0.00194649 -0.00281713
v 0.01719808 -0.00124039 0.00502503
v 0.00674679 -0.00459371 0.00284328
v 0.01415161 0.00452256 0.00315100
v 0.00738024 -0.00467024 0.00396366
v 0.01233302 -0.00404300 -0.00245094
v 0.01189656 0.00407016 -0.00264975
v 0.00665491 0.00397077 -0.00161513
v 0.00666208 -0.00091174 -0.00312364
v 0.00907048 -0.00075289 -0.00345843
v 0.01070790 0.00471356 -0.00129226
v 0.01005490 0.00494342 0.00088289
v 0.01221622 -0.00570028 0.00270807
v 0.00660199 0.00090223 0.00519941
vn 0.140729 -0.382586 0.913140
vn 0.685127 0.011083 -0.728340
vn -0.002591 0.209535 0.977798
vn -0.103204 -0.556645 -0.824315
vn -0.247510 -0.846434 0.471475
vn 0.276069 0.129297 0.952401
vn 0.627977 0.344983 -0.697589
vn 0.044092 -0.794026 0.606283
vn -0.002202 -0.242192 0.970226
vn 0.749709 -0.545530 -0.374612
vn -0.716952 -0.198986 0.668120
vn -0.717732 -0.525374 -0.456994
vn -0.085434 0.469351 -0.878869
vn 0.207288 -0.877037 0.433404
vn -0.245229 0.148679 0.957997
vn 0.733306 0.629863 -0.255998
vn -0.238095 0.781158 0.577151
vn 0.730350 0.331195 0.597410
vn 0.739401 0.635514 0.222279
vn -0.717308 0.340891 -0.607670
vn -0.778373 0.520689 0.350740
vn -0.023272 -0.962486 -0.270331
vn 0.747604 -0.394594 0.534213
vn 0.697551 -0.711372 0.085859
vn -0.238539 0.071575 -0.968492
vn 0.681924 -0.280256 -0.675601
vn 0.694913 -0.136429 0.706034
vn -0.784885 -0.619370 0.018327
vn 0.192117 0.890371 0.412710
vn -0.608670 -0.581485 0.539810
vn 0.084303 -0.712394 -0.696697
vn 0.100279 0.718348 -0.688419
vn -0.710078 0.650532 -0.269440
vn -0.738348 -0.107470 -0.665802
vn -0.019618 -0.081458 -0.996484
vn -0.003598 0.960657 -0.277715
vn -0.078570 0.996859 0.009975
vn 0.068912 -0.991194 0.113074
vn -0.810108 0.176324 0.559138
f 17//17 29//29 37//37
f 29//29 36//36 37//37
f 16//16 32//32 36//36
f 33//33 37//37 36//36
f 33//33 17//17 37//37
f 16//16 7//7 32//32
f 32//32 33//33 36//36
f 13//13 20//20 33//33
f 20//20 34//34 33//33
f 39//39 21//21 33//33
f 21//21 17//17 33//33
f 32//32 13//13 33//33
f 18//18 29//29 17//17
f 10//10 26//26 16//16
f 26//26 2//2 16//16
f 2//2 7//7 16//16
f 12//12 11//11 34//34
f 4//4 12//12 34//34
f 34//34 39//39 33//33
f 18//18 19//19 29//29
f 23//23 24//24 10//10
f 31//31 26//26 10//10
f 25//25 34//34 20//20
f 12//12 28//28 11//11
f 28//28 30//30 11//11
f 11//11 15//15 39//39
f 15//15 17//17 39//39
f 17//17 21//21 39//39
f 17//17 3//3 18//18
f 3//3 6//6 18//18
f 18//18 27//27 23//23
f 31//31 4//4 26//26
f 35//35 13//13 2//2
f 13//13 7//7 2//2
f 13//13 32//32 7//7
f 4//4 22//22 12//12
f 10//10 16//16 19//19
f 31//31 22//22 4//4
f 22//22 28//28 12//12
f 22//22 5//5 28//28
f 25//25 35//35 34//34
f 35//35 4//4 34//34
f 5//5 11//11 30//30
f 3//3 17//17 15//15
f 6//6 27//27 18//18
f 14//14 24//24 23//23
f 24//24 38//38 22//22
f 38//38 5//5 22//22
f 13//13 35//35 25//25
f 30//30 28//28 5//5
f 11//11 9//9 15//15
f 1//1 23//23 27//27
f 23//23 8//8 14//14
f 38//38 24//24 14//14
f 38//38 8//8 5//5
f 14//14 8//8 38//38
f 5//5 9//9 11//11
f 19//19 16//16 29//29
f 3//3 15//15 9//9
f 3//3 9//9 6//6
f 9//9 1//1 27//27
f 5//5 8//8 1//1
f 8//8 23//23 1//1
f 9//9 5//5 1//1
f 18//18 10//10 19//19
f 35//35 26//26 4//4
f 29//29 16//16 36//36
f 24//24 31//31 10//10
f 13//13 25//25 20//20
f 9//9 27//27 6//6
f 34//34 11//11 39//39
f 18//18 23//23 10//10
f 35//35 2//2 26//26
f 24//24 22//22 31//31
