v 0.00820509 0.00989766 0.00185055
v 0.00342450 0.01675254 -0.00295737
v 0.00831489 0.01010698 0.00203980
v 0.00353431 0.01696186 -0.00276811
v 0.00832491 0.01028541 0.00228425
v 0.00354432 0.01714029 -0.00252367
v 0.00823360 0.01040579 0.00254666
v 0.00345302 0.01726067 -0.00226126
v 0.00805487 0.01044979 0.00278710
v 0.00327429 0.01730467 -0.00202082
v 0.00781594 0.01041071 0.00296896
v 0.00303535 0.01726558 -0.00183896
v 0.00755317 0.01029450 0.00306455
v 0.00277258 0.01714938 -0.00174337
v 0.00730657 0.01011885 0.00305932
v 0.00252599 0.01697373 -0.00174860
v 0.00711368 0.00991051 0.00295406
v 0.00233310 0.01676539 -0.00185385
v 0.00700388 0.00970119 0.00276481
v 0.00222329 0.01655607 -0.00204311
v 0.00699386 0.00952276 0.00252037
v 0.00221328 0.01637764 -0.00228755
v 0.00708517 0.00940238 0.00225795
v 0.00230459 0.01625726 -0.00254997
v 0.00726390 0.00935839 0.00201751
v 0.00248332 0.01621326 -0.00279041
v 0.00750283 0.00939747 0.00183565
v 0.00272225 0.01625234 -0.00297226
v 0.00776560 0.00951368 0.00174006
v 0.00298502 0.01636855 -0.00306785
v 0.00801220 0.00968932 0.00174530
v 0.00323162 0.01654420 -0.00306262
vn 0.854792 -0.479486 -0.198556
vn 0.194646 0.467119 -0.862504
vn 0.960380 -0.278199 -0.016603
vn 0.300204 0.668401 -0.680527
vn 0.970001 -0.106650 0.218456
vn 0.309846 0.839963 -0.445485
vn 0.882209 0.009111 0.470769
vn 0.222037 0.955712 -0.193168
vn 0.710357 0.051397 0.701962
vn 0.050206 0.998014 0.038038
vn 0.480611 0.013832 0.876825
vn -0.179555 0.960438 0.212880
vn 0.227956 -0.097917 0.968736
vn -0.432208 0.848693 0.304820
vn -0.009187 -0.266774 0.963715
vn -0.669327 0.679812 0.299761
vn -0.194621 -0.467133 0.862502
vn -0.854795 0.479470 0.198580
vn -0.300231 -0.668389 0.680527
vn -0.960375 0.278217 0.016581
vn -0.309832 -0.839967 0.445488
vn -0.970004 0.106638 -0.218448
vn -0.222052 -0.955710 0.193162
vn -0.882206 -0.009096 -0.470776
vn -0.050186 -0.998016 -0.038017
vn -0.710355 -0.051426 -0.701962
vn 0.179550 -0.960438 -0.212889
vn -0.480614 -0.013822 -0.876824
vn 0.432214 -0.848701 -0.304791
vn -0.227939 0.097891 -0.968742
vn 0.669324 -0.679796 -0.299804
vn 0.009156 0.266806 -0.963707
f 2//2 3//3 1//1
f 4//4 5//5 3//3
f 6//6 7//7 5//5
f 8//8 9//9 7//7
f 10//10 11//11 9//9
f 12//12 13//13 11//11
f 14//14 15//15 13//13
f 16//16 17//17 15//15
f 18//18 19//19 17//17
f 20//20 21//21 19//19
f 22//22 23//23 21//21
f 24//24 25//25 23//23
f 26//26 27//27 25//25
f 28//28 29//29 27//27
f 22//22 14//14 6//6
f 30//30 31//31 29//29
f 32//32 1//1 31//31
f 27//27 31//31 15//15
f 2//2 4//4 3//3
f 4//4 6//6 5//5
f 6//6 8//8 7//7
f 8//8 10//10 9//9
f 10//10 12//12 11//11
f 12//12 14//14 13//13
f 14//14 16//16 15//15
f 16//16 18//18 17//17
f 18//18 20//20 19//19
f 20//20 22//22 21//21
f 22//22 24//24 23//23
f 24//24 26//26 25//25
f 26//26 28//28 27//27
f 28//28 30//30 29//29
f 6//6 4//4 2//2
f 2//2 32//32 30//30
f 30//30 28//28 26//26
f 26//26 24//24 22//22
f 22//22 20//20 18//18
f 18//18 16//16 14//14
f 14//14 12//12 10//10
f 10//10 8//8 6//6
f 6//6 2//2 30//30
f 30//30 26//26 22//22
f 22//22 18//18 14//14
f 14//14 10//10 6//6
f 6//6 30//30 22//22
f 30//30 32//32 31//31
f 32//32 2//2 1//1
f 31//31 1//1 3//3
f 3//3 5//5 7//7
f 7//7 9//9 11//11
f 11//11 13//13 15//15
f 15//15 17//17 19//19
f 19//19 21//21 23//23
f 23//23 25//25 27//27
f 27//27 29//29 31//31
f 31//31 3//3 7//7
f 7//7 11//11 31//31
f 11//11 15//15 31//31
f 15//15 19//19 23//23
f 23//23 27//27 15//15
