v -0.06368903 -0.00809511 -0.00063903
v -0.06992827 -0.01376610 -0.00377271
v -0.06358439 -0.00829339 -0.00048854
v -0.06982362 -0.01396438 -0.00362222
v -0.06342497 -0.00850257 -0.00042739
v -0.06966421 -0.01417356 -0.00356107
v -0.06323505 -0.00869081 -0.00046488
v -0.06947429 -0.01436179 -0.00359856
v -0.06304353 -0.00882945 -0.00059531
v -0.06928277 -0.01450043 -0.00372899
v -0.06287958 -0.00889737 -0.00079881
v -0.06911881 -0.01456836 -0.00393249
v -0.06276815 -0.00888425 -0.00104442
v -0.06900738 -0.01455524 -0.00417810
v -0.06272621 -0.00879208 -0.00129473
v -0.06896544 -0.01446307 -0.00442841
v -0.06276014 -0.00863489 -0.00151164
v -0.06899937 -0.01430587 -0.00464532
v -0.06286478 -0.00843661 -0.00166212
v -0.06910402 -0.01410760 -0.00479580
v -0.06302419 -0.00822743 -0.00172327
v -0.06926343 -0.01389841 -0.00485695
v -0.06321412 -0.00803919 -0.00168578
v -0.06945335 -0.01371018 -0.00481946
v -0.06340563 -0.00790056 -0.00155535
v -0.06964487 -0.01357154 -0.00468904
v -0.06356959 -0.00783263 -0.00135185
v -0.06980883 -0.01350361 -0.00448553
v -0.06368102 -0.00784575 -0.00110624
v -0.06992025 -0.01351673 -0.00423993
v -0.06372296 -0.00793792 -0.00085593
v -0.06996220 -0.01360890 -0.00398962
vn -0.039026 0.710730 0.702381
vn -0.962569 -0.128692 0.238538
vn 0.073792 0.496926 0.864650
vn -0.849741 -0.342500 0.400793
vn 0.245696 0.271380 0.930584
vn -0.677836 -0.568045 0.466757
vn 0.450471 0.068384 0.890168
vn -0.473047 -0.771023 0.426322
vn 0.656993 -0.081082 0.749524
vn -0.266538 -0.920513 0.285681
vn 0.833777 -0.154344 0.530089
vn -0.089763 -0.993758 0.066234
vn 0.953931 -0.140198 0.265255
vn 0.030415 -0.979612 -0.198585
vn 0.999156 -0.040820 -0.004655
vn 0.075613 -0.880224 -0.468496
vn 0.962570 0.128700 -0.238528
vn 0.039038 -0.710726 -0.702385
vn 0.849739 0.342492 -0.400803
vn -0.073803 -0.496930 -0.864646
vn 0.677850 0.568052 -0.466729
vn -0.245677 -0.271357 -0.930596
vn 0.473044 0.771021 -0.426329
vn -0.450477 -0.068389 -0.890165
vn 0.266551 0.920513 -0.285670
vn -0.656989 0.081098 -0.749526
vn 0.089750 0.993759 -0.066244
vn -0.833781 0.154328 -0.530087
vn -0.030406 0.979611 0.198589
vn -0.953930 0.140208 -0.265254
vn -0.075642 0.880223 0.468494
vn -0.999157 0.040794 0.004643
f 2//2 3//3 1//1
f 4//4 5//5 3//3
f 6//6 7//7 5//5
f 8//8 9//9 7//7
f 10//10 11//11 9//9
f 12//12 13//13 11//11
f 14//14 15//15 13//13
f 16//16 17//17 15//15
f 18//18 19//19 17//17
f 20//20 21//21 19//19
f 22//22 23//23 21//21
f 24//24 25//25 23//23
f 26//26 27//27 25//25
f 28//28 29//29 27//27
f 18//18 14//14 6//6
f 30//30 31//31 29//29
f 32//32 1//1 31//31
f 19//19 23//23 31//31
f 2//2 4//4 3//3
f 4//4 6//6 5//5
f 6//6 8//8 7//7
f 8//8 10//10 9//9
f 10//10 12//12 11//11
f 12//12 14//14 13//13
f 14//14 16//16 15//15
f 16//16 18//18 17//17
f 18//18 20//20 19//19
f 20//20 22//22 21//21
f 22//22 24//24 23//23
f 24//24 26//26 25//25
f 26//26 28//28 27//27
f 28//28 30//30 29//29
f 6//6 4//4 2//2
f 2//2 32//32 30//30
f 30//30 28//28 26//26
f 26//26 24//24 30//30
f 24//24 22//22 30//30
f 22//22 20//20 18//18
f 18//18 16//16 14//14
f 14//14 12//12 10//10
f 10//10 8//8 14//14
f 8//8 6//6 14//14
f 6//6 2//2 22//22
f 2//2 30//30 22//22
f 22//22 18//18 6//6
f 30//30 32//32 31//31
f 32//32 2//2 1//1
f 31//31 1//1 3//3
f 3//3 5//5 7//7
f 7//7 9//9 11//11
f 11//11 13//13 7//7
f 13//13 15//15 7//7
f 15//15 17//17 19//19
f 19//19 21//21 23//23
f 23//23 25//25 27//27
f 27//27 29//29 23//23
f 29//29 31//31 23//23
f 31//31 3//3 15//15
f 3//3 7//7 15//15
f 15//15 19//19 31//31
