v -0.03033855 0.00243011 -0.00412993
v -0.03037137 0.00061887 0.00436009
v -0.03874500 0.00624422 -0.00050826
v -0.03029169 -0.00159839 -0.00376050
v -0.03737640 -0.00127406 0.00395330
v -0.03962564 0.00106334 0.00315662
v -0.03644001 0.00616099 -0.00164001
v -0.03034860 -0.00485915 0.00211082
v -0.03730132 -0.00519829 -0.00144306
v -0.03932253 -0.00279710 0.00329838
v -0.03944983 0.00605440 -0.00102791
v -0.03042716 0.00346751 0.00306089
v -0.03739655 0.00154992 0.00369898
v -0.03033879 0.00459689 -0.00121883
v -0.03509376 0.00509574 -0.00378115
v -0.03400289 -0.00562922 0.00153080
v -0.03821181 -0.00508134 0.00224689
v -0.03791609 0.00583065 -0.00248113
v -0.03949525 -0.00538048 -0.00002541
v -0.03171383 0.00513891 -0.00271434
v -0.03802520 0.00424246 0.00220445
v -0.03939213 0.00345057 -0.00406874
v -0.03033041 0.00040643 -0.00429064
v -0.03955080 -0.00101816 -0.00388034
v -0.03603229 -0.00295008 -0.00358721
v -0.03634854 -0.00579258 0.00210448
v -0.03029727 -0.00225942 0.00407127
v -0.03175681 -0.00320472 -0.00275577
v -0.03214941 0.00536769 -0.00136436
v -0.03849700 0.00425637 -0.00411128
vn 0.692927 0.221371 -0.686183
vn 0.632749 0.134507 0.762585
vn -0.241090 0.924457 0.295389
vn 0.696573 -0.349966 -0.626346
vn -0.150822 -0.099329 0.983558
vn -0.776498 0.163083 0.608649
vn 0.090892 0.991424 -0.093904
vn 0.662582 -0.713650 0.227351
vn -0.092204 -0.845126 -0.526556
vn -0.665985 -0.269739 0.695489
vn -0.724589 0.688777 -0.023609
vn 0.627848 0.546327 0.554377
vn -0.163599 0.285745 0.944238
vn 0.806547 0.590989 -0.014649
vn 0.072365 0.637175 -0.767314
vn 0.174071 -0.983959 -0.039028
vn -0.380164 -0.682129 0.624640
vn -0.181073 0.859327 -0.478299
vn -0.700601 -0.703608 -0.118723
vn 0.390921 0.804015 -0.448042
vn -0.296987 0.626937 0.720242
vn -0.687851 0.165101 -0.706826
vn 0.667072 -0.054954 -0.742964
vn -0.688376 -0.201972 -0.696668
vn -0.039408 -0.491044 -0.870243
vn -0.053028 -0.885842 0.460947
vn 0.656383 -0.247023 0.712840
vn 0.292932 -0.760533 -0.579466
vn 0.258585 0.959329 0.113228
vn -0.257190 0.435399 -0.862717
f 22//22 24//24 11//11
f 6//6 21//21 11//11
f 21//21 3//3 11//11
f 7//7 18//18 11//11
f 18//18 30//30 11//11
f 30//30 22//22 11//11
f 15//15 18//18 7//7
f 15//15 30//30 18//18
f 7//7 11//11 3//3
f 26//26 9//9 16//16
f 10//10 6//6 19//19
f 29//29 7//7 3//3
f 21//21 12//12 3//3
f 12//12 29//29 3//3
f 29//29 20//20 7//7
f 20//20 15//15 7//7
f 20//20 1//1 15//15
f 19//19 17//17 10//10
f 5//5 13//13 6//6
f 13//13 21//21 6//6
f 21//21 13//13 12//12
f 14//14 29//29 12//12
f 14//14 20//20 29//29
f 25//25 23//23 4//4
f 23//23 24//24 22//22
f 23//23 25//25 24//24
f 24//24 9//9 19//19
f 26//26 17//17 19//19
f 5//5 6//6 10//10
f 14//14 12//12 2//2
f 27//27 4//4 2//2
f 23//23 1//1 14//14
f 14//14 1//1 20//20
f 23//23 30//30 1//1
f 30//30 15//15 1//1
f 30//30 23//23 22//22
f 28//28 25//25 4//4
f 24//24 25//25 9//9
f 16//16 8//8 26//26
f 10//10 17//17 26//26
f 5//5 2//2 13//13
f 5//5 10//10 27//27
f 10//10 26//26 27//27
f 8//8 4//4 27//27
f 8//8 28//28 4//4
f 9//9 25//25 28//28
f 16//16 28//28 8//8
f 14//14 4//4 23//23
f 8//8 27//27 26//26
f 24//24 6//6 11//11
f 27//27 2//2 5//5
f 13//13 2//2 12//12
f 26//26 19//19 9//9
f 16//16 9//9 28//28
f 14//14 2//2 4//4
f 24//24 19//19 6//6
