v 0.09154615 -0.00363289 -0.00029167
v 0.09046013 -0.02747803 -0.01194273
v 0.09173376 -0.00363045 -0.00031416
v 0.09064774 -0.02747559 -0.01196522
v 0.09189720 -0.00359918 -0.00039340
v 0.09081118 -0.02744432 -0.01204446
v 0.09201156 -0.00354383 -0.00051733
v 0.09092554 -0.02738897 -0.01216839
v 0.09205946 -0.00347284 -0.00066708
v 0.09097344 -0.02731798 -0.01231814
v 0.09203360 -0.00339701 -0.00081986
v 0.09094758 -0.02724215 -0.01247092
v 0.09193791 -0.00332789 -0.00095241
v 0.09085189 -0.02717303 -0.01260347
v 0.09178696 -0.00327600 -0.00104454
v 0.09070094 -0.02712114 -0.01269560
v 0.09160373 -0.00324924 -0.00108223
v 0.09051771 -0.02709438 -0.01273329
v 0.09141612 -0.00325168 -0.00105975
v 0.09033010 -0.02709682 -0.01271081
v 0.09125268 -0.00328295 -0.00098051
v 0.09016667 -0.02712809 -0.01263157
v 0.09113832 -0.00333830 -0.00085658
v 0.09005230 -0.02718344 -0.01250764
v 0.09109042 -0.00340929 -0.00070682
v 0.09000440 -0.02725443 -0.01235788
v 0.09111628 -0.00348512 -0.00055404
v 0.09003026 -0.02733026 -0.01220510
v 0.09121197 -0.00355424 -0.00042150
v 0.09012596 -0.02739938 -0.01207256
v 0.09136292 -0.00360613 -0.00032937
v 0.09027690 -0.02745127 -0.01198042
vn -0.001109 0.517978 0.855393
vn -0.069813 -0.990516 0.118336
vn 0.228902 0.518533 0.823849
vn 0.160518 -0.982901 0.090221
vn 0.424502 0.550742 0.718666
vn 0.356885 -0.934123 -0.006855
vn 0.557103 0.611139 0.562268
vn 0.490176 -0.857656 -0.155416
vn 0.611808 0.693216 0.380977
vn 0.545225 -0.769085 -0.333522
vn 0.583527 0.787225 0.199433
vn 0.516624 -0.681565 -0.518236
vn 0.473866 0.879645 0.040930
vn 0.406258 -0.605207 -0.684602
vn 0.294117 0.953086 -0.071574
vn 0.225728 -0.548370 -0.805194
vn 0.069813 0.990518 -0.118321
vn 0.001109 -0.517965 -0.855401
vn -0.160519 0.982900 -0.090229
vn -0.228900 -0.518540 -0.823845
vn -0.356874 0.934127 0.006862
vn -0.424512 -0.550734 -0.718666
vn -0.490208 0.857641 0.155398
vn -0.557073 -0.611165 -0.562270
vn -0.545207 0.769096 0.333528
vn -0.611825 -0.693204 -0.380972
vn -0.516632 0.681560 0.518235
vn -0.583520 -0.787229 -0.199436
vn -0.406238 0.605224 0.684597
vn -0.473885 -0.879636 -0.040913
vn -0.225734 0.548359 0.805200
vn -0.294112 -0.953088 0.071561
f 2//2 3//3 1//1
f 4//4 5//5 3//3
f 6//6 7//7 5//5
f 8//8 9//9 7//7
f 10//10 11//11 9//9
f 12//12 13//13 11//11
f 14//14 15//15 13//13
f 16//16 17//17 15//15
f 18//18 19//19 17//17
f 20//20 21//21 19//19
f 22//22 23//23 21//21
f 24//24 25//25 23//23
f 26//26 27//27 25//25
f 28//28 29//29 27//27
f 22//22 14//14 6//6
f 30//30 31//31 29//29
f 32//32 1//1 31//31
f 15//15 23//23 31//31
f 2//2 4//4 3//3
f 4//4 6//6 5//5
f 6//6 8//8 7//7
f 8//8 10//10 9//9
f 10//10 12//12 11//11
f 12//12 14//14 13//13
f 14//14 16//16 15//15
f 16//16 18//18 17//17
f 18//18 20//20 19//19
f 20//20 22//22 21//21
f 22//22 24//24 23//23
f 24//24 26//26 25//25
f 26//26 28//28 27//27
f 28//28 30//30 29//29
f 6//6 4//4 30//30
f 4//4 2//2 30//30
f 2//2 32//32 30//30
f 30//30 28//28 22//22
f 28//28 26//26 22//22
f 26//26 24//24 22//22
f 22//22 20//20 14//14
f 20//20 18//18 14//14
f 18//18 16//16 14//14
f 14//14 12//12 6//6
f 12//12 10//10 6//6
f 10//10 8//8 6//6
f 6//6 30//30 22//22
f 30//30 32//32 31//31
f 32//32 2//2 1//1
f 31//31 1//1 3//3
f 3//3 5//5 7//7
f 7//7 9//9 11//11
f 11//11 13//13 15//15
f 15//15 17//17 19//19
f 19//19 21//21 23//23
f 23//23 25//25 27//27
f 27//27 29//29 31//31
f 31//31 3//3 7//7
f 7//7 11//11 15//15
f 15//15 19//19 23//23
f 23//23 27//27 31//31
f 31//31 7//7 15//15
