v 0.06040881 -0.00410893 0.00196045
v 0.05873796 -0.00940905 0.00263254
v 0.06078715 -0.00422276 0.00200339
v 0.05911630 -0.00952288 0.00267547
v 0.06114702 -0.00435021 0.00189297
v 0.05947616 -0.00965032 0.00256505
v 0.06143362 -0.00447188 0.00164600
v 0.05976277 -0.00977199 0.00231809
v 0.06160334 -0.00456924 0.00130009
v 0.05993249 -0.00986936 0.00197217
v 0.06163032 -0.00462748 0.00090789
v 0.05995947 -0.00992760 0.00157997
v 0.06151047 -0.00463773 0.00052911
v 0.05983962 -0.00993785 0.00120120
v 0.06126203 -0.00459842 0.00022143
v 0.05959117 -0.00989854 0.00089352
v 0.06092281 -0.00451555 0.00003168
v 0.05925196 -0.00981567 0.00070376
v 0.06054448 -0.00440172 -0.00001126
v 0.05887362 -0.00970184 0.00066083
v 0.06018461 -0.00427428 0.00009916
v 0.05851376 -0.00957439 0.00077125
v 0.05989800 -0.00415261 0.00034613
v 0.05822715 -0.00945272 0.00101822
v 0.05972829 -0.00405524 0.00069204
v 0.05805743 -0.00935536 0.00136413
v 0.05970130 -0.00399700 0.00108424
v 0.05803045 -0.00929712 0.00175633
v 0.05982115 -0.00398675 0.00146301
v 0.05815030 -0.00928687 0.00213510
v 0.06006960 -0.00402606 0.00177070
v 0.05839875 -0.00932618 0.00244278
vn 0.010424 0.779273 0.626598
vn -0.386990 -0.481363 0.786466
vn 0.287599 0.695871 0.658065
vn -0.109814 -0.564768 0.817911
vn 0.551247 0.602496 0.577170
vn 0.153834 -0.658134 0.737018
vn 0.761225 0.513354 0.396238
vn 0.363815 -0.747265 0.556088
vn 0.885554 0.442042 0.142804
vn 0.488152 -0.818599 0.302661
vn 0.905332 0.399358 -0.144526
vn 0.507907 -0.861276 0.015328
vn 0.817525 0.391849 -0.422027
vn 0.420119 -0.868771 -0.262177
vn 0.635507 0.420654 -0.647442
vn 0.238098 -0.839977 -0.487594
vn 0.386993 0.481377 -0.786456
vn -0.010420 -0.779263 -0.626611
vn 0.109811 0.564755 -0.817920
vn -0.287603 -0.695881 -0.658053
vn -0.153838 0.658125 -0.737024
vn -0.551247 -0.602504 -0.577162
vn -0.363818 0.747261 -0.556092
vn -0.761224 -0.513358 -0.396234
vn -0.488137 0.818608 -0.302662
vn -0.885562 -0.442026 -0.142806
vn -0.507922 0.861267 -0.015329
vn -0.905324 -0.399374 0.144530
vn -0.420116 0.868774 0.262173
vn -0.817526 -0.391844 0.422031
vn -0.238093 0.839983 0.487586
vn -0.635507 -0.420645 0.647448
f 2//2 3//3 1//1
f 4//4 5//5 3//3
f 6//6 7//7 5//5
f 8//8 9//9 7//7
f 10//10 11//11 9//9
f 12//12 13//13 11//11
f 14//14 15//15 13//13
f 16//16 17//17 15//15
f 18//18 19//19 17//17
f 20//20 21//21 19//19
f 22//22 23//23 21//21
f 24//24 25//25 23//23
f 26//26 27//27 25//25
f 28//28 29//29 27//27
f 22//22 14//14 6//6
f 30//30 31//31 29//29
f 32//32 1//1 31//31
f 15//15 23//23 31//31
f 2//2 4//4 3//3
f 4//4 6//6 5//5
f 6//6 8//8 7//7
f 8//8 10//10 9//9
f 10//10 12//12 11//11
f 12//12 14//14 13//13
f 14//14 16//16 15//15
f 16//16 18//18 17//17
f 18//18 20//20 19//19
f 20//20 22//22 21//21
f 22//22 24//24 23//23
f 24//24 26//26 25//25
f 26//26 28//28 27//27
f 28//28 30//30 29//29
f 6//6 4//4 2//2
f 2//2 32//32 6//6
f 32//32 30//30 6//6
f 30//30 28//28 26//26
f 26//26 24//24 30//30
f 24//24 22//22 30//30
f 22//22 20//20 18//18
f 18//18 16//16 22//22
f 16//16 14//14 22//22
f 14//14 12//12 10//10
f 10//10 8//8 14//14
f 8//8 6//6 14//14
f 6//6 30//30 22//22
f 30//30 32//32 31//31
f 32//32 2//2 1//1
f 31//31 1//1 3//3
f 3//3 5//5 31//31
f 5//5 7//7 31//31
f 7//7 9//9 11//11
f 11//11 13//13 7//7
f 13//13 15//15 7//7
f 15//15 17//17 19//19
f 19//19 21//21 15//15
f 21//21 23//23 15//15
f 23//23 25//25 27//27
f 27//27 29//29 23//23
f 29//29 31//31 23//23
f 31//31 7//7 15//15
