v -0.03054558 0.01029913 -0.00073577
v -0.03604506 0.01433340 -0.00810487
v -0.03061151 0.01052324 -0.00056388
v -0.03611099 0.01455751 -0.00793298
v -0.03072597 0.01068537 -0.00038970
v -0.03622545 0.01471964 -0.00775879
v -0.03087155 0.01076083 -0.00023974
v -0.03637103 0.01479510 -0.00760884
v -0.03102608 0.01073814 -0.00013685
v -0.03652555 0.01477241 -0.00750594
v -0.03116603 0.01062075 -0.00009667
v -0.03666551 0.01465502 -0.00746576
v -0.03127010 0.01042653 -0.00012533
v -0.03676958 0.01446080 -0.00749443
v -0.03132244 0.01018505 -0.00021847
v -0.03682192 0.01421932 -0.00758756
v -0.03131509 0.00993307 -0.00036190
v -0.03681457 0.01396734 -0.00773099
v -0.03124917 0.00970896 -0.00053379
v -0.03674865 0.01374323 -0.00790288
v -0.03113470 0.00954683 -0.00070797
v -0.03663418 0.01358110 -0.00807706
v -0.03098913 0.00947137 -0.00085792
v -0.03648861 0.01350564 -0.00822702
v -0.03083460 0.00949407 -0.00096082
v -0.03633408 0.01352833 -0.00832992
v -0.03069465 0.00961146 -0.00100100
v -0.03619413 0.01364573 -0.00837009
v -0.03059058 0.00980568 -0.00097234
v -0.03609006 0.01383995 -0.00834143
v -0.03053823 0.01004716 -0.00087920
v -0.03603771 0.01408143 -0.00824830
vn 0.945601 -0.065521 0.318664
vn 0.093294 0.559724 -0.823411
vn 0.819254 0.226718 0.526709
vn 0.004089 0.824688 -0.565573
vn 0.611448 0.397075 0.684444
vn -0.130858 0.941617 -0.310216
vn 0.406899 0.448995 0.795510
vn -0.279130 0.952247 -0.123741
vn 0.232078 0.412055 0.881107
vn -0.434133 0.900774 -0.011583
vn 0.086887 0.296773 0.950987
vn -0.599141 0.800015 0.031719
vn -0.028334 0.092728 0.995288
vn -0.770643 0.637267 0.000671
vn -0.098744 -0.209951 0.972713
vn -0.913866 0.388008 -0.119578
vn -0.093279 -0.559720 0.823415
vn -0.945605 0.065509 -0.318653
vn -0.004100 -0.824693 0.565566
vn -0.819253 -0.226725 -0.526707
vn 0.130862 -0.941614 0.310224
vn -0.611445 -0.397083 -0.684441
vn 0.279129 -0.952247 0.123742
vn -0.406907 -0.448977 -0.795516
vn 0.434136 -0.900772 0.011595
vn -0.232070 -0.412067 -0.881104
vn 0.599134 -0.800019 -0.031745
vn -0.086891 -0.296766 -0.950989
vn 0.770643 -0.637266 -0.000621
vn 0.028333 -0.092726 -0.995288
vn 0.913873 -0.388005 0.119529
vn 0.098720 0.209963 -0.972713
f 2//2 3//3 1//1
f 4//4 5//5 3//3
f 6//6 7//7 5//5
f 8//8 9//9 7//7
f 10//10 11//11 9//9
f 12//12 13//13 11//11
f 14//14 15//15 13//13
f 16//16 17//17 15//15
f 18//18 19//19 17//17
f 20//20 21//21 19//19
f 22//22 23//23 21//21
f 24//24 25//25 23//23
f 26//26 27//27 25//25
f 28//28 29//29 27//27
f 22//22 14//14 6//6
f 30//30 31//31 29//29
f 32//32 1//1 31//31
f 23//23 27//27 31//31
f 2//2 4//4 3//3
f 4//4 6//6 5//5
f 6//6 8//8 7//7
f 8//8 10//10 9//9
f 10//10 12//12 11//11
f 12//12 14//14 13//13
f 14//14 16//16 15//15
f 16//16 18//18 17//17
f 18//18 20//20 19//19
f 20//20 22//22 21//21
f 22//22 24//24 23//23
f 24//24 26//26 25//25
f 26//26 28//28 27//27
f 28//28 30//30 29//29
f 6//6 4//4 2//2
f 2//2 32//32 6//6
f 32//32 30//30 6//6
f 30//30 28//28 22//22
f 28//28 26//26 22//22
f 26//26 24//24 22//22
f 22//22 20//20 14//14
f 20//20 18//18 14//14
f 18//18 16//16 14//14
f 14//14 12//12 10//10
f 10//10 8//8 14//14
f 8//8 6//6 14//14
f 6//6 30//30 22//22
f 30//30 32//32 31//31
f 32//32 2//2 1//1
f 31//31 1//1 3//3
f 3//3 5//5 7//7
f 7//7 9//9 11//11
f 11//11 13//13 15//15
f 15//15 17//17 19//19
f 19//19 21//21 23//23
f 23//23 25//25 27//27
f 27//27 29//29 31//31
f 31//31 3//3 15//15
f 3//3 7//7 15//15
f 7//7 11//11 15//15
f 15//15 19//19 31//31
f 19//19 23//23 31//31
