v 0.06004705 -0.00089897 0.00354490
v 0.05775993 0.00335891 -0.00008436
v 0.05780408 0.00397898 0.00129598
v 0.05780562 -0.00157866 -0.00079309
v 0.05785881 0.00230525 -0.00089625
v 0.06407596 -0.00471702 0.00210831
v 0.06188748 0.00040812 -0.00121740
v 0.05935264 0.00274897 -0.00137963
v 0.06066364 -0.00525983 0.00281400
v 0.05994841 -0.00469854 0.00004329
v 0.06405447 0.00093885 -0.00055538
v 0.06020781 -0.00328113 0.00352811
v 0.06206081 -0.00034777 0.00329018
v 0.06304317 -0.00257549 0.00340055
v 0.06409918 -0.00255774 -0.00035115
v 0.06152657 -0.00465463 0.00310180
v 0.06116483 0.00317827 -0.00121735
v 0.06101923 -0.00284730 -0.00116290
v 0.05775798 0.00066910 -0.00118746
v 0.06419323 0.00365342 0.00102151
v 0.06247091 -0.00509366 0.00268107
v 0.06416605 0.00304140 -0.00022686
v 0.06038731 0.00412252 0.00144450
v 0.06248729 -0.00533204 0.00233099
v 0.05779958 -0.00057307 0.00306957
v 0.06416292 -0.00432294 0.00138795
v 0.05895086 -0.00209146 -0.00135678
v 0.05778561 -0.00253290 0.00326896
v 0.05775145 -0.00515948 0.00193418
v 0.06415568 -0.00179512 0.00311705
v 0.05905243 -0.00474625 0.00281217
v 0.06090784 0.00365505 0.00202861
v 0.06027927 0.00405621 -0.00058192
v 0.06396956 0.00375581 0.00165712
vn -0.056025 0.167165 0.984336
vn -0.788867 0.492089 -0.368154
vn -0.651399 0.686525 0.323053
vn -0.825498 -0.214922 -0.521883
vn -0.705760 0.271762 -0.654254
vn 0.713271 -0.663672 0.225353
vn 0.192327 -0.007586 -0.981302
vn -0.168554 0.334028 -0.927370
vn -0.056131 -0.813851 0.578357
vn -0.086311 -0.769725 -0.632514
vn 0.689472 0.020159 -0.724031
vn -0.054107 -0.179102 0.982342
vn 0.132389 0.221816 0.966059
vn 0.242385 -0.129324 0.961522
vn 0.720789 -0.284258 -0.632187
vn 0.101470 -0.381073 0.918960
vn 0.170190 0.401519 -0.899899
vn 0.142239 -0.372377 -0.917117
vn -0.751490 0.017308 -0.659518
vn 0.763503 0.642193 -0.068203
vn 0.269918 -0.603656 0.750163
vn 0.729068 0.405795 -0.551172
vn -0.006625 0.946139 0.323694
vn 0.232107 -0.970242 0.068967
vn -0.729271 0.173475 0.661869
vn 0.774849 -0.523200 -0.354783
vn -0.262979 -0.295473 -0.918443
vn -0.721359 -0.083878 0.687463
vn -0.691709 -0.717895 0.078523
vn 0.746176 0.013195 0.665618
vn -0.251323 -0.505146 0.825629
vn -0.015150 0.561389 0.827414
vn -0.032925 0.873794 -0.485181
vn 0.526639 0.688752 0.498269
f 9//9 31//31 29//29
f 31//31 28//28 29//29
f 28//28 3//3 29//29
f 3//3 19//19 29//29
f 19//19 4//4 29//29
f 27//27 29//29 4//4
f 10//10 24//24 29//29
f 24//24 9//9 29//29
f 27//27 10//10 29//29
f 9//9 12//12 31//31
f 12//12 28//28 31//31
f 25//25 3//3 28//28
f 2//2 19//19 3//3
f 2//2 5//5 19//19
f 5//5 8//8 19//19
f 27//27 18//18 10//10
f 21//21 9//9 24//24
f 12//12 1//1 28//28
f 33//33 8//8 2//2
f 8//8 5//5 2//2
f 19//19 27//27 4//4
f 26//26 24//24 10//10
f 26//26 6//6 24//24
f 6//6 21//21 24//24
f 16//16 9//9 21//21
f 1//1 3//3 25//25
f 1//1 32//32 3//3
f 32//32 23//23 3//3
f 33//33 2//2 3//3
f 19//19 8//8 27//27
f 8//8 7//7 27//27
f 7//7 18//18 27//27
f 32//32 1//1 13//13
f 26//26 30//30 6//6
f 18//18 26//26 10//10
f 34//34 23//23 32//32
f 23//23 34//34 33//33
f 34//34 20//20 33//33
f 20//20 22//22 33//33
f 22//22 17//17 33//33
f 17//17 8//8 33//33
f 15//15 22//22 26//26
f 22//22 20//20 26//26
f 20//20 30//30 26//26
f 7//7 15//15 18//18
f 14//14 16//16 21//21
f 16//16 14//14 12//12
f 23//23 33//33 3//3
f 32//32 13//13 34//34
f 34//34 30//30 20//20
f 17//17 7//7 8//8
f 11//11 22//22 15//15
f 11//11 17//17 22//22
f 30//30 14//14 6//6
f 14//14 1//1 12//12
f 16//16 12//12 9//9
f 34//34 13//13 30//30
f 14//14 21//21 6//6
f 1//1 14//14 13//13
f 14//14 30//30 13//13
f 11//11 7//7 17//17
f 11//11 15//15 7//7
f 1//1 25//25 28//28
f 18//18 15//15 26//26
