v -0.00975693 -0.01114717 0.00065114
v -0.01092460 -0.01884690 -0.00356809
v -0.00951972 -0.01117786 0.00064150
v -0.01068738 -0.01887759 -0.00357774
v -0.00929817 -0.01116248 0.00055212
v -0.01046584 -0.01886221 -0.00366712
v -0.00912603 -0.01110338 0.00039662
v -0.01029369 -0.01880311 -0.00382261
v -0.00902949 -0.01100955 0.00019868
v -0.01019716 -0.01870928 -0.00402056
v -0.00902325 -0.01089527 -0.00001159
v -0.01019092 -0.01859501 -0.00423082
v -0.00910828 -0.01077796 -0.00020215
v -0.01027594 -0.01847769 -0.00442139
v -0.00927161 -0.01067545 -0.00034401
v -0.01043927 -0.01837519 -0.00456324
v -0.00948838 -0.01060337 -0.00041556
v -0.01065605 -0.01830310 -0.00463480
v -0.00972560 -0.01057268 -0.00040591
v -0.01089327 -0.01827241 -0.00462515
v -0.00994714 -0.01058806 -0.00031654
v -0.01111481 -0.01828779 -0.00453577
v -0.01011929 -0.01064716 -0.00016104
v -0.01128696 -0.01834690 -0.00438028
v -0.01021583 -0.01074099 0.00003691
v -0.01138350 -0.01844073 -0.00418233
v -0.01022206 -0.01085526 0.00024717
v -0.01138973 -0.01855500 -0.00397207
v -0.01013704 -0.01097258 0.00043774
v -0.01130471 -0.01867232 -0.00378150
v -0.00997371 -0.01107509 0.00057959
v -0.01114138 -0.01877482 -0.00363964
vn -0.075549 0.248026 0.965803
vn -0.251075 -0.909402 0.331587
vn 0.212963 0.210686 0.954074
vn 0.037439 -0.946736 0.319827
vn 0.482421 0.229386 0.845371
vn 0.306897 -0.928027 0.211138
vn 0.691796 0.301265 0.656245
vn 0.516259 -0.856150 0.022002
vn 0.809198 0.415407 0.415495
vn 0.633693 -0.742016 -0.218737
vn 0.816788 0.554378 0.159759
vn 0.641252 -0.603048 -0.474477
vn 0.713382 0.697064 -0.072018
vn 0.537867 -0.460338 -0.706249
vn 0.514728 0.821739 -0.244543
vn 0.339198 -0.335695 -0.878780
vn 0.251076 0.909412 -0.331559
vn 0.075555 -0.247999 -0.965810
vn -0.037440 0.946731 -0.319843
vn -0.212965 -0.210702 -0.954071
vn -0.306898 0.928026 -0.211142
vn -0.482420 -0.229390 -0.845370
vn -0.516274 0.856140 -0.022020
vn -0.691786 -0.301288 -0.656245
vn -0.633671 0.742031 0.218748
vn -0.809214 -0.415385 -0.415486
vn -0.641265 0.603039 0.474472
vn -0.816778 -0.554390 -0.159766
vn -0.537860 0.460348 0.706248
vn -0.713387 -0.697058 0.072028
vn -0.339203 0.335688 0.878780
vn -0.514724 -0.821743 0.244536
f 2//2 3//3 1//1
f 4//4 5//5 3//3
f 6//6 7//7 5//5
f 8//8 9//9 7//7
f 10//10 11//11 9//9
f 12//12 13//13 11//11
f 14//14 15//15 13//13
f 16//16 17//17 15//15
f 18//18 19//19 17//17
f 20//20 21//21 19//19
f 22//22 23//23 21//21
f 24//24 25//25 23//23
f 26//26 27//27 25//25
f 28//28 29//29 27//27
f 22//22 14//14 6//6
f 30//30 31//31 29//29
f 32//32 1//1 31//31
f 15//15 23//23 31//31
f 2//2 4//4 3//3
f 4//4 6//6 5//5
f 6//6 8//8 7//7
f 8//8 10//10 9//9
f 10//10 12//12 11//11
f 12//12 14//14 13//13
f 14//14 16//16 15//15
f 16//16 18//18 17//17
f 18//18 20//20 19//19
f 20//20 22//22 21//21
f 22//22 24//24 23//23
f 24//24 26//26 25//25
f 26//26 28//28 27//27
f 28//28 30//30 29//29
f 6//6 4//4 2//2
f 2//2 32//32 30//30
f 30//30 28//28 26//26
f 26//26 24//24 22//22
f 22//22 20//20 18//18
f 18//18 16//16 14//14
f 14//14 12//12 10//10
f 10//10 8//8 6//6
f 6//6 2//2 30//30
f 30//30 26//26 22//22
f 22//22 18//18 14//14
f 14//14 10//10 6//6
f 6//6 30//30 22//22
f 30//30 32//32 31//31
f 32//32 2//2 1//1
f 31//31 1//1 3//3
f 3//3 5//5 31//31
f 5//5 7//7 31//31
f 7//7 9//9 11//11
f 11//11 13//13 7//7
f 13//13 15//15 7//7
f 15//15 17//17 19//19
f 19//19 21//21 15//15
f 21//21 23//23 15//15
f 23//23 25//25 27//27
f 27//27 29//29 23//23
f 29//29 31//31 23//23
f 31//31 7//7 15//15
