v 0.01093740 -0.01108702 0.00014318
v 0.01079531 -0.00449363 -0.00221252
v 0.01136624 -0.01104577 0.00023276
v 0.01122415 -0.00445238 -0.00212294
v 0.01172485 -0.01095316 0.00047035
v 0.01158275 -0.00435976 -0.00188535
v 0.01195863 -0.01082328 0.00081978
v 0.01181654 -0.00422988 -0.00153591
v 0.01203200 -0.01067590 0.00122786
v 0.01188991 -0.00408250 -0.00112784
v 0.01193378 -0.01053346 0.00163245
v 0.01179169 -0.00394007 -0.00072325
v 0.01167893 -0.01041765 0.00197196
v 0.01153684 -0.00382426 -0.00038374
v 0.01130625 -0.01034610 0.00219470
v 0.01116416 -0.00375271 -0.00016100
v 0.01087247 -0.01032970 0.00226677
v 0.01073038 -0.00373631 -0.00008893
v 0.01044364 -0.01037095 0.00217719
v 0.01030155 -0.00377755 -0.00017851
v 0.01008503 -0.01046357 0.00193959
v 0.00994294 -0.00387017 -0.00041610
v 0.00985125 -0.01059345 0.00159016
v 0.00970916 -0.00400005 -0.00076553
v 0.00977788 -0.01074083 0.00118209
v 0.00963579 -0.00414743 -0.00117361
v 0.00987609 -0.01088326 0.00077750
v 0.00973400 -0.00428987 -0.00157820
v 0.01013094 -0.01099907 0.00043799
v 0.00998885 -0.00440567 -0.00191771
v 0.01050362 -0.01107062 0.00021525
v 0.01036153 -0.00447723 -0.00214045
vn 0.034987 -0.877326 -0.478617
vn 0.007975 0.376207 -0.926502
vn 0.318741 -0.850020 -0.419368
vn 0.291720 0.403525 -0.867218
vn 0.556012 -0.788754 -0.262139
vn 0.529022 0.464767 -0.710019
vn 0.710720 -0.702794 -0.030947
vn 0.683686 0.550746 -0.478803
vn 0.759246 -0.605300 0.239076
vn 0.732240 0.648252 -0.208792
vn 0.694277 -0.511032 0.506780
vn 0.667244 0.742506 0.058908
vn 0.525636 -0.434428 0.731423
vn 0.498628 0.819122 0.283564
vn 0.279049 -0.387070 0.878811
vn 0.252028 0.866475 0.430933
vn -0.007972 -0.376233 0.926491
vn -0.034989 0.877313 0.478642
vn -0.291727 -0.403499 0.867228
vn -0.318736 0.850034 0.419344
vn -0.528997 -0.464805 0.710012
vn -0.556036 0.788728 0.262168
vn -0.683705 -0.550720 0.478805
vn -0.710701 0.702814 0.030930
vn -0.732231 -0.648260 0.208797
vn -0.759254 0.605290 -0.239075
vn -0.667263 -0.742488 -0.058920
vn -0.694259 0.511054 -0.506782
vn -0.498621 -0.819132 -0.283549
vn -0.525642 0.434411 -0.731428
vn -0.252034 -0.866467 -0.430945
vn -0.279043 0.387084 -0.878806
f 2//2 3//3 1//1
f 4//4 5//5 3//3
f 6//6 7//7 5//5
f 8//8 9//9 7//7
f 10//10 11//11 9//9
f 12//12 13//13 11//11
f 14//14 15//15 13//13
f 16//16 17//17 15//15
f 18//18 19//19 17//17
f 20//20 21//21 19//19
f 22//22 23//23 21//21
f 24//24 25//25 23//23
f 26//26 27//27 25//25
f 28//28 29//29 27//27
f 10//10 6//6 22//22
f 30//30 31//31 29//29
f 32//32 1//1 31//31
f 15//15 23//23 31//31
f 2//2 4//4 3//3
f 4//4 6//6 5//5
f 6//6 8//8 7//7
f 8//8 10//10 9//9
f 10//10 12//12 11//11
f 12//12 14//14 13//13
f 14//14 16//16 15//15
f 16//16 18//18 17//17
f 18//18 20//20 19//19
f 20//20 22//22 21//21
f 22//22 24//24 23//23
f 24//24 26//26 25//25
f 26//26 28//28 27//27
f 28//28 30//30 29//29
f 6//6 4//4 2//2
f 2//2 32//32 30//30
f 30//30 28//28 26//26
f 26//26 24//24 22//22
f 22//22 20//20 18//18
f 18//18 16//16 14//14
f 14//14 12//12 10//10
f 10//10 8//8 6//6
f 6//6 2//2 30//30
f 30//30 26//26 6//6
f 26//26 22//22 6//6
f 22//22 18//18 14//14
f 14//14 10//10 22//22
f 30//30 32//32 31//31
f 32//32 2//2 1//1
f 31//31 1//1 3//3
f 3//3 5//5 7//7
f 7//7 9//9 11//11
f 11//11 13//13 15//15
f 15//15 17//17 19//19
f 19//19 21//21 23//23
f 23//23 25//25 27//27
f 27//27 29//29 31//31
f 31//31 3//3 7//7
f 7//7 11//11 15//15
f 15//15 19//19 23//23
f 23//23 27//27 31//31
f 31//31 7//7 15//15
