v 0.07132606 -0.00961518 0.00056877
v 0.06768509 -0.00253693 -0.00168490
v 0.07155909 -0.00942354 0.00079422
v 0.06791811 -0.00234528 -0.00145945
v 0.07168058 -0.00926016 0.00111108
v 0.06803960 -0.00218190 -0.00114259
v 0.07167203 -0.00914992 0.00147113
v 0.06803105 -0.00207166 -0.00078254
v 0.07153475 -0.00910960 0.00181953
v 0.06789377 -0.00203135 -0.00043414
v 0.07128964 -0.00914534 0.00210326
v 0.06764867 -0.00206709 -0.00015041
v 0.07097402 -0.00925171 0.00227911
v 0.06733304 -0.00217345 0.00002544
v 0.07063593 -0.00941250 0.00232032
v 0.06699496 -0.00233424 0.00006665
v 0.07032684 -0.00960323 0.00222061
v 0.06668587 -0.00252498 -0.00003306
v 0.07009383 -0.00979488 0.00199516
v 0.06645285 -0.00271663 -0.00025851
v 0.06997234 -0.00995826 0.00167829
v 0.06633136 -0.00288001 -0.00057538
v 0.06998088 -0.01006850 0.00131825
v 0.06633990 -0.00299025 -0.00093542
v 0.07011816 -0.01010882 0.00096984
v 0.06647718 -0.00303056 -0.00128383
v 0.07036326 -0.01007307 0.00068612
v 0.06672229 -0.00299482 -0.00156755
v 0.07067889 -0.00996671 0.00051026
v 0.06703791 -0.00288846 -0.00174341
v 0.07101697 -0.00980592 0.00046906
v 0.06737600 -0.00272767 -0.00178461
vn 0.679209 -0.574220 -0.457106
vn 0.093229 0.564973 -0.819825
vn 0.859349 -0.426050 -0.282844
vn 0.273352 0.713133 -0.645539
vn 0.953258 -0.299775 -0.037880
vn 0.367273 0.839427 -0.400591
vn 0.946661 -0.214524 0.240441
vn 0.360676 0.924643 -0.122262
vn 0.840535 -0.183388 0.509774
vn 0.254556 0.955809 0.147071
vn 0.651059 -0.210991 0.729113
vn 0.065064 0.928183 0.366391
vn 0.407069 -0.293244 0.865045
vn -0.178903 0.845941 0.502372
vn 0.145709 -0.417524 0.896907
vn -0.440280 0.721665 0.534185
vn -0.093216 -0.564983 0.819820
vn -0.679211 0.574209 0.457117
vn -0.273375 -0.713117 0.645547
vn -0.859349 0.426055 0.282836
vn -0.367263 -0.839429 0.400595
vn -0.953261 0.299765 0.037879
vn -0.360689 -0.924638 0.122261
vn -0.946653 0.214554 -0.240448
vn -0.254541 -0.955815 -0.147060
vn -0.840537 0.183371 -0.509778
vn -0.065084 -0.928174 -0.366410
vn -0.651056 0.211002 -0.729111
vn 0.178926 -0.845962 -0.502329
vn -0.407069 0.293243 -0.865045
vn 0.440274 -0.721658 -0.534199
vn -0.145706 0.417523 -0.896908
f 2//2 3//3 1//1
f 4//4 5//5 3//3
f 6//6 7//7 5//5
f 8//8 9//9 7//7
f 10//10 11//11 9//9
f 12//12 13//13 11//11
f 14//14 15//15 13//13
f 16//16 17//17 15//15
f 18//18 19//19 17//17
f 20//20 21//21 19//19
f 22//22 23//23 21//21
f 24//24 25//25 23//23
f 26//26 27//27 25//25
f 28//28 29//29 27//27
f 22//22 14//14 6//6
f 30//30 31//31 29//29
f 32//32 1//1 31//31
f 15//15 23//23 31//31
f 2//2 4//4 3//3
f 4//4 6//6 5//5
f 6//6 8//8 7//7
f 8//8 10//10 9//9
f 10//10 12//12 11//11
f 12//12 14//14 13//13
f 14//14 16//16 15//15
f 16//16 18//18 17//17
f 18//18 20//20 19//19
f 20//20 22//22 21//21
f 22//22 24//24 23//23
f 24//24 26//26 25//25
f 26//26 28//28 27//27
f 28//28 30//30 29//29
f 6//6 4//4 2//2
f 2//2 32//32 6//6
f 32//32 30//30 6//6
f 30//30 28//28 22//22
f 28//28 26//26 22//22
f 26//26 24//24 22//22
f 22//22 20//20 14//14
f 20//20 18//18 14//14
f 18//18 16//16 14//14
f 14//14 12//12 10//10
f 10//10 8//8 14//14
f 8//8 6//6 14//14
f 6//6 30//30 22//22
f 30//30 32//32 31//31
f 32//32 2//2 1//1
f 31//31 1//1 3//3
f 3//3 5//5 7//7
f 7//7 9//9 11//11
f 11//11 13//13 15//15
f 15//15 17//17 19//19
f 19//19 21//21 23//23
f 23//23 25//25 27//27
f 27//27 29//29 31//31
f 31//31 3//3 7//7
f 7//7 11//11 15//15
f 15//15 19//19 23//23
f 23//23 27//27 31//31
f 31//31 7//7 15//15
