v -0.04693771 0.00673839 -0.00247366
v -0.05232050 0.01115065 -0.00009016
v -0.04669663 0.00682330 -0.00208638
v -0.05207942 0.01123556 0.00029711
v -0.04655226 0.00676341 -0.00164949
v -0.05193505 0.01117567 0.00073401
v -0.04652657 0.00656786 -0.00122948
v -0.05190936 0.01098012 0.00115402
v -0.04662349 0.00626640 -0.00089030
v -0.05200628 0.01067867 0.00149320
v -0.04682824 0.00590494 -0.00068359
v -0.05221104 0.01031721 0.00169990
v -0.04710967 0.00553851 -0.00064082
v -0.05249247 0.00995077 0.00174268
v -0.04742493 0.00522288 -0.00076850
v -0.05280772 0.00963514 0.00161500
v -0.04772601 0.00500611 -0.00104719
v -0.05310881 0.00941837 0.00133631
v -0.04796709 0.00492121 -0.00143446
v -0.05334989 0.00933347 0.00094904
v -0.04811146 0.00498109 -0.00187135
v -0.05349426 0.00939335 0.00051214
v -0.04813715 0.00517664 -0.00229136
v -0.05351994 0.00958891 0.00009213
v -0.04804023 0.00547810 -0.00263054
v -0.05342303 0.00989036 -0.00024704
v -0.04783548 0.00583956 -0.00283725
v -0.05321827 0.01025182 -0.00045375
v -0.04755405 0.00620600 -0.00288002
v -0.05293684 0.01061826 -0.00049652
v -0.04723879 0.00652162 -0.00275234
v -0.05262159 0.01093389 -0.00036885
vn 0.734404 0.144211 -0.663215
vn -0.239745 0.942740 -0.231868
vn 0.885671 0.197503 -0.420213
vn -0.088498 0.996014 0.011151
vn 0.976261 0.159931 -0.146069
vn 0.002106 0.958440 0.285288
vn 0.992379 0.037210 0.117468
vn 0.018205 0.835735 0.548832
vn 0.931569 -0.151944 0.330290
vn -0.042578 0.646575 0.761662
vn 0.803087 -0.378743 0.460005
vn -0.171085 0.419776 0.891358
vn 0.626503 -0.608679 0.486831
vn -0.347650 0.189828 0.918208
vn 0.428658 -0.806719 0.406763
vn -0.545484 -0.008199 0.838081
vn 0.239769 -0.942739 0.231852
vn -0.734396 -0.144239 0.663217
vn 0.088483 -0.996015 -0.011142
vn -0.885675 -0.197487 0.420212
vn -0.002109 -0.958441 -0.285284
vn -0.976262 -0.159927 0.146068
vn -0.018208 -0.835736 -0.548830
vn -0.992379 -0.037207 -0.117468
vn 0.042604 -0.646583 -0.761653
vn -0.931564 0.151927 -0.330312
vn 0.171072 -0.419772 -0.891362
vn -0.803089 0.378752 -0.459994
vn 0.347672 -0.189849 -0.918195
vn -0.626488 0.608671 -0.486860
vn 0.545455 0.008242 -0.838100
vn -0.428689 0.806726 -0.406718
f 2//2 3//3 1//1
f 4//4 5//5 3//3
f 6//6 7//7 5//5
f 8//8 9//9 7//7
f 10//10 11//11 9//9
f 12//12 13//13 11//11
f 14//14 15//15 13//13
f 16//16 17//17 15//15
f 18//18 19//19 17//17
f 20//20 21//21 19//19
f 22//22 23//23 21//21
f 24//24 25//25 23//23
f 26//26 27//27 25//25
f 28//28 29//29 27//27
f 22//22 14//14 6//6
f 30//30 31//31 29//29
f 32//32 1//1 31//31
f 27//27 31//31 15//15
f 2//2 4//4 3//3
f 4//4 6//6 5//5
f 6//6 8//8 7//7
f 8//8 10//10 9//9
f 10//10 12//12 11//11
f 12//12 14//14 13//13
f 14//14 16//16 15//15
f 16//16 18//18 17//17
f 18//18 20//20 19//19
f 20//20 22//22 21//21
f 22//22 24//24 23//23
f 24//24 26//26 25//25
f 26//26 28//28 27//27
f 28//28 30//30 29//29
f 6//6 4//4 2//2
f 2//2 32//32 30//30
f 30//30 28//28 26//26
f 26//26 24//24 22//22
f 22//22 20//20 18//18
f 18//18 16//16 14//14
f 14//14 12//12 10//10
f 10//10 8//8 6//6
f 6//6 2//2 30//30
f 30//30 26//26 22//22
f 22//22 18//18 14//14
f 14//14 10//10 6//6
f 6//6 30//30 22//22
f 30//30 32//32 31//31
f 32//32 2//2 1//1
f 31//31 1//1 3//3
f 3//3 5//5 31//31
f 5//5 7//7 31//31
f 7//7 9//9 11//11
f 11//11 13//13 15//15
f 15//15 17//17 19//19
f 19//19 21//21 15//15
f 21//21 23//23 15//15
f 23//23 25//25 27//27
f 27//27 29//29 31//31
f 7//7 11//11 31//31
f 11//11 15//15 31//31
f 23//23 27//27 15//15
