v 0.07794525 -0.00802172 -0.00120136
v 0.07422092 -0.00394962 -0.00172593
v 0.07806192 -0.00788373 -0.00095852
v 0.07433759 -0.00381164 -0.00148309
v 0.07809643 -0.00781446 -0.00066589
v 0.07437211 -0.00374237 -0.00119046
v 0.07804355 -0.00782445 -0.00036802
v 0.07431923 -0.00375236 -0.00089259
v 0.07791132 -0.00791219 -0.00011026
v 0.07418700 -0.00384009 -0.00063483
v 0.07771987 -0.00806430 0.00006815
v 0.07399555 -0.00399221 -0.00045642
v 0.07749835 -0.00825764 0.00014005
v 0.07377402 -0.00418555 -0.00038452
v 0.07728048 -0.00846278 0.00009449
v 0.07355615 -0.00439068 -0.00043008
v 0.07709944 -0.00864847 -0.00006159
v 0.07337511 -0.00457638 -0.00058616
v 0.07698277 -0.00878645 -0.00030443
v 0.07325844 -0.00471436 -0.00082900
v 0.07694825 -0.00885572 -0.00059706
v 0.07322392 -0.00478363 -0.00112163
v 0.07700112 -0.00884573 -0.00089493
v 0.07327680 -0.00477364 -0.00141950
v 0.07713336 -0.00875800 -0.00115269
v 0.07340903 -0.00468591 -0.00167726
v 0.07732481 -0.00860588 -0.00133110
v 0.07360048 -0.00453379 -0.00185567
v 0.07754633 -0.00841254 -0.00140300
v 0.07382200 -0.00434045 -0.00192757
v 0.07776420 -0.00820741 -0.00135744
v 0.07403987 -0.00413532 -0.00188201
vn 0.854060 -0.187609 -0.485164
vn -0.040463 0.790463 -0.611171
vn 0.966278 -0.054868 -0.251586
vn 0.071731 0.923197 -0.377575
vn 0.999484 0.011765 0.029893
vn 0.104950 0.989823 -0.096099
vn 0.948619 0.002160 0.316414
vn 0.054070 0.980214 0.190415
vn 0.821431 -0.082253 0.564345
vn -0.073096 0.895820 0.438365
vn 0.637274 -0.228557 0.735964
vn -0.257271 0.749507 0.609959
vn 0.424192 -0.414528 0.805126
vn -0.470334 0.563521 0.679140
vn 0.214631 -0.611850 0.761297
vn -0.679913 0.366224 0.635294
vn 0.040489 -0.790470 0.611161
vn -0.854058 0.187584 0.485178
vn -0.071746 -0.923193 0.377581
vn -0.966280 0.054882 0.251577
vn -0.104954 -0.989823 0.096102
vn -0.999484 -0.011762 -0.029896
vn -0.054094 -0.980211 -0.190420
vn -0.948619 -0.002135 -0.316412
vn 0.073118 -0.895827 -0.438348
vn -0.821425 0.082228 -0.564358
vn 0.257258 -0.749504 -0.609969
vn -0.637278 0.228571 -0.735957
vn 0.470337 -0.563529 -0.679131
vn -0.424184 0.414523 -0.805133
vn 0.679909 -0.366219 -0.635301
vn -0.214636 0.611855 -0.761292
f 2//2 3//3 1//1
f 4//4 5//5 3//3
f 6//6 7//7 5//5
f 8//8 9//9 7//7
f 10//10 11//11 9//9
f 12//12 13//13 11//11
f 14//14 15//15 13//13
f 16//16 17//17 15//15
f 18//18 19//19 17//17
f 20//20 21//21 19//19
f 22//22 23//23 21//21
f 24//24 25//25 23//23
f 26//26 27//27 25//25
f 28//28 29//29 27//27
f 22//22 14//14 6//6
f 30//30 31//31 29//29
f 32//32 1//1 31//31
f 15//15 23//23 31//31
f 2//2 4//4 3//3
f 4//4 6//6 5//5
f 6//6 8//8 7//7
f 8//8 10//10 9//9
f 10//10 12//12 11//11
f 12//12 14//14 13//13
f 14//14 16//16 15//15
f 16//16 18//18 17//17
f 18//18 20//20 19//19
f 20//20 22//22 21//21
f 22//22 24//24 23//23
f 24//24 26//26 25//25
f 26//26 28//28 27//27
f 28//28 30//30 29//29
f 6//6 4//4 2//2
f 2//2 32//32 30//30
f 30//30 28//28 26//26
f 26//26 24//24 22//22
f 22//22 20//20 18//18
f 18//18 16//16 14//14
f 14//14 12//12 10//10
f 10//10 8//8 6//6
f 6//6 2//2 30//30
f 30//30 26//26 22//22
f 22//22 18//18 14//14
f 14//14 10//10 6//6
f 6//6 30//30 22//22
f 30//30 32//32 31//31
f 32//32 2//2 1//1
f 31//31 1//1 3//3
f 3//3 5//5 31//31
f 5//5 7//7 31//31
f 7//7 9//9 11//11
f 11//11 13//13 7//7
f 13//13 15//15 7//7
f 15//15 17//17 19//19
f 19//19 21//21 15//15
f 21//21 23//23 15//15
f 23//23 25//25 27//27
f 27//27 29//29 23//23
f 29//29 31//31 23//23
f 31//31 7//7 15//15
