v 0.05058897 0.00001024 -0.00182075
v 0.04885151 0.00384975 0.00117857
v 0.04871687 -0.00436094 0.00198655
v 0.05132452 -0.00331385 0.00419204
v 0.05064118 0.00152057 0.00365154
v 0.05775601 0.00188773 -0.00098092
v 0.05324880 0.00350860 -0.00156106
v 0.04877988 0.00346516 -0.00089813
v 0.05781699 -0.00120958 -0.00096849
v 0.05431425 -0.00076846 0.00393920
v 0.05186359 0.00289806 -0.00187584
v 0.05363111 0.00406632 0.00124186
v 0.05306941 -0.00578416 0.00263063
v 0.05072293 -0.00138548 0.00435205
v 0.05273445 -0.00307510 -0.00150377
v 0.05144278 -0.00533873 0.00333922
v 0.05780122 -0.00515872 0.00200273
v 0.05585760 -0.00465010 0.00302208
v 0.05763080 -0.00266622 0.00338638
v 0.05563774 -0.00567245 0.00223887
v 0.05015958 -0.00492162 0.00332591
v 0.05778417 -0.00054219 0.00308031
v 0.04880080 -0.00325596 -0.00100864
v 0.05775482 0.00319897 -0.00030588
v 0.05257353 0.00404612 -0.00077630
v 0.05774828 0.00397503 0.00112073
v 0.05330358 -0.00454396 -0.00001998
v 0.04876178 -0.00301767 0.00370182
v 0.04872937 -0.00028224 0.00394646
v 0.04879640 0.00150159 -0.00135098
vn -0.122771 -0.054524 -0.990936
vn -0.630542 0.725329 0.276251
vn -0.768921 -0.638385 -0.034992
vn -0.013112 -0.238574 0.971036
vn -0.084818 0.484782 0.870513
vn 0.717929 0.142169 -0.681444
vn 0.126939 0.577793 -0.806252
vn -0.680446 0.553025 -0.480787
vn 0.724507 -0.183728 -0.664329
vn 0.158000 0.179031 0.971074
vn -0.048994 0.302927 -0.951753
vn 0.007648 0.917061 0.398674
vn -0.017783 -0.982921 0.183169
vn -0.053032 0.038199 0.997862
vn 0.068654 -0.423971 -0.903070
vn -0.141588 -0.819364 0.555513
vn 0.700575 -0.712119 0.045621
vn 0.188018 -0.461654 0.866905
vn 0.648193 -0.127077 0.750798
vn 0.174046 -0.973558 0.147963
vn -0.373557 -0.766036 0.523109
vn 0.754633 0.179469 0.631125
vn -0.658565 -0.456146 -0.598518
vn 0.728144 0.494776 -0.474345
vn -0.019932 0.943921 -0.329571
vn 0.634809 0.730375 0.252130
vn 0.022358 -0.802314 -0.596484
vn -0.743820 -0.226117 0.628970
vn -0.718002 0.154655 0.678642
vn -0.755261 0.055094 -0.653104
f 28//28 29//29 3//3
f 8//8 30//30 3//3
f 30//30 23//23 3//3
f 21//21 28//28 3//3
f 21//21 4//4 28//28
f 7//7 11//11 8//8
f 1//1 15//15 23//23
f 15//15 27//27 23//23
f 13//13 16//16 3//3
f 16//16 21//21 3//3
f 5//5 2//2 29//29
f 25//25 8//8 2//2
f 30//30 8//8 11//11
f 11//11 1//1 30//30
f 15//15 1//1 11//11
f 17//17 20//20 27//27
f 15//15 17//17 27//27
f 20//20 13//13 27//27
f 28//28 14//14 29//29
f 5//5 12//12 2//2
f 26//26 25//25 12//12
f 26//26 7//7 25//25
f 15//15 9//9 17//17
f 18//18 13//13 20//20
f 18//18 16//16 13//13
f 11//11 6//6 9//9
f 5//5 26//26 12//12
f 26//26 24//24 7//7
f 24//24 6//6 7//7
f 9//9 26//26 17//17
f 26//26 22//22 17//17
f 6//6 24//24 9//9
f 24//24 26//26 9//9
f 5//5 29//29 14//14
f 14//14 4//4 10//10
f 4//4 19//19 10//10
f 5//5 14//14 10//10
f 22//22 26//26 10//10
f 26//26 5//5 10//10
f 18//18 17//17 19//19
f 11//11 7//7 6//6
f 9//9 15//15 11//11
f 22//22 19//19 17//17
f 18//18 19//19 16//16
f 16//16 19//19 4//4
f 27//27 3//3 23//23
f 4//4 21//21 16//16
f 1//1 23//23 30//30
f 25//25 7//7 8//8
f 19//19 22//22 10//10
f 29//29 8//8 3//3
f 25//25 2//2 12//12
f 17//17 18//18 20//20
f 28//28 4//4 14//14
f 27//27 13//13 3//3
f 29//29 2//2 8//8
