v 0.09049135 -0.00142423 -0.00180589
v 0.08123603 -0.00329474 -0.00233888
v 0.08346950 -0.00562277 0.00030376
v 0.08510365 -0.00646059 -0.00100696
v 0.08163091 -0.00561021 -0.00035753
v 0.08787370 -0.00506552 -0.00355046
v 0.09064766 -0.00104157 -0.00353371
v 0.08441452 -0.00619363 -0.00299170
v 0.08994329 -0.00299414 -0.00172452
v 0.08135094 -0.00563953 -0.00196671
vn 0.650915 0.509481 0.562796
vn -0.748380 0.614703 -0.249135
vn -0.112097 -0.215940 0.969951
vn 0.246815 -0.901916 0.354443
vn -0.650456 -0.321974 0.687924
vn 0.392355 -0.610609 -0.687906
vn 0.629057 0.567958 -0.530765
vn -0.112741 -0.694183 -0.710915
vn 0.758283 -0.458542 0.463406
vn -0.745161 -0.561701 -0.359481
f 3//3 2//2 5//5
f 7//7 2//2 1//1
f 2//2 3//3 1//1
f 3//3 9//9 1//1
f 6//6 2//2 7//7
f 8//8 10//10 2//2
f 6//6 8//8 2//2
f 9//9 6//6 7//7
f 4//4 10//10 8//8
f 10//10 5//5 2//2
f 4//4 3//3 5//5
f 3//3 4//4 9//9
f 9//9 4//4 6//6
f 6//6 4//4 8//8
f 9//9 7//7 1//1
f 4//4 5//5 10//10
