v 0.04188413 -0.00336899 0.00392490
v 0.04596336 -0.00336440 -0.00201418
v 0.04262812 -0.00030797 -0.00241038
v 0.04896203 -0.00024163 0.00394184
v 0.04891174 -0.00371730 0.00310939
v 0.04438337 0.00167708 0.00437053
v 0.04173393 -0.00484030 0.00267799
v 0.04731348 -0.00062041 -0.00206323
v 0.04431611 0.00440980 -0.00094642
v 0.04182662 0.00289524 0.00348073
v 0.04556318 0.00443085 -0.00041932
v 0.04531119 0.00334885 -0.00217797
v 0.04183776 -0.00006525 0.00455008
v 0.04890362 -0.00350544 -0.00082356
v 0.04899896 0.00211064 -0.00123507
v 0.04182766 -0.00356512 -0.00134688
v 0.04482172 -0.00563631 0.00083434
v 0.04181171 0.00355066 0.00134335
v 0.04425668 0.00340762 0.00348502
v 0.04456815 -0.00550262 0.00329817
v 0.04548753 -0.00302591 0.00439324
v 0.04903723 -0.00433501 0.00208661
v 0.04893717 0.00389687 0.00107996
v 0.04185038 -0.00100208 -0.00200090
v 0.04379824 -0.00316254 -0.00228336
v 0.04731341 -0.00151888 0.00442182
v 0.04603561 0.00281820 0.00349199
v 0.04184533 0.00341898 -0.00117308
v 0.04375095 -0.00350114 0.00427588
v 0.04359362 0.00447719 0.00052370
v 0.04179363 -0.00172200 0.00453257
v 0.04482595 -0.00470457 -0.00117883
v 0.04337668 0.00313970 -0.00227770
v 0.04894902 -0.00254857 0.00380622
v 0.04829016 -0.00483719 0.00239195
v 0.04897160 0.00349893 -0.00085254
v 0.04184436 0.00091635 -0.00208940
v 0.04453965 -0.00010575 0.00476547
v 0.04642814 -0.00549401 0.00245351
v 0.04897616 -0.00090436 -0.00131744
v 0.04505600 0.00046804 -0.00239451
vn -0.625704 -0.368754 0.687397
vn 0.204893 -0.383760 -0.900415
vn -0.211955 -0.034861 -0.976658
vn 0.744088 0.161268 0.648325
vn 0.688155 -0.439990 0.576933
vn 0.038181 0.340203 0.939576
vn -0.739835 -0.638116 0.213193
vn 0.279803 -0.044729 -0.959015
vn -0.078800 0.920693 -0.382250
vn -0.686035 0.503679 0.525037
vn 0.133797 0.977060 -0.165689
vn 0.132296 0.471320 -0.871984
vn -0.694902 0.107147 0.711077
vn 0.722765 -0.461942 -0.514023
vn 0.796221 0.107949 -0.595298
vn -0.740702 -0.453978 -0.495242
vn -0.032875 -0.971031 -0.236680
vn -0.807531 0.581445 0.099076
vn 0.001415 0.750225 0.661181
vn -0.041050 -0.833618 0.550815
vn 0.104177 -0.293565 0.950245
vn 0.838104 -0.543832 0.042762
vn 0.692086 0.684431 0.229284
vn -0.806381 -0.094016 -0.583876
vn -0.114063 -0.355328 -0.927756
vn 0.195143 -0.066536 0.978515
vn 0.271162 0.558718 0.783776
vn -0.765985 0.525568 -0.370196
vn -0.077653 -0.353417 0.932237
vn -0.198562 0.975615 0.093536
vn -0.705622 -0.099180 0.701613
vn 0.004163 -0.803535 -0.595244
vn -0.197993 0.432483 -0.879635
vn 0.728347 -0.216952 0.649956
vn 0.438658 -0.864665 0.244814
vn 0.714610 0.532201 -0.453977
vn -0.785985 0.072823 -0.613942
vn 0.045604 0.078112 0.995901
vn 0.268566 -0.941335 0.204353
vn 0.810121 -0.064356 -0.582719
vn 0.076461 0.020002 -0.996872
f 24//24 16//16 7//7
f 17//17 20//20 7//7
f 1//1 31//31 7//7
f 31//31 13//13 7//7
f 13//13 10//10 7//7
f 10//10 18//18 7//7
f 25//25 16//16 24//24
f 32//32 17//17 16//16
f 25//25 32//32 16//16
f 1//1 29//29 31//31
f 29//29 21//21 31//31
f 21//21 38//38 31//31
f 19//19 30//30 10//10
f 30//30 18//18 10//10
f 12//12 41//41 3//3
f 2//2 14//14 32//32
f 14//14 17//17 32//32
f 2//2 32//32 25//25
f 35//35 39//39 17//17
f 6//6 19//19 10//10
f 18//18 24//24 7//7
f 30//30 28//28 18//18
f 37//37 18//18 28//28
f 3//3 24//24 37//37
f 14//14 22//22 35//35
f 21//21 26//26 38//38
f 3//3 41//41 25//25
f 25//25 41//41 2//2
f 2//2 8//8 14//14
f 40//40 22//22 14//14
f 34//34 5//5 22//22
f 5//5 35//35 22//22
f 40//40 15//15 22//22
f 15//15 36//36 22//22
f 36//36 23//23 22//22
f 23//23 4//4 22//22
f 4//4 34//34 22//22
f 35//35 20//20 39//39
f 35//35 5//5 20//20
f 5//5 34//34 20//20
f 34//34 21//21 20//20
f 27//27 19//19 6//6
f 11//11 9//9 30//30
f 11//11 36//36 9//9
f 36//36 12//12 9//9
f 7//7 20//20 1//1
f 8//8 2//2 41//41
f 8//8 12//12 15//15
f 12//12 36//36 15//15
f 21//21 34//34 26//26
f 33//33 9//9 12//12
f 6//6 4//4 27//27
f 27//27 23//23 19//19
f 23//23 30//30 19//19
f 11//11 23//23 36//36
f 9//9 28//28 30//30
f 3//3 37//37 33//33
f 8//8 15//15 40//40
f 4//4 26//26 34//34
f 11//11 30//30 23//23
f 27//27 4//4 23//23
f 29//29 1//1 20//20
f 6//6 38//38 4//4
f 3//3 25//25 24//24
f 26//26 4//4 38//38
f 33//33 12//12 3//3
f 12//12 8//8 41//41
f 38//38 6//6 13//13
f 13//13 31//31 38//38
f 33//33 28//28 9//9
f 10//10 13//13 6//6
f 14//14 35//35 17//17
f 39//39 20//20 17//17
f 33//33 37//37 28//28
f 40//40 14//14 8//8
f 17//17 7//7 16//16
f 21//21 29//29 20//20
f 18//18 37//37 24//24
