v 0.04632656 -0.01091256 0.00134803
v 0.04542141 -0.00476915 -0.00151566
v 0.04674786 -0.01078474 0.00148907
v 0.04584271 -0.00464133 -0.00137462
v 0.04706812 -0.01060627 0.00177070
v 0.04616297 -0.00446287 -0.00109299
v 0.04723857 -0.01040434 0.00215004
v 0.04633343 -0.00426093 -0.00071366
v 0.04723328 -0.01020967 0.00256933
v 0.04632813 -0.00406626 -0.00029437
v 0.04705304 -0.01005191 0.00296474
v 0.04614789 -0.00390850 0.00010105
v 0.04672529 -0.00995507 0.00327608
v 0.04582015 -0.00381166 0.00041239
v 0.04629993 -0.00993390 0.00345595
v 0.04539479 -0.00379049 0.00059225
v 0.04584172 -0.00999161 0.00347695
v 0.04493658 -0.00384820 0.00061326
v 0.04542042 -0.01011943 0.00333591
v 0.04451528 -0.00397602 0.00047222
v 0.04510016 -0.01029790 0.00305428
v 0.04419502 -0.00415449 0.00019059
v 0.04492971 -0.01049983 0.00267495
v 0.04402456 -0.00435642 -0.00018874
v 0.04493500 -0.01069450 0.00225566
v 0.04402986 -0.00455109 -0.00060803
v 0.04511524 -0.01085226 0.00186024
v 0.04421010 -0.00470885 -0.00100345
v 0.04544299 -0.01094910 0.00154891
v 0.04453785 -0.00480569 -0.00131479
v 0.04586835 -0.01097028 0.00136904
v 0.04496320 -0.00482687 -0.00149465
vn 0.240787 -0.888067 -0.391611
vn 0.064559 0.308052 -0.949176
vn 0.506121 -0.807568 -0.302779
vn 0.329881 0.388578 -0.860340
vn 0.707809 -0.695184 -0.125402
vn 0.531605 0.500937 -0.682978
vn 0.815176 -0.567987 0.113483
vn 0.638926 0.628148 -0.444077
vn 0.811826 -0.445408 0.377558
vn 0.635599 0.750740 -0.180010
vn 0.698319 -0.346040 0.626583
vn 0.522077 0.850102 0.069010
vn 0.491904 -0.285064 0.822660
vn 0.315675 0.911083 0.265100
vn 0.224023 -0.271701 0.935945
vn 0.047783 0.924424 0.378361
vn -0.064555 -0.308060 0.949174
vn -0.240790 0.888062 0.391619
vn -0.329888 -0.388563 0.860345
vn -0.506117 0.807576 0.302765
vn -0.531572 -0.500970 0.682978
vn -0.707832 0.695155 0.125431
vn -0.638945 -0.628129 0.444075
vn -0.815162 0.568004 -0.113498
vn -0.635590 -0.750746 0.180018
vn -0.811833 0.445396 -0.377557
vn -0.522085 -0.850096 -0.069015
vn -0.698313 0.346050 -0.626584
vn -0.315667 -0.911090 -0.265084
vn -0.491907 0.285046 -0.822664
vn -0.047792 -0.924413 -0.378387
vn -0.224019 0.271730 -0.935937
f 2//2 3//3 1//1
f 4//4 5//5 3//3
f 6//6 7//7 5//5
f 8//8 9//9 7//7
f 10//10 11//11 9//9
f 12//12 13//13 11//11
f 14//14 15//15 13//13
f 16//16 17//17 15//15
f 18//18 19//19 17//17
f 20//20 21//21 19//19
f 22//22 23//23 21//21
f 24//24 25//25 23//23
f 26//26 27//27 25//25
f 28//28 29//29 27//27
f 10//10 6//6 22//22
f 30//30 31//31 29//29
f 32//32 1//1 31//31
f 27//27 31//31 15//15
f 2//2 4//4 3//3
f 4//4 6//6 5//5
f 6//6 8//8 7//7
f 8//8 10//10 9//9
f 10//10 12//12 11//11
f 12//12 14//14 13//13
f 14//14 16//16 15//15
f 16//16 18//18 17//17
f 18//18 20//20 19//19
f 20//20 22//22 21//21
f 22//22 24//24 23//23
f 24//24 26//26 25//25
f 26//26 28//28 27//27
f 28//28 30//30 29//29
f 6//6 4//4 2//2
f 2//2 32//32 30//30
f 30//30 28//28 26//26
f 26//26 24//24 22//22
f 22//22 20//20 18//18
f 18//18 16//16 14//14
f 14//14 12//12 10//10
f 10//10 8//8 6//6
f 6//6 2//2 30//30
f 30//30 26//26 6//6
f 26//26 22//22 6//6
f 22//22 18//18 14//14
f 14//14 10//10 22//22
f 30//30 32//32 31//31
f 32//32 2//2 1//1
f 31//31 1//1 7//7
f 1//1 3//3 7//7
f 3//3 5//5 7//7
f 7//7 9//9 11//11
f 11//11 13//13 15//15
f 15//15 17//17 23//23
f 17//17 19//19 23//23
f 19//19 21//21 23//23
f 23//23 25//25 27//27
f 27//27 29//29 31//31
f 7//7 11//11 31//31
f 11//11 15//15 31//31
f 23//23 27//27 15//15
