v 0.00176219 0.00510609 -0.00176326
v -0.00330004 0.01023466 -0.00059063
v 0.00199657 0.00524856 -0.00137452
v -0.00306566 0.01037713 -0.00020189
v 0.00211737 0.00526262 -0.00091456
v -0.00294486 0.01039120 0.00025807
v 0.00210619 0.00514615 -0.00045340
v -0.00295604 0.01027472 0.00071923
v 0.00196474 0.00491686 -0.00006126
v -0.00309749 0.01004544 0.00111137
v 0.00171455 0.00460968 0.00020217
v -0.00334769 0.00973825 0.00137480
v 0.00139370 0.00427135 0.00029678
v -0.00366853 0.00939992 0.00146941
v 0.00105105 0.00395339 0.00020816
v -0.00401118 0.00908197 0.00138080
v 0.00073876 0.00370421 -0.00005018
v -0.00432347 0.00883279 0.00112245
v 0.00050438 0.00356175 -0.00043892
v -0.00455785 0.00869032 0.00073371
v 0.00038358 0.00354768 -0.00089889
v -0.00467865 0.00867626 0.00027374
v 0.00039476 0.00366416 -0.00136004
v -0.00466747 0.00879273 -0.00018741
v 0.00053621 0.00389344 -0.00175218
v -0.00452602 0.00902202 -0.00057955
v 0.00078641 0.00420063 -0.00201561
v -0.00427582 0.00932920 -0.00084298
v 0.00110725 0.00453896 -0.00211022
v -0.00395498 0.00966753 -0.00093759
v 0.00144990 0.00485691 -0.00202161
v -0.00361233 0.00998549 -0.00084898
vn 0.774737 -0.038690 -0.631098
vn -0.148426 0.896586 -0.417258
vn 0.918170 0.048523 -0.393205
vn -0.005005 0.983772 -0.179351
vn 0.992097 0.057103 -0.111723
vn 0.068928 0.992380 0.102130
vn 0.985256 -0.014145 0.170502
vn 0.062098 0.921099 0.384344
vn 0.898693 -0.154489 0.410468
vn -0.024472 0.780783 0.624323
vn 0.745577 -0.342459 0.571697
vn -0.177595 0.592798 0.785526
vn 0.549238 -0.549523 0.629573
vn -0.373911 0.385725 0.843450
vn 0.339540 -0.744093 0.575359
vn -0.583631 0.191177 0.789193
vn 0.148441 -0.896587 0.417250
vn -0.774735 0.038674 0.631103
vn 0.004979 -0.983770 0.179364
vn -0.918172 -0.048515 0.393201
vn -0.068917 -0.992381 -0.102126
vn -0.992098 -0.057112 0.111716
vn -0.062110 -0.921099 -0.384343
vn -0.985257 0.014175 -0.170494
vn 0.024485 -0.780788 -0.624316
vn -0.898690 0.154477 -0.410479
vn 0.177572 -0.592788 -0.785538
vn -0.745577 0.342466 -0.571692
vn 0.373942 -0.385756 -0.843422
vn -0.549238 0.549522 -0.629574
vn 0.583622 -0.191167 -0.789203
vn -0.339536 0.744094 -0.575360
f 2//2 3//3 1//1
f 4//4 5//5 3//3
f 6//6 7//7 5//5
f 8//8 9//9 7//7
f 10//10 11//11 9//9
f 12//12 13//13 11//11
f 14//14 15//15 13//13
f 16//16 17//17 15//15
f 18//18 19//19 17//17
f 20//20 21//21 19//19
f 22//22 23//23 21//21
f 24//24 25//25 23//23
f 26//26 27//27 25//25
f 28//28 29//29 27//27
f 22//22 14//14 6//6
f 30//30 31//31 29//29
f 32//32 1//1 31//31
f 15//15 23//23 31//31
f 2//2 4//4 3//3
f 4//4 6//6 5//5
f 6//6 8//8 7//7
f 8//8 10//10 9//9
f 10//10 12//12 11//11
f 12//12 14//14 13//13
f 14//14 16//16 15//15
f 16//16 18//18 17//17
f 18//18 20//20 19//19
f 20//20 22//22 21//21
f 22//22 24//24 23//23
f 24//24 26//26 25//25
f 26//26 28//28 27//27
f 28//28 30//30 29//29
f 6//6 4//4 2//2
f 2//2 32//32 6//6
f 32//32 30//30 6//6
f 30//30 28//28 22//22
f 28//28 26//26 22//22
f 26//26 24//24 22//22
f 22//22 20//20 14//14
f 20//20 18//18 14//14
f 18//18 16//16 14//14
f 14//14 12//12 10//10
f 10//10 8//8 14//14
f 8//8 6//6 14//14
f 6//6 30//30 22//22
f 30//30 32//32 31//31
f 32//32 2//2 1//1
f 31//31 1//1 3//3
f 3//3 5//5 7//7
f 7//7 9//9 11//11
f 11//11 13//13 15//15
f 15//15 17//17 19//19
f 19//19 21//21 23//23
f 23//23 25//25 27//27
f 27//27 29//29 31//31
f 31//31 3//3 7//7
f 7//7 11//11 15//15
f 15//15 19//19 23//23
f 23//23 27//27 31//31
f 31//31 7//7 15//15
