v 0.04492206 0.00444465 -0.00118628
v 0.04247391 0.01025047 0.00016882
v 0.04525629 0.00453269 -0.00095967
v 0.04280814 0.01033852 0.00039543
v 0.04549405 0.00455420 -0.00062229
v 0.04304590 0.01036002 0.00073282
v 0.04559913 0.00450590 -0.00022549
v 0.04315098 0.01031172 0.00112961
v 0.04555554 0.00439514 0.00017030
v 0.04310738 0.01020096 0.00152540
v 0.04536991 0.00423878 0.00050483
v 0.04292176 0.01004460 0.00185993
v 0.04507050 0.00406063 0.00072718
v 0.04262235 0.00986646 0.00208228
v 0.04470291 0.00388782 0.00080349
v 0.04225475 0.00969364 0.00215859
v 0.04432308 0.00374664 0.00072214
v 0.04187492 0.00955246 0.00207725
v 0.04398884 0.00365859 0.00049553
v 0.04154069 0.00946442 0.00185063
v 0.04375109 0.00363709 0.00015815
v 0.04130293 0.00944291 0.00151325
v 0.04364601 0.00368539 -0.00023865
v 0.04119786 0.00949121 0.00111646
v 0.04368960 0.00379615 -0.00063444
v 0.04124145 0.00960197 0.00072067
v 0.04387523 0.00395251 -0.00096897
v 0.04142708 0.00975833 0.00038613
v 0.04417463 0.00413065 -0.00119132
v 0.04172648 0.00993648 0.00016379
v 0.04454223 0.00430347 -0.00126763
v 0.04209408 0.01010929 0.00008748
vn 0.463857 -0.353844 -0.812177
vn -0.041889 0.845555 -0.532242
vn 0.699313 -0.291804 -0.652542
vn 0.193570 0.907579 -0.372601
vn 0.866805 -0.276649 -0.414867
vn 0.361052 0.922734 -0.134920
vn 0.940825 -0.310694 -0.135342
vn 0.435067 0.888710 0.144606
vn 0.910115 -0.388722 0.143475
vn 0.404373 0.810675 0.423425
vn 0.779350 -0.498859 0.379148
vn 0.273605 0.700525 0.659094
vn 0.568428 -0.624368 0.535775
vn 0.062686 0.575022 0.815733
vn 0.309459 -0.746078 0.589578
vn -0.196287 0.453296 0.869479
vn 0.041899 -0.845562 0.532231
vn -0.463857 0.353828 0.812184
vn -0.193567 -0.907579 0.372601
vn -0.699315 0.291801 0.652542
vn -0.361060 -0.922730 0.134926
vn -0.866803 0.276660 0.414863
vn -0.435070 -0.888709 -0.144604
vn -0.940824 0.310697 0.135341
vn -0.404359 -0.810684 -0.423421
vn -0.910120 0.388709 -0.143484
vn -0.273601 -0.700530 -0.659090
vn -0.779350 0.498854 -0.379154
vn -0.062671 -0.575040 -0.815721
vn -0.568428 0.624350 -0.535795
vn 0.196265 -0.453253 -0.869507
vn -0.309469 0.746110 -0.589533
f 2//2 3//3 1//1
f 4//4 5//5 3//3
f 6//6 7//7 5//5
f 8//8 9//9 7//7
f 10//10 11//11 9//9
f 12//12 13//13 11//11
f 14//14 15//15 13//13
f 16//16 17//17 15//15
f 18//18 19//19 17//17
f 20//20 21//21 19//19
f 22//22 23//23 21//21
f 24//24 25//25 23//23
f 26//26 27//27 25//25
f 28//28 29//29 27//27
f 22//22 14//14 6//6
f 30//30 31//31 29//29
f 32//32 1//1 31//31
f 27//27 31//31 15//15
f 2//2 4//4 3//3
f 4//4 6//6 5//5
f 6//6 8//8 7//7
f 8//8 10//10 9//9
f 10//10 12//12 11//11
f 12//12 14//14 13//13
f 14//14 16//16 15//15
f 16//16 18//18 17//17
f 18//18 20//20 19//19
f 20//20 22//22 21//21
f 22//22 24//24 23//23
f 24//24 26//26 25//25
f 26//26 28//28 27//27
f 28//28 30//30 29//29
f 6//6 4//4 30//30
f 4//4 2//2 30//30
f 2//2 32//32 30//30
f 30//30 28//28 22//22
f 28//28 26//26 22//22
f 26//26 24//24 22//22
f 22//22 20//20 14//14
f 20//20 18//18 14//14
f 18//18 16//16 14//14
f 14//14 12//12 6//6
f 12//12 10//10 6//6
f 10//10 8//8 6//6
f 6//6 30//30 22//22
f 30//30 32//32 31//31
f 32//32 2//2 1//1
f 31//31 1//1 3//3
f 3//3 5//5 31//31
f 5//5 7//7 31//31
f 7//7 9//9 11//11
f 11//11 13//13 15//15
f 15//15 17//17 19//19
f 19//19 21//21 15//15
f 21//21 23//23 15//15
f 23//23 25//25 27//27
f 27//27 29//29 31//31
f 7//7 11//11 31//31
f 11//11 15//15 31//31
f 23//23 27//27 15//15
