v -0.01090480 0.01045173 -0.00064517
v -0.01295209 0.01542944 -0.00787928
v -0.01073924 0.01065203 -0.00055421
v -0.01278652 0.01562973 -0.00778832
v -0.01066699 0.01088001 -0.00041778
v -0.01271427 0.01585772 -0.00765189
v -0.01069906 0.01110097 -0.00025667
v -0.01274634 0.01607867 -0.00749078
v -0.01083056 0.01128126 -0.00009540
v -0.01287784 0.01625897 -0.00732951
v -0.01104148 0.01139344 0.00004149
v -0.01308876 0.01637115 -0.00719263
v -0.01129970 0.01142043 0.00013314
v -0.01334698 0.01639814 -0.00710098
v -0.01156592 0.01135812 0.00016560
v -0.01361320 0.01633583 -0.00706851
v -0.01179960 0.01121600 0.00013394
v -0.01384688 0.01619370 -0.00710017
v -0.01196516 0.01101570 0.00004297
v -0.01401244 0.01599341 -0.00719114
v -0.01203741 0.01078772 -0.00009345
v -0.01408469 0.01576542 -0.00732756
v -0.01200534 0.01056676 -0.00025456
v -0.01405263 0.01554447 -0.00748868
v -0.01187384 0.01038647 -0.00041584
v -0.01392112 0.01536417 -0.00764995
v -0.01166292 0.01027429 -0.00055272
v -0.01371021 0.01525199 -0.00778683
v -0.01140470 0.01024730 -0.00064437
v -0.01345198 0.01522500 -0.00787848
v -0.01113848 0.01030961 -0.00067683
v -0.01318577 0.01528731 -0.00791094
vn 0.624259 -0.771607 0.122165
vn 0.321962 -0.036592 -0.946045
vn 0.799348 -0.559794 0.218344
vn 0.497031 0.175228 -0.849856
vn 0.875752 -0.318707 0.362608
vn 0.573441 0.416309 -0.705587
vn 0.841844 -0.085045 0.532979
vn 0.539537 0.649962 -0.535209
vn 0.702773 0.105592 0.703534
vn 0.400475 0.840618 -0.364665
vn 0.479738 0.224236 0.848275
vn 0.177420 0.959245 -0.219934
vn 0.206668 0.252778 0.945194
vn -0.095633 0.987789 -0.122992
vn -0.074845 0.186878 0.979528
vn -0.377153 0.921897 -0.088665
vn -0.321950 0.036581 0.946050
vn -0.624265 0.771604 -0.122149
vn -0.497045 -0.175218 0.849850
vn -0.799341 0.559798 -0.218359
vn -0.573449 -0.416303 0.705583
vn -0.875747 0.318710 -0.362618
vn -0.539543 -0.649960 0.535206
vn -0.841840 0.085049 -0.532984
vn -0.400464 -0.840617 0.364680
vn -0.702778 -0.105608 -0.703527
vn -0.177435 -0.959246 0.219917
vn -0.479730 -0.224217 -0.848284
vn 0.095634 -0.987788 0.122999
vn -0.206667 -0.252784 -0.945193
vn 0.377151 -0.921897 0.088676
vn 0.074851 -0.186887 -0.979526
f 2//2 3//3 1//1
f 4//4 5//5 3//3
f 6//6 7//7 5//5
f 8//8 9//9 7//7
f 10//10 11//11 9//9
f 12//12 13//13 11//11
f 14//14 15//15 13//13
f 16//16 17//17 15//15
f 18//18 19//19 17//17
f 20//20 21//21 19//19
f 22//22 23//23 21//21
f 24//24 25//25 23//23
f 26//26 27//27 25//25
f 28//28 29//29 27//27
f 22//22 14//14 6//6
f 30//30 31//31 29//29
f 32//32 1//1 31//31
f 15//15 23//23 31//31
f 2//2 4//4 3//3
f 4//4 6//6 5//5
f 6//6 8//8 7//7
f 8//8 10//10 9//9
f 10//10 12//12 11//11
f 12//12 14//14 13//13
f 14//14 16//16 15//15
f 16//16 18//18 17//17
f 18//18 20//20 19//19
f 20//20 22//22 21//21
f 22//22 24//24 23//23
f 24//24 26//26 25//25
f 26//26 28//28 27//27
f 28//28 30//30 29//29
f 6//6 4//4 2//2
f 2//2 32//32 6//6
f 32//32 30//30 6//6
f 30//30 28//28 26//26
f 26//26 24//24 30//30
f 24//24 22//22 30//30
f 22//22 20//20 18//18
f 18//18 16//16 22//22
f 16//16 14//14 22//22
f 14//14 12//12 10//10
f 10//10 8//8 14//14
f 8//8 6//6 14//14
f 6//6 30//30 22//22
f 30//30 32//32 31//31
f 32//32 2//2 1//1
f 31//31 1//1 3//3
f 3//3 5//5 31//31
f 5//5 7//7 31//31
f 7//7 9//9 11//11
f 11//11 13//13 7//7
f 13//13 15//15 7//7
f 15//15 17//17 19//19
f 19//19 21//21 15//15
f 21//21 23//23 15//15
f 23//23 25//25 27//27
f 27//27 29//29 23//23
f 29//29 31//31 23//23
f 31//31 7//7 15//15
