v 0.06126802 0.00915379 0.00301460
v 0.06049768 0.00375058 0.00140842
v 0.06163256 0.00910756 0.00299529
v 0.06086222 0.00370434 0.00138911
v 0.06196733 0.00910523 0.00284256
v 0.06119698 0.00370201 0.00123638
v 0.06222136 0.00914716 0.00257967
v 0.06145101 0.00374394 0.00097349
v 0.06235598 0.00922696 0.00224664
v 0.06158563 0.00382375 0.00064046
v 0.06235069 0.00933249 0.00189417
v 0.06158035 0.00392928 0.00028799
v 0.06220630 0.00944768 0.00157592
v 0.06143596 0.00404447 -0.00003026
v 0.06194479 0.00955500 0.00134034
v 0.06117445 0.00415178 -0.00026584
v 0.06160598 0.00963810 0.00122330
v 0.06083563 0.00423488 -0.00038288
v 0.06124144 0.00968433 0.00124261
v 0.06047109 0.00428111 -0.00036357
v 0.06090667 0.00968666 0.00139533
v 0.06013633 0.00428344 -0.00021085
v 0.06065264 0.00964473 0.00165822
v 0.05988229 0.00424151 0.00005204
v 0.06051802 0.00956492 0.00199125
v 0.05974768 0.00416171 0.00038507
v 0.06052331 0.00945939 0.00234372
v 0.05975296 0.00405618 0.00073754
v 0.06066770 0.00934420 0.00266197
v 0.05989735 0.00394099 0.00105579
v 0.06092921 0.00923689 0.00289755
v 0.06015886 0.00383367 0.00129137
vn -0.043565 0.440643 0.896625
vn -0.223844 -0.823833 0.520761
vn 0.244877 0.404036 0.881357
vn 0.064597 -0.860430 0.505457
vn 0.509760 0.402220 0.760503
vn 0.329504 -0.862249 0.384646
vn 0.710771 0.435380 0.552494
vn 0.530483 -0.829096 0.176602
vn 0.817279 0.498541 0.288983
vn 0.637009 -0.765942 -0.086903
vn 0.813103 0.582033 0.010087
vn 0.632815 -0.682449 -0.365799
vn 0.698849 0.673187 -0.241724
vn 0.518579 -0.591291 -0.617617
vn 0.491944 0.758070 -0.428161
vn 0.311648 -0.506394 -0.804015
vn 0.223846 0.823848 -0.520737
vn 0.043569 -0.440618 -0.896637
vn -0.064603 0.860416 -0.505482
vn -0.244878 -0.404062 -0.881345
vn -0.329479 0.862273 -0.384615
vn -0.509776 -0.402177 -0.760514
vn -0.530494 0.829086 -0.176614
vn -0.710764 -0.435396 -0.552490
vn -0.636999 0.765950 0.086905
vn -0.817287 -0.498532 -0.288979
vn -0.632825 0.682441 0.365796
vn -0.813096 -0.582043 -0.010089
vn -0.518568 0.591306 0.617612
vn -0.698856 -0.673174 0.241737
vn -0.311672 0.506357 0.804029
vn -0.491929 -0.758098 0.428127
f 2//2 3//3 1//1
f 4//4 5//5 3//3
f 6//6 7//7 5//5
f 8//8 9//9 7//7
f 10//10 11//11 9//9
f 12//12 13//13 11//11
f 14//14 15//15 13//13
f 16//16 17//17 15//15
f 18//18 19//19 17//17
f 20//20 21//21 19//19
f 22//22 23//23 21//21
f 24//24 25//25 23//23
f 26//26 27//27 25//25
f 28//28 29//29 27//27
f 10//10 6//6 22//22
f 30//30 31//31 29//29
f 32//32 1//1 31//31
f 27//27 31//31 15//15
f 2//2 4//4 3//3
f 4//4 6//6 5//5
f 6//6 8//8 7//7
f 8//8 10//10 9//9
f 10//10 12//12 11//11
f 12//12 14//14 13//13
f 14//14 16//16 15//15
f 16//16 18//18 17//17
f 18//18 20//20 19//19
f 20//20 22//22 21//21
f 22//22 24//24 23//23
f 24//24 26//26 25//25
f 26//26 28//28 27//27
f 28//28 30//30 29//29
f 6//6 4//4 2//2
f 2//2 32//32 30//30
f 30//30 28//28 26//26
f 26//26 24//24 22//22
f 22//22 20//20 18//18
f 18//18 16//16 14//14
f 14//14 12//12 10//10
f 10//10 8//8 6//6
f 6//6 2//2 30//30
f 30//30 26//26 6//6
f 26//26 22//22 6//6
f 22//22 18//18 14//14
f 14//14 10//10 22//22
f 30//30 32//32 31//31
f 32//32 2//2 1//1
f 31//31 1//1 3//3
f 3//3 5//5 7//7
f 7//7 9//9 11//11
f 11//11 13//13 15//15
f 15//15 17//17 19//19
f 19//19 21//21 23//23
f 23//23 25//25 27//27
f 27//27 29//29 31//31
f 31//31 3//3 7//7
f 7//7 11//11 31//31
f 11//11 15//15 31//31
f 15//15 19//19 23//23
f 23//23 27//27 15//15
