v 0.07045513 0.00881870 0.00223851
v 0.06710991 0.00357911 0.00066375
v 0.07071577 0.00861487 0.00236304
v 0.06737056 0.00337528 0.00078828
v 0.07101466 0.00842619 0.00235590
v 0.06766944 0.00318660 0.00078114
v 0.07130630 0.00828139 0.00221818
v 0.06796107 0.00304180 0.00064342
v 0.07154627 0.00820250 0.00197085
v 0.06820106 0.00296292 0.00039610
v 0.07169807 0.00820155 0.00165157
v 0.06835286 0.00296196 0.00007681
v 0.07173857 0.00827867 0.00130894
v 0.06839335 0.00303908 -0.00026582
v 0.07166161 0.00842213 0.00099512
v 0.06831639 0.00318254 -0.00057964
v 0.07147890 0.00861008 0.00075789
v 0.06813368 0.00337049 -0.00081686
v 0.07121826 0.00881390 0.00063337
v 0.06787305 0.00357432 -0.00094139
v 0.07091937 0.00900258 0.00064051
v 0.06757416 0.00376299 -0.00093425
v 0.07062774 0.00914739 0.00077823
v 0.06728252 0.00390780 -0.00079653
v 0.07038776 0.00922627 0.00102555
v 0.06704254 0.00398668 -0.00054921
v 0.07023596 0.00922722 0.00134484
v 0.06689075 0.00398764 -0.00022992
v 0.07019547 0.00915010 0.00168747
v 0.06685024 0.00391051 0.00011271
v 0.07027242 0.00900665 0.00200128
v 0.06692721 0.00376706 0.00042653
vn -0.074294 0.629838 0.773166
vn -0.768837 -0.458004 0.446231
vn 0.140346 0.461961 0.875725
vn -0.554187 -0.625889 0.548762
vn 0.386500 0.306568 0.869847
vn -0.308029 -0.781271 0.542894
vn 0.626681 0.187307 0.756430
vn -0.067857 -0.900531 0.429464
vn 0.824325 0.122365 0.552735
vn 0.129805 -0.965489 0.225792
vn 0.949340 0.121562 0.289786
vn 0.254794 -0.966281 -0.037172
vn 0.982695 0.185074 0.007604
vn 0.288177 -0.902758 -0.319347
vn 0.919310 0.303228 -0.250842
vn 0.224762 -0.784623 -0.577797
vn 0.768839 0.458022 -0.446209
vn 0.074314 -0.629821 -0.773177
vn 0.554186 0.625879 -0.548775
vn -0.140357 -0.461971 -0.875718
vn 0.308030 0.781268 -0.542898
vn -0.386503 -0.306570 -0.869845
vn 0.067844 0.900523 -0.429483
vn -0.626687 -0.187328 -0.756420
vn -0.129780 0.965495 -0.225778
vn -0.824327 -0.122336 -0.552738
vn -0.254808 0.966277 0.037164
vn -0.949338 -0.121579 -0.289785
vn -0.288165 0.902762 0.319345
vn -0.982697 -0.185063 -0.007597
vn -0.224772 0.784621 0.577795
vn -0.919307 -0.303238 0.250840
f 2//2 3//3 1//1
f 4//4 5//5 3//3
f 6//6 7//7 5//5
f 8//8 9//9 7//7
f 10//10 11//11 9//9
f 12//12 13//13 11//11
f 14//14 15//15 13//13
f 16//16 17//17 15//15
f 18//18 19//19 17//17
f 20//20 21//21 19//19
f 22//22 23//23 21//21
f 24//24 25//25 23//23
f 26//26 27//27 25//25
f 28//28 29//29 27//27
f 22//22 14//14 6//6
f 30//30 31//31 29//29
f 32//32 1//1 31//31
f 15//15 23//23 31//31
f 2//2 4//4 3//3
f 4//4 6//6 5//5
f 6//6 8//8 7//7
f 8//8 10//10 9//9
f 10//10 12//12 11//11
f 12//12 14//14 13//13
f 14//14 16//16 15//15
f 16//16 18//18 17//17
f 18//18 20//20 19//19
f 20//20 22//22 21//21
f 22//22 24//24 23//23
f 24//24 26//26 25//25
f 26//26 28//28 27//27
f 28//28 30//30 29//29
f 6//6 4//4 2//2
f 2//2 32//32 30//30
f 30//30 28//28 26//26
f 26//26 24//24 22//22
f 22//22 20//20 18//18
f 18//18 16//16 14//14
f 14//14 12//12 10//10
f 10//10 8//8 6//6
f 6//6 2//2 30//30
f 30//30 26//26 22//22
f 22//22 18//18 14//14
f 14//14 10//10 6//6
f 6//6 30//30 22//22
f 30//30 32//32 31//31
f 32//32 2//2 1//1
f 31//31 1//1 3//3
f 3//3 5//5 31//31
f 5//5 7//7 31//31
f 7//7 9//9 11//11
f 11//11 13//13 7//7
f 13//13 15//15 7//7
f 15//15 17//17 19//19
f 19//19 21//21 15//15
f 21//21 23//23 15//15
f 23//23 25//25 27//27
f 27//27 29//29 23//23
f 29//29 31//31 23//23
f 31//31 7//7 15//15
