v 0.02320004 -0.00064348 0.00553399
v 0.01935813 0.00433577 -0.00088238
v 0.02045987 -0.00229288 0.00513067
v 0.01716583 0.00269439 -0.00227877
v 0.01710756 -0.00251022 -0.00235211
v 0.01718284 -0.00467291 0.00214487
v 0.01713384 0.00143316 -0.00306798
v 0.02567244 -0.00015860 -0.00290173
v 0.02565686 0.00083021 0.00521664
v 0.01915618 -0.00463818 0.00386074
v 0.01718260 -0.00242222 0.00459094
v 0.01716815 0.00153946 0.00454220
v 0.02485347 -0.00370813 -0.00156256
v 0.01912172 0.00456029 0.00074395
v 0.01718410 0.00338888 -0.00110365
v 0.01724816 -0.00103583 -0.00315074
v 0.02570991 -0.00292750 -0.00181950
v 0.02572483 -0.00197364 0.00532946
v 0.02359222 -0.00517738 0.00292481
v 0.02567220 0.00351799 -0.00141233
v 0.02098438 0.00377988 -0.00254191
v 0.01708916 0.00380855 0.00225456
v 0.01834234 -0.00312592 -0.00268835
v 0.02012712 -0.00528779 0.00043655
v 0.01969052 0.00428130 0.00352822
v 0.02562849 -0.00449183 0.00317816
v 0.01882227 -0.00528204 0.00317005
v 0.02001017 0.00181086 0.00496101
v 0.02151865 -0.00390660 -0.00242850
v 0.01847093 0.00340552 -0.00264556
v 0.02255501 0.00404711 -0.00206688
v 0.01993448 -0.00458883 -0.00141187
v 0.02564209 0.00295196 -0.00194459
v 0.02076980 -0.00552342 0.00309207
v 0.02564244 0.00295333 0.00335109
v 0.02267542 0.00436662 0.00305154
v 0.01718477 -0.00040837 0.00504299
vn -0.008884 0.012010 0.999888
vn -0.164706 0.955815 -0.243495
vn -0.067952 -0.300109 0.951481
vn -0.830134 0.398730 -0.389734
vn -0.811454 -0.406218 -0.420154
vn -0.775577 -0.629060 0.052568
vn -0.675472 0.137501 -0.724452
vn 0.679250 -0.014078 -0.733772
vn 0.663890 0.263743 0.699778
vn -0.154412 -0.579313 0.800346
vn -0.728497 -0.274703 0.627558
vn -0.727223 0.285655 0.624137
vn 0.356871 -0.790615 -0.497565
vn -0.175257 0.983522 -0.044375
vn -0.792946 0.580135 -0.186225
vn -0.573968 -0.109516 -0.811522
vn 0.762026 -0.395930 -0.512403
vn 0.662668 -0.241712 0.708835
vn 0.213570 -0.937860 0.273509
vn 0.719703 0.642984 -0.261913
vn 0.009813 0.623985 -0.781375
vn -0.767555 0.608907 0.200230
vn -0.276298 -0.587394 -0.760676
vn -0.055426 -0.965771 -0.253407
vn -0.129528 0.821431 0.555405
vn 0.687547 -0.672023 0.275071
vn -0.304889 -0.877109 0.371110
vn -0.065622 0.349584 0.934604
vn 0.106040 -0.642712 -0.758734
vn -0.232640 0.638519 -0.733603
vn 0.160068 0.831432 -0.532070
vn -0.153389 -0.874464 -0.460200
vn 0.700832 0.332912 -0.630876
vn 0.034565 -0.924454 0.379723
vn 0.748655 0.563433 0.349369
vn 0.185260 0.897710 0.399744
vn -0.695216 0.006722 0.718769
f 1//1 3//3 18//18
f 28//28 37//37 1//1
f 37//37 3//3 1//1
f 3//3 10//10 18//18
f 26//26 17//17 18//18
f 9//9 1//1 18//18
f 12//12 22//22 37//37
f 22//22 11//11 37//37
f 11//11 3//3 37//37
f 28//28 12//12 37//37
f 10//10 34//34 18//18
f 34//34 26//26 18//18
f 20//20 35//35 18//18
f 35//35 9//9 18//18
f 7//7 30//30 21//21
f 10//10 3//3 11//11
f 25//25 14//14 22//22
f 14//14 15//15 22//22
f 15//15 7//7 22//22
f 7//7 5//5 22//22
f 25//25 22//22 12//12
f 27//27 34//34 10//10
f 19//19 26//26 34//34
f 27//27 10//10 11//11
f 2//2 15//15 14//14
f 17//17 29//29 8//8
f 33//33 20//20 8//8
f 25//25 28//28 9//9
f 6//6 27//27 11//11
f 32//32 6//6 5//5
f 4//4 7//7 15//15
f 16//16 5//5 7//7
f 23//23 5//5 16//16
f 34//34 24//24 19//19
f 13//13 17//17 26//26
f 29//29 17//17 13//13
f 9//9 36//36 25//25
f 35//35 36//36 9//9
f 36//36 14//14 25//25
f 31//31 2//2 14//14
f 21//21 30//30 2//2
f 30//30 15//15 2//2
f 30//30 4//4 15//15
f 30//30 7//7 4//4
f 27//27 24//24 34//34
f 29//29 16//16 8//8
f 29//29 23//23 16//16
f 7//7 8//8 16//16
f 7//7 21//21 8//8
f 31//31 33//33 21//21
f 21//21 2//2 31//31
f 1//1 9//9 28//28
f 29//29 24//24 32//32
f 23//23 29//29 32//32
f 12//12 28//28 25//25
f 31//31 20//20 33//33
f 6//6 24//24 27//27
f 19//19 29//29 13//13
f 33//33 8//8 21//21
f 20//20 17//17 8//8
f 11//11 5//5 6//6
f 36//36 31//31 14//14
f 20//20 36//36 35//35
f 32//32 5//5 23//23
f 13//13 26//26 19//19
f 6//6 32//32 24//24
f 19//19 24//24 29//29
f 11//11 22//22 5//5
f 36//36 20//20 31//31
f 17//17 20//20 18//18
