v -0.08881243 -0.00656143 -0.00459857
v -0.09597243 -0.00690772 -0.00264093
v -0.08871168 -0.00673751 -0.00426124
v -0.09587168 -0.00708379 -0.00230360
v -0.08863034 -0.00703472 -0.00401631
v -0.09579034 -0.00738101 -0.00205867
v -0.08858079 -0.00740783 -0.00390107
v -0.09574079 -0.00775412 -0.00194344
v -0.08857056 -0.00780002 -0.00393307
v -0.09573057 -0.00814631 -0.00197543
v -0.08860123 -0.00815159 -0.00410742
v -0.09576123 -0.00849788 -0.00214978
v -0.08866812 -0.00840902 -0.00439759
v -0.09582812 -0.00875531 -0.00243996
v -0.08876104 -0.00853311 -0.00475941
v -0.09592104 -0.00887940 -0.00280177
v -0.08886585 -0.00850498 -0.00513778
v -0.09602585 -0.00885126 -0.00318014
v -0.08896660 -0.00832890 -0.00547511
v -0.09612660 -0.00867519 -0.00351747
v -0.08904794 -0.00803168 -0.00572003
v -0.09620794 -0.00837797 -0.00376240
v -0.08909749 -0.00765858 -0.00583527
v -0.09625749 -0.00800486 -0.00387764
v -0.08910771 -0.00726639 -0.00580328
v -0.09626772 -0.00761267 -0.00384564
v -0.08907705 -0.00691481 -0.00562892
v -0.09623705 -0.00726110 -0.00367129
v -0.08901016 -0.00665739 -0.00533875
v -0.09617016 -0.00700367 -0.00338111
v -0.08891724 -0.00653329 -0.00497694
v -0.09607724 -0.00687958 -0.00301930
vn 0.661213 0.749813 0.024037
vn -0.621671 0.687785 0.374802
vn 0.735713 0.619588 0.273564
vn -0.547174 0.557526 0.624312
vn 0.795897 0.399734 0.454710
vn -0.486996 0.337690 0.805482
vn 0.832531 0.123761 0.539977
vn -0.450356 0.061710 0.890714
vn 0.840109 -0.166332 0.516286
vn -0.442772 -0.228385 0.867060
vn 0.817409 -0.426391 0.387341
vn -0.465480 -0.488427 0.738084
vn 0.767952 -0.616789 0.172688
vn -0.514929 -0.678854 0.523456
vn 0.699208 -0.708588 -0.094927
vn -0.583687 -0.770623 0.255830
vn 0.621693 -0.687766 -0.374801
vn -0.661194 -0.749829 -0.024050
vn 0.547152 -0.557543 -0.624316
vn -0.735732 -0.619572 -0.273549
vn 0.487011 -0.337687 -0.805473
vn -0.795888 -0.399735 -0.454725
vn 0.450328 -0.061717 -0.890727
vn -0.832548 -0.123756 -0.539952
vn 0.442797 0.228379 -0.867049
vn -0.840093 0.166341 -0.516308
vn 0.465456 0.488435 -0.738093
vn -0.817424 0.426380 -0.387321
vn 0.514956 0.678836 -0.523452
vn -0.767931 0.616810 -0.172705
vn 0.583674 0.770633 -0.255830
vn -0.699219 0.708577 0.094933
f 2//2 3//3 1//1
f 4//4 5//5 3//3
f 6//6 7//7 5//5
f 8//8 9//9 7//7
f 10//10 11//11 9//9
f 12//12 13//13 11//11
f 14//14 15//15 13//13
f 16//16 17//17 15//15
f 18//18 19//19 17//17
f 20//20 21//21 19//19
f 22//22 23//23 21//21
f 24//24 25//25 23//23
f 26//26 27//27 25//25
f 28//28 29//29 27//27
f 22//22 14//14 6//6
f 30//30 31//31 29//29
f 32//32 1//1 31//31
f 15//15 23//23 31//31
f 2//2 4//4 3//3
f 4//4 6//6 5//5
f 6//6 8//8 7//7
f 8//8 10//10 9//9
f 10//10 12//12 11//11
f 12//12 14//14 13//13
f 14//14 16//16 15//15
f 16//16 18//18 17//17
f 18//18 20//20 19//19
f 20//20 22//22 21//21
f 22//22 24//24 23//23
f 24//24 26//26 25//25
f 26//26 28//28 27//27
f 28//28 30//30 29//29
f 6//6 4//4 2//2
f 2//2 32//32 30//30
f 30//30 28//28 26//26
f 26//26 24//24 22//22
f 22//22 20//20 18//18
f 18//18 16//16 14//14
f 14//14 12//12 10//10
f 10//10 8//8 6//6
f 6//6 2//2 30//30
f 30//30 26//26 22//22
f 22//22 18//18 14//14
f 14//14 10//10 6//6
f 6//6 30//30 22//22
f 30//30 32//32 31//31
f 32//32 2//2 1//1
f 31//31 1//1 3//3
f 3//3 5//5 7//7
f 7//7 9//9 11//11
f 11//11 13//13 15//15
f 15//15 17//17 19//19
f 19//19 21//21 23//23
f 23//23 25//25 27//27
f 27//27 29//29 31//31
f 31//31 3//3 7//7
f 7//7 11//11 15//15
f 15//15 19//19 23//23
f 23//23 27//27 31//31
f 31//31 7//7 15//15
