v -0.03844900 -0.00374705 -0.00088658
v -0.04284200 -0.00886362 0.00065602
v -0.03817910 -0.00391924 -0.00068910
v -0.04257210 -0.00903581 0.00085351
v -0.03788854 -0.00414935 -0.00062489
v -0.04228155 -0.00926592 0.00091772
v -0.03762156 -0.00440234 -0.00070373
v -0.04201457 -0.00951891 0.00083888
v -0.03741881 -0.00463970 -0.00091360
v -0.04181181 -0.00975627 0.00062901
v -0.03731114 -0.00482529 -0.00122257
v -0.04170415 -0.00994186 0.00032004
v -0.03731496 -0.00493086 -0.00158360
v -0.04170797 -0.01004743 -0.00004099
v -0.03742968 -0.00494033 -0.00194171
v -0.04182269 -0.01005690 -0.00039910
v -0.03763784 -0.00485226 -0.00224240
v -0.04203085 -0.00996883 -0.00069979
v -0.03790774 -0.00468007 -0.00243988
v -0.04230075 -0.00979664 -0.00089727
v -0.03819830 -0.00444996 -0.00250409
v -0.04259131 -0.00956653 -0.00096148
v -0.03846528 -0.00419697 -0.00242526
v -0.04285828 -0.00931354 -0.00088265
v -0.03866803 -0.00395961 -0.00221538
v -0.04306104 -0.00907618 -0.00067277
v -0.03877569 -0.00377402 -0.00190641
v -0.04316870 -0.00889059 -0.00036380
v -0.03877188 -0.00366845 -0.00154539
v -0.04316488 -0.00878502 -0.00000278
v -0.03865715 -0.00365898 -0.00118727
v -0.04305016 -0.00877555 0.00035534
vn 0.108806 0.920098 0.376272
vn -0.736663 -0.064622 0.673166
vn 0.317719 0.786816 0.529127
vn -0.527760 -0.197930 0.826010
vn 0.542624 0.608713 0.578816
vn -0.302856 -0.376027 0.875718
vn 0.749264 0.412879 0.517816
vn -0.096220 -0.571856 0.814691
vn 0.906203 0.229161 0.355361
vn 0.060740 -0.755566 0.652251
vn 0.989537 0.085512 0.116210
vn 0.144046 -0.899223 0.413096
vn 0.986580 0.003817 -0.163234
vn 0.141120 -0.980929 0.133653
vn 0.897785 -0.003523 -0.440420
vn 0.052293 -0.988264 -0.143527
vn 0.736667 0.064630 -0.673161
vn -0.108801 -0.920095 -0.376281
vn 0.527756 0.197915 -0.826016
vn -0.317730 -0.786819 -0.529115
vn 0.302867 0.376036 -0.875710
vn -0.542620 -0.608704 -0.578829
vn 0.096203 0.571843 -0.814703
vn -0.749271 -0.412893 -0.517796
vn -0.060730 0.755567 -0.652250
vn -0.906203 -0.229152 -0.355366
vn -0.144062 0.899219 -0.413099
vn -0.989537 -0.085526 -0.116201
vn -0.141089 0.980932 -0.133661
vn -0.986581 -0.003785 0.163231
vn -0.052302 0.988263 0.143528
vn -0.897784 0.003515 0.440422
f 2//2 3//3 1//1
f 4//4 5//5 3//3
f 6//6 7//7 5//5
f 8//8 9//9 7//7
f 10//10 11//11 9//9
f 12//12 13//13 11//11
f 14//14 15//15 13//13
f 16//16 17//17 15//15
f 18//18 19//19 17//17
f 20//20 21//21 19//19
f 22//22 23//23 21//21
f 24//24 25//25 23//23
f 26//26 27//27 25//25
f 28//28 29//29 27//27
f 22//22 14//14 6//6
f 30//30 31//31 29//29
f 32//32 1//1 31//31
f 15//15 23//23 31//31
f 2//2 4//4 3//3
f 4//4 6//6 5//5
f 6//6 8//8 7//7
f 8//8 10//10 9//9
f 10//10 12//12 11//11
f 12//12 14//14 13//13
f 14//14 16//16 15//15
f 16//16 18//18 17//17
f 18//18 20//20 19//19
f 20//20 22//22 21//21
f 22//22 24//24 23//23
f 24//24 26//26 25//25
f 26//26 28//28 27//27
f 28//28 30//30 29//29
f 6//6 4//4 2//2
f 2//2 32//32 30//30
f 30//30 28//28 26//26
f 26//26 24//24 22//22
f 22//22 20//20 18//18
f 18//18 16//16 14//14
f 14//14 12//12 10//10
f 10//10 8//8 6//6
f 6//6 2//2 30//30
f 30//30 26//26 22//22
f 22//22 18//18 14//14
f 14//14 10//10 6//6
f 6//6 30//30 22//22
f 30//30 32//32 31//31
f 32//32 2//2 1//1
f 31//31 1//1 7//7
f 1//1 3//3 7//7
f 3//3 5//5 7//7
f 7//7 9//9 15//15
f 9//9 11//11 15//15
f 11//11 13//13 15//15
f 15//15 17//17 23//23
f 17//17 19//19 23//23
f 19//19 21//21 23//23
f 23//23 25//25 31//31
f 25//25 27//27 31//31
f 27//27 29//29 31//31
f 31//31 7//7 15//15
