v -0.02654277 0.00572174 -0.00266741
v -0.03121672 0.01140392 -0.00167862
v -0.02628889 0.00586950 -0.00231646
v -0.03096284 0.01155168 -0.00132767
v -0.02614960 0.00590852 -0.00188225
v -0.03082354 0.01159070 -0.00089346
v -0.02614610 0.00583285 -0.00143089
v -0.03082005 0.01151503 -0.00044210
v -0.02627894 0.00565401 -0.00103110
v -0.03095289 0.01133620 -0.00004231
v -0.02652788 0.00539924 -0.00074374
v -0.03120183 0.01108142 0.00024505
v -0.02685503 0.00510731 -0.00061256
v -0.03152898 0.01078949 0.00037623
v -0.02721059 0.00482267 -0.00065753
v -0.03188454 0.01050485 0.00033126
v -0.02754041 0.00458865 -0.00087180
v -0.03221436 0.01027083 0.00011699
v -0.02779430 0.00444089 -0.00122275
v -0.03246824 0.01012307 -0.00023396
v -0.02793359 0.00440187 -0.00165696
v -0.03260754 0.01008405 -0.00066817
v -0.02793708 0.00447754 -0.00210831
v -0.03261103 0.01015972 -0.00111953
v -0.02780425 0.00465637 -0.00250810
v -0.03247819 0.01033856 -0.00151932
v -0.02755530 0.00491115 -0.00279546
v -0.03222925 0.01059333 -0.00180668
v -0.02722815 0.00520308 -0.00292665
v -0.03190210 0.01088526 -0.00193786
v -0.02687260 0.00548772 -0.00288168
v -0.03154655 0.01116990 -0.00189289
vn 0.736471 -0.149137 -0.659825
vn -0.101783 0.869962 -0.482501
vn 0.897983 -0.055106 -0.436566
vn 0.059708 0.963971 -0.259218
vn 0.986598 -0.030311 -0.160331
vn 0.148336 0.988791 0.017007
vn 0.988822 -0.078419 0.126815
vn 0.150542 0.940655 0.304147
vn 0.904315 -0.192219 0.381139
vn 0.066062 0.826877 0.558490
vn 0.745940 -0.354279 0.563968
vn -0.092335 0.664804 0.741289
vn 0.537823 -0.540015 0.647403
vn -0.300438 0.479068 0.824761
vn 0.311622 -0.721088 0.618808
vn -0.526649 0.298009 0.796136
vn 0.101807 -0.869968 0.482485
vn -0.736467 0.149110 0.659835
vn -0.059733 -0.963966 0.259232
vn -0.897985 0.055134 0.436559
vn -0.148322 -0.988793 -0.017009
vn -0.986599 0.030296 0.160330
vn -0.150575 -0.940649 -0.304148
vn -0.988820 0.078451 -0.126806
vn -0.066038 -0.826886 -0.558479
vn -0.904313 0.192196 -0.381155
vn 0.092310 -0.664793 -0.741302
vn -0.745943 0.354302 -0.563949
vn 0.300454 -0.479089 -0.824743
vn -0.537809 0.540000 -0.647427
vn 0.526640 -0.297998 -0.796145
vn -0.311628 0.721096 -0.618795
f 2//2 3//3 1//1
f 4//4 5//5 3//3
f 6//6 7//7 5//5
f 8//8 9//9 7//7
f 10//10 11//11 9//9
f 12//12 13//13 11//11
f 14//14 15//15 13//13
f 16//16 17//17 15//15
f 18//18 19//19 17//17
f 20//20 21//21 19//19
f 22//22 23//23 21//21
f 24//24 25//25 23//23
f 26//26 27//27 25//25
f 28//28 29//29 27//27
f 22//22 14//14 6//6
f 30//30 31//31 29//29
f 32//32 1//1 31//31
f 15//15 23//23 31//31
f 2//2 4//4 3//3
f 4//4 6//6 5//5
f 6//6 8//8 7//7
f 8//8 10//10 9//9
f 10//10 12//12 11//11
f 12//12 14//14 13//13
f 14//14 16//16 15//15
f 16//16 18//18 17//17
f 18//18 20//20 19//19
f 20//20 22//22 21//21
f 22//22 24//24 23//23
f 24//24 26//26 25//25
f 26//26 28//28 27//27
f 28//28 30//30 29//29
f 6//6 4//4 2//2
f 2//2 32//32 30//30
f 30//30 28//28 26//26
f 26//26 24//24 22//22
f 22//22 20//20 18//18
f 18//18 16//16 14//14
f 14//14 12//12 10//10
f 10//10 8//8 6//6
f 6//6 2//2 30//30
f 30//30 26//26 22//22
f 22//22 18//18 14//14
f 14//14 10//10 6//6
f 6//6 30//30 22//22
f 30//30 32//32 31//31
f 32//32 2//2 1//1
f 31//31 1//1 3//3
f 3//3 5//5 7//7
f 7//7 9//9 11//11
f 11//11 13//13 15//15
f 15//15 17//17 19//19
f 19//19 21//21 23//23
f 23//23 25//25 27//27
f 27//27 29//29 31//31
f 31//31 3//3 7//7
f 7//7 11//11 15//15
f 15//15 19//19 23//23
f 23//23 27//27 31//31
f 31//31 7//7 15//15
