v -0.03668261 0.00650608 -0.00228571
v -0.04242406 0.01103225 -0.00030108
v -0.03647466 0.00660103 -0.00190064
v -0.04221611 0.01112720 0.00008399
v -0.03636106 0.00655621 -0.00146979
v -0.04210251 0.01108238 0.00051484
v -0.03635911 0.00637846 -0.00105877
v -0.04210056 0.01090463 0.00092586
v -0.03646910 0.00609484 -0.00073014
v -0.04221055 0.01062100 0.00125449
v -0.03667430 0.00574851 -0.00053394
v -0.04241575 0.01027468 0.00145069
v -0.03694345 0.00539222 -0.00050003
v -0.04268491 0.00991839 0.00148460
v -0.03723560 0.00508020 -0.00063358
v -0.04297705 0.00960637 0.00135105
v -0.03750624 0.00485995 -0.00091426
v -0.04324770 0.00938612 0.00107037
v -0.03771420 0.00476501 -0.00129933
v -0.04345565 0.00929118 0.00068530
v -0.03782780 0.00480982 -0.00173018
v -0.04356925 0.00933599 0.00025446
v -0.03782975 0.00498757 -0.00214120
v -0.04357120 0.00951374 -0.00015657
v -0.03771975 0.00527120 -0.00246983
v -0.04346120 0.00979737 -0.00048520
v -0.03751456 0.00561752 -0.00266603
v -0.04325601 0.01014369 -0.00068140
v -0.03724540 0.00597382 -0.00269994
v -0.04298685 0.01049998 -0.00071530
v -0.03695326 0.00628584 -0.00256639
v -0.04269471 0.01081201 -0.00058175
vn 0.772290 0.137380 -0.620238
vn -0.236771 0.932876 -0.271445
vn 0.907488 0.199137 -0.369877
vn -0.101591 0.994603 -0.021068
vn 0.981353 0.169972 -0.089758
vn -0.027717 0.965466 0.259049
vn 0.982616 0.054432 0.177489
vn -0.026465 0.849898 0.526282
vn 0.911106 -0.129998 0.391135
vn -0.097954 0.665489 0.739953
vn 0.777687 -0.355150 0.518722
vn -0.231391 0.440329 0.867507
vn 0.602701 -0.586811 0.540744
vn -0.406366 0.208661 0.889566
vn 0.412751 -0.789675 0.453927
vn -0.596327 0.005816 0.802721
vn 0.236795 -0.932874 0.271430
vn -0.772282 -0.137407 0.620241
vn 0.101565 -0.994605 0.021081
vn -0.907495 -0.199109 0.369876
vn 0.027732 -0.965466 -0.259049
vn -0.981351 -0.169986 0.089753
vn 0.026433 -0.849898 -0.526284
vn -0.982621 -0.054404 -0.177474
vn 0.097980 -0.665496 -0.739943
vn -0.911100 0.129980 -0.391156
vn 0.231367 -0.440319 -0.867519
vn -0.777695 0.355165 -0.518699
vn 0.406385 -0.208683 -0.889552
vn -0.602683 0.586805 -0.540770
vn 0.596317 -0.005805 -0.802729
vn -0.412760 0.789679 -0.453913
f 2//2 3//3 1//1
f 4//4 5//5 3//3
f 6//6 7//7 5//5
f 8//8 9//9 7//7
f 10//10 11//11 9//9
f 12//12 13//13 11//11
f 14//14 15//15 13//13
f 16//16 17//17 15//15
f 18//18 19//19 17//17
f 20//20 21//21 19//19
f 22//22 23//23 21//21
f 24//24 25//25 23//23
f 26//26 27//27 25//25
f 28//28 29//29 27//27
f 22//22 14//14 6//6
f 30//30 31//31 29//29
f 32//32 1//1 31//31
f 15//15 23//23 31//31
f 2//2 4//4 3//3
f 4//4 6//6 5//5
f 6//6 8//8 7//7
f 8//8 10//10 9//9
f 10//10 12//12 11//11
f 12//12 14//14 13//13
f 14//14 16//16 15//15
f 16//16 18//18 17//17
f 18//18 20//20 19//19
f 20//20 22//22 21//21
f 22//22 24//24 23//23
f 24//24 26//26 25//25
f 26//26 28//28 27//27
f 28//28 30//30 29//29
f 6//6 4//4 2//2
f 2//2 32//32 30//30
f 30//30 28//28 26//26
f 26//26 24//24 22//22
f 22//22 20//20 18//18
f 18//18 16//16 14//14
f 14//14 12//12 10//10
f 10//10 8//8 6//6
f 6//6 2//2 30//30
f 30//30 26//26 22//22
f 22//22 18//18 14//14
f 14//14 10//10 6//6
f 6//6 30//30 22//22
f 30//30 32//32 31//31
f 32//32 2//2 1//1
f 31//31 1//1 3//3
f 3//3 5//5 7//7
f 7//7 9//9 11//11
f 11//11 13//13 15//15
f 15//15 17//17 19//19
f 19//19 21//21 23//23
f 23//23 25//25 27//27
f 27//27 29//29 31//31
f 31//31 3//3 7//7
f 7//7 11//11 15//15
f 15//15 19//19 23//23
f 23//23 27//27 31//31
f 31//31 7//7 15//15
