v 0.02772070 -0.00294124 -0.00288782
v 0.03431167 0.00025108 0.00486787
v 0.02549389 0.00346965 -0.00169981
v 0.02922744 -0.00541457 -0.00001685
v 0.03423787 0.00210239 0.00414973
v 0.02802092 0.00313436 -0.00283831
v 0.02539589 -0.00224201 0.00514881
v 0.02707068 -0.00314773 0.00526789
v 0.03436800 0.00051122 -0.00279129
v 0.02732519 0.00261357 0.00498044
v 0.02550361 -0.00453522 0.00316572
v 0.03020739 0.00417573 -0.00224605
v 0.02942333 0.00452024 -0.00003109
v 0.03431470 -0.00252406 0.00463630
v 0.02547341 -0.00013595 -0.00274220
v 0.02684963 0.00363712 0.00430634
v 0.02606157 0.00073507 -0.00300172
v 0.03225819 -0.00553699 0.00280181
v 0.03023774 -0.00375049 -0.00258112
v 0.02543615 0.00302854 0.00298564
v 0.03372197 0.00401393 -0.00123628
v 0.02625522 -0.00050191 -0.00307255
v 0.02547924 0.00056419 0.00529879
v 0.02904238 -0.00469012 -0.00184218
v 0.03428334 0.00326892 0.00316277
v 0.03434922 0.00314435 -0.00174665
v 0.03424101 -0.00367773 -0.00162157
v 0.03429136 -0.00478637 0.00285431
v 0.02745974 0.00079926 0.00558829
v 0.03336802 0.00382118 0.00307669
v 0.02550321 -0.00309552 -0.00184473
v 0.02962166 -0.00545571 0.00372853
v 0.02854544 0.00413022 0.00394455
v 0.02753159 -0.00139685 0.00584334
v 0.02716375 -0.00544727 0.00390857
vn -0.157777 -0.361986 -0.918734
vn 0.717242 0.109810 0.688118
vn -0.709302 0.600240 -0.369597
vn -0.090905 -0.963349 -0.252378
vn 0.662785 0.364299 0.654219
vn -0.114580 0.427810 -0.896577
vn -0.764586 -0.201242 0.612299
vn -0.105989 -0.415448 0.903421
vn 0.697583 0.035038 -0.715647
vn -0.069774 0.422240 0.903795
vn -0.797654 -0.592860 0.110744
vn 0.050620 0.772662 -0.632797
vn -0.069924 0.997068 -0.031071
vn 0.712590 -0.247285 0.656556
vn -0.821390 -0.035195 -0.569281
vn -0.355885 0.765158 0.536543
vn -0.338806 0.155573 -0.927905
vn 0.234097 -0.943748 0.233534
vn 0.109928 -0.463760 -0.879114
vn -0.843269 0.510308 0.168768
vn 0.450936 0.842338 -0.295167
vn -0.234236 -0.108897 -0.966062
vn -0.724147 0.168136 0.668836
vn -0.106139 -0.819877 -0.562616
vn 0.777723 0.527397 0.342052
vn 0.763496 0.408744 -0.500003
vn 0.695143 -0.509892 -0.506740
vn 0.726535 -0.640788 0.248068
vn -0.021196 0.220982 0.975048
vn 0.285749 0.861299 0.420133
vn -0.761507 -0.463629 -0.452941
vn 0.079706 -0.825486 0.558767
vn -0.022106 0.866755 0.498245
vn -0.039541 -0.102135 0.993984
vn -0.263048 -0.865249 0.426791
f 31//31 11//11 7//7
f 11//11 35//35 7//7
f 35//35 8//8 7//7
f 8//8 34//34 7//7
f 23//23 20//20 7//7
f 15//15 31//31 7//7
f 34//34 29//29 23//23
f 29//29 10//10 23//23
f 16//16 20//20 23//23
f 16//16 3//3 20//20
f 18//18 35//35 4//4
f 1//1 19//19 24//24
f 10//10 16//16 23//23
f 13//13 12//12 3//3
f 12//12 6//6 3//3
f 6//6 17//17 3//3
f 17//17 15//15 3//3
f 15//15 22//22 31//31
f 22//22 1//1 31//31
f 1//1 24//24 31//31
f 27//27 18//18 4//4
f 28//28 32//32 18//18
f 32//32 35//35 18//18
f 19//19 27//27 24//24
f 32//32 8//8 35//35
f 14//14 34//34 8//8
f 10//10 5//5 33//33
f 5//5 30//30 33//33
f 33//33 30//30 13//13
f 17//17 22//22 15//15
f 14//14 32//32 28//28
f 2//2 29//29 34//34
f 14//14 2//2 34//34
f 25//25 30//30 5//5
f 10//10 33//33 16//16
f 27//27 14//14 28//28
f 27//27 9//9 14//14
f 9//9 26//26 14//14
f 26//26 25//25 14//14
f 25//25 2//2 14//14
f 29//29 2//2 10//10
f 9//9 22//22 6//6
f 26//26 12//12 21//21
f 6//6 22//22 17//17
f 30//30 25//25 21//21
f 9//9 19//19 1//1
f 19//19 9//9 27//27
f 6//6 12//12 9//9
f 12//12 26//26 9//9
f 25//25 5//5 2//2
f 9//9 1//1 22//22
f 16//16 13//13 3//3
f 20//20 15//15 7//7
f 26//26 21//21 25//25
f 28//28 18//18 27//27
f 4//4 31//31 24//24
f 13//13 21//21 12//12
f 35//35 11//11 4//4
f 23//23 7//7 34//34
f 27//27 4//4 24//24
f 10//10 2//2 5//5
f 14//14 8//8 32//32
f 16//16 33//33 13//13
f 20//20 3//3 15//15
f 4//4 11//11 31//31
f 13//13 30//30 21//21
