v 0.03901596 -0.01137774 -0.00086705
v 0.03818666 -0.00488489 -0.00172314
v 0.03940351 -0.01131102 -0.00073648
v 0.03857422 -0.00481817 -0.00159258
v 0.03970911 -0.01123643 -0.00046678
v 0.03887981 -0.00474358 -0.00132287
v 0.03988623 -0.01116531 -0.00009899
v 0.03905693 -0.00467246 -0.00095508
v 0.03990790 -0.01110850 0.00031088
v 0.03907860 -0.00461565 -0.00054521
v 0.03977083 -0.01107464 0.00070045
v 0.03894154 -0.00458179 -0.00015565
v 0.03949589 -0.01106890 0.00101039
v 0.03866659 -0.00457604 0.00015430
v 0.03912492 -0.01109213 0.00119353
v 0.03829563 -0.00459928 0.00033744
v 0.03871442 -0.01114081 0.00122199
v 0.03788512 -0.00464796 0.00036590
v 0.03832686 -0.01120752 0.00109143
v 0.03749757 -0.00471467 0.00023533
v 0.03802127 -0.01128212 0.00082172
v 0.03719197 -0.00478927 -0.00003437
v 0.03784415 -0.01135323 0.00045394
v 0.03701485 -0.00486038 -0.00040216
v 0.03782247 -0.01141004 0.00004406
v 0.03699318 -0.00491719 -0.00081203
v 0.03795954 -0.01144390 -0.00034550
v 0.03713024 -0.00495105 -0.00120160
v 0.03823449 -0.01144965 -0.00065545
v 0.03740519 -0.00495680 -0.00151154
v 0.03860545 -0.01142642 -0.00083859
v 0.03777615 -0.00493357 -0.00169468
vn 0.189570 -0.738019 -0.647605
vn 0.022313 0.571526 -0.820281
vn 0.461891 -0.691129 -0.555875
vn 0.294627 0.618417 -0.728529
vn 0.676627 -0.638713 -0.366364
vn 0.509362 0.670824 -0.539022
vn 0.801085 -0.588738 -0.107934
vn 0.633824 0.720787 -0.280593
vn 0.816302 -0.548839 0.180074
vn 0.649051 0.760709 0.007413
vn 0.719998 -0.525034 0.453808
vn 0.552725 0.784509 0.281140
vn 0.526803 -0.520993 0.671599
vn 0.359558 0.788518 0.498957
vn 0.266138 -0.537327 0.800282
vn 0.098873 0.772224 0.627610
vn -0.022307 -0.571539 0.820272
vn -0.189574 0.738007 0.647617
vn -0.294631 -0.618404 0.728539
vn -0.461894 0.691127 0.555875
vn -0.509367 -0.670816 0.539027
vn -0.676624 0.638720 0.366357
vn -0.633827 -0.720783 0.280596
vn -0.801073 0.588757 0.107925
vn -0.649039 -0.760719 -0.007407
vn -0.816312 0.548824 -0.180077
vn -0.552738 -0.784499 -0.281145
vn -0.719998 0.525032 -0.453811
vn -0.359543 -0.788538 -0.498936
vn -0.526795 0.521010 -0.671592
vn -0.098877 -0.772218 -0.627616
vn -0.266137 0.537318 -0.800288
f 2//2 3//3 1//1
f 4//4 5//5 3//3
f 6//6 7//7 5//5
f 8//8 9//9 7//7
f 10//10 11//11 9//9
f 12//12 13//13 11//11
f 14//14 15//15 13//13
f 16//16 17//17 15//15
f 18//18 19//19 17//17
f 20//20 21//21 19//19
f 22//22 23//23 21//21
f 24//24 25//25 23//23
f 26//26 27//27 25//25
f 28//28 29//29 27//27
f 22//22 14//14 6//6
f 30//30 31//31 29//29
f 32//32 1//1 31//31
f 15//15 23//23 31//31
f 2//2 4//4 3//3
f 4//4 6//6 5//5
f 6//6 8//8 7//7
f 8//8 10//10 9//9
f 10//10 12//12 11//11
f 12//12 14//14 13//13
f 14//14 16//16 15//15
f 16//16 18//18 17//17
f 18//18 20//20 19//19
f 20//20 22//22 21//21
f 22//22 24//24 23//23
f 24//24 26//26 25//25
f 26//26 28//28 27//27
f 28//28 30//30 29//29
f 6//6 4//4 2//2
f 2//2 32//32 6//6
f 32//32 30//30 6//6
f 30//30 28//28 22//22
f 28//28 26//26 22//22
f 26//26 24//24 22//22
f 22//22 20//20 14//14
f 20//20 18//18 14//14
f 18//18 16//16 14//14
f 14//14 12//12 10//10
f 10//10 8//8 14//14
f 8//8 6//6 14//14
f 6//6 30//30 22//22
f 30//30 32//32 31//31
f 32//32 2//2 1//1
f 31//31 1//1 3//3
f 3//3 5//5 31//31
f 5//5 7//7 31//31
f 7//7 9//9 11//11
f 11//11 13//13 7//7
f 13//13 15//15 7//7
f 15//15 17//17 19//19
f 19//19 21//21 15//15
f 21//21 23//23 15//15
f 23//23 25//25 27//27
f 27//27 29//29 23//23
f 29//29 31//31 23//23
f 31//31 7//7 15//15
