v 0.05276179 0.00889539 0.00229884
v 0.05002082 0.01452441 -0.00306325
v 0.05292258 0.00907463 0.00240483
v 0.05018161 0.01470366 -0.00295727
v 0.05299266 0.00927464 0.00257896
v 0.05025170 0.01490367 -0.00278314
v 0.05296139 0.00946496 0.00279474
v 0.05022042 0.01509399 -0.00256736
v 0.05283351 0.00961661 0.00301931
v 0.05009254 0.01524564 -0.00234279
v 0.05262849 0.00970651 0.00321849
v 0.04988753 0.01533554 -0.00214361
v 0.05237756 0.00972098 0.00336195
v 0.04963659 0.01535001 -0.00200015
v 0.05211889 0.00965780 0.00342784
v 0.04937793 0.01528683 -0.00193426
v 0.05189189 0.00952660 0.00340615
v 0.04915093 0.01515563 -0.00195595
v 0.05173111 0.00934735 0.00330017
v 0.04899014 0.01497638 -0.00206193
v 0.05166101 0.00914734 0.00312603
v 0.04892005 0.01477637 -0.00223607
v 0.05169229 0.00895702 0.00291025
v 0.04895132 0.01458605 -0.00245185
v 0.05182017 0.00880537 0.00268568
v 0.04907920 0.01443440 -0.00267642
v 0.05202519 0.00871547 0.00248651
v 0.04928422 0.01434450 -0.00287559
v 0.05227613 0.00870101 0.00234305
v 0.04953516 0.01433003 -0.00301905
v 0.05253479 0.00876419 0.00227715
v 0.04979382 0.01439321 -0.00308495
vn 0.631702 -0.774388 -0.035708
vn 0.155808 0.202950 -0.966713
vn 0.784180 -0.617552 0.060746
vn 0.304033 0.368482 -0.878513
vn 0.867093 -0.444582 0.224714
vn 0.376261 0.563437 -0.735504
vn 0.857456 -0.273088 0.436111
vn 0.355166 0.758425 -0.546486
vn 0.742550 -0.129482 0.657155
vn 0.235285 0.912292 -0.335207
vn 0.539373 -0.042283 0.841005
vn 0.037078 0.989227 -0.141615
vn 0.292773 -0.027843 0.955777
vn -0.198055 0.980181 -0.004395
vn 0.050140 -0.084924 0.995125
vn -0.429993 0.901104 0.055839
vn -0.155796 -0.202962 0.966713
vn -0.631706 0.774384 0.035724
vn -0.304056 -0.368463 0.878513
vn -0.784178 0.617554 -0.060755
vn -0.376253 -0.563439 0.735507
vn -0.867097 0.444576 -0.224709
vn -0.355178 -0.758422 0.546484
vn -0.857440 0.273108 -0.436129
vn -0.235275 -0.912291 0.335217
vn -0.742555 0.129467 -0.657153
vn -0.037094 -0.989230 0.141593
vn -0.539370 0.042291 -0.841006
vn 0.198067 -0.980178 0.004445
vn -0.292772 0.027844 -0.955777
vn 0.429991 -0.901104 -0.055855
vn -0.050137 0.084921 -0.995125
f 2//2 3//3 1//1
f 4//4 5//5 3//3
f 6//6 7//7 5//5
f 8//8 9//9 7//7
f 10//10 11//11 9//9
f 12//12 13//13 11//11
f 14//14 15//15 13//13
f 16//16 17//17 15//15
f 18//18 19//19 17//17
f 20//20 21//21 19//19
f 22//22 23//23 21//21
f 24//24 25//25 23//23
f 26//26 27//27 25//25
f 28//28 29//29 27//27
f 22//22 14//14 6//6
f 30//30 31//31 29//29
f 32//32 1//1 31//31
f 15//15 23//23 31//31
f 2//2 4//4 3//3
f 4//4 6//6 5//5
f 6//6 8//8 7//7
f 8//8 10//10 9//9
f 10//10 12//12 11//11
f 12//12 14//14 13//13
f 14//14 16//16 15//15
f 16//16 18//18 17//17
f 18//18 20//20 19//19
f 20//20 22//22 21//21
f 22//22 24//24 23//23
f 24//24 26//26 25//25
f 26//26 28//28 27//27
f 28//28 30//30 29//29
f 6//6 4//4 2//2
f 2//2 32//32 6//6
f 32//32 30//30 6//6
f 30//30 28//28 22//22
f 28//28 26//26 22//22
f 26//26 24//24 22//22
f 22//22 20//20 14//14
f 20//20 18//18 14//14
f 18//18 16//16 14//14
f 14//14 12//12 10//10
f 10//10 8//8 14//14
f 8//8 6//6 14//14
f 6//6 30//30 22//22
f 30//30 32//32 31//31
f 32//32 2//2 1//1
f 31//31 1//1 3//3
f 3//3 5//5 7//7
f 7//7 9//9 11//11
f 11//11 13//13 15//15
f 15//15 17//17 19//19
f 19//19 21//21 23//23
f 23//23 25//25 27//27
f 27//27 29//29 31//31
f 31//31 3//3 7//7
f 7//7 11//11 15//15
f 15//15 19//19 23//23
f 23//23 27//27 31//31
f 31//31 7//7 15//15
