v 0.00152355 -0.00267041 -0.00072730
v -0.00198020 -0.01033641 0.00218997
v 0.00199606 -0.00284367 -0.00061510
v -0.00150769 -0.01050967 0.00230217
v 0.00244781 -0.00307975 -0.00069289
v -0.00105594 -0.01074575 0.00222437
v 0.00281004 -0.00334271 -0.00094884
v -0.00069371 -0.01100871 0.00196842
v 0.00302760 -0.00359251 -0.00134398
v -0.00047615 -0.01125851 0.00157328
v 0.00306736 -0.00379113 -0.00181815
v -0.00043639 -0.01145713 0.00109911
v 0.00292328 -0.00390833 -0.00229916
v -0.00058047 -0.01157432 0.00061810
v 0.00261729 -0.00392626 -0.00271379
v -0.00088646 -0.01159225 0.00020347
v 0.00219597 -0.00384219 -0.00299891
v -0.00130778 -0.01150819 -0.00008164
v 0.00172347 -0.00366893 -0.00311111
v -0.00178028 -0.01133493 -0.00019384
v 0.00127172 -0.00343285 -0.00303331
v -0.00223203 -0.01109885 -0.00011605
v 0.00090949 -0.00316990 -0.00277736
v -0.00259426 -0.01083589 0.00013990
v 0.00069193 -0.00292009 -0.00238222
v -0.00281182 -0.01058609 0.00053504
v 0.00065216 -0.00272147 -0.00190805
v -0.00285159 -0.01038747 0.00100921
v 0.00079624 -0.00260428 -0.00142704
v -0.00270751 -0.01027028 0.00149022
v 0.00110224 -0.00258635 -0.00101241
v -0.00240151 -0.01025235 0.00190485
vn 0.071666 0.903006 0.423608
vn -0.451355 -0.241329 0.859092
vn 0.338469 0.805167 0.486975
vn -0.184552 -0.339178 0.922442
vn 0.593560 0.671867 0.443036
vn 0.070541 -0.472477 0.878515
vn 0.798101 0.523372 0.298523
vn 0.275088 -0.620955 0.733990
vn 0.920945 0.382330 0.075391
vn 0.397935 -0.762013 0.510866
vn 0.943409 0.270151 -0.192348
vn 0.420376 -0.874172 0.243121
vn 0.862044 0.204001 -0.463966
vn 0.339059 -0.940333 -0.028513
vn 0.689266 0.193831 -0.698099
vn 0.166234 -0.950473 -0.262614
vn 0.451359 0.241343 -0.859086
vn -0.071661 -0.903000 -0.423622
vn 0.184550 0.339166 -0.922447
vn -0.338469 -0.805163 -0.486981
vn -0.070534 0.472482 -0.878513
vn -0.593562 -0.671861 -0.443042
vn -0.275086 0.620954 -0.733992
vn -0.798100 -0.523382 -0.298509
vn -0.397919 0.762020 -0.510868
vn -0.920951 -0.382315 -0.075397
vn -0.420400 0.874162 -0.243116
vn -0.943406 -0.270159 0.192352
vn -0.339018 0.940349 0.028488
vn -0.862043 -0.204002 0.463968
vn -0.166267 0.950460 0.262644
vn -0.689262 -0.193857 0.698096
f 2//2 3//3 1//1
f 4//4 5//5 3//3
f 6//6 7//7 5//5
f 8//8 9//9 7//7
f 10//10 11//11 9//9
f 12//12 13//13 11//11
f 14//14 15//15 13//13
f 16//16 17//17 15//15
f 18//18 19//19 17//17
f 20//20 21//21 19//19
f 22//22 23//23 21//21
f 24//24 25//25 23//23
f 26//26 27//27 25//25
f 28//28 29//29 27//27
f 22//22 14//14 6//6
f 30//30 31//31 29//29
f 32//32 1//1 31//31
f 23//23 27//27 31//31
f 2//2 4//4 3//3
f 4//4 6//6 5//5
f 6//6 8//8 7//7
f 8//8 10//10 9//9
f 10//10 12//12 11//11
f 12//12 14//14 13//13
f 14//14 16//16 15//15
f 16//16 18//18 17//17
f 18//18 20//20 19//19
f 20//20 22//22 21//21
f 22//22 24//24 23//23
f 24//24 26//26 25//25
f 26//26 28//28 27//27
f 28//28 30//30 29//29
f 6//6 4//4 2//2
f 2//2 32//32 6//6
f 32//32 30//30 6//6
f 30//30 28//28 22//22
f 28//28 26//26 22//22
f 26//26 24//24 22//22
f 22//22 20//20 14//14
f 20//20 18//18 14//14
f 18//18 16//16 14//14
f 14//14 12//12 10//10
f 10//10 8//8 14//14
f 8//8 6//6 14//14
f 6//6 30//30 22//22
f 30//30 32//32 31//31
f 32//32 2//2 1//1
f 31//31 1//1 3//3
f 3//3 5//5 7//7
f 7//7 9//9 11//11
f 11//11 13//13 15//15
f 15//15 17//17 19//19
f 19//19 21//21 23//23
f 23//23 25//25 27//27
f 27//27 29//29 31//31
f 31//31 3//3 15//15
f 3//3 7//7 15//15
f 7//7 11//11 15//15
f 15//15 19//19 31//31
f 19//19 23//23 31//31
