v -0.07453408 0.00601564 -0.00243480
v -0.08211310 0.01045916 -0.00261317
v -0.07446285 0.00615524 -0.00198390
v -0.08204187 0.01059877 -0.00216227
v -0.07448537 0.00613594 -0.00150746
v -0.08206439 0.01057947 -0.00168583
v -0.07459823 0.00596069 -0.00107801
v -0.08217724 0.01040422 -0.00125638
v -0.07478424 0.00565615 -0.00076094
v -0.08236326 0.01009968 -0.00093931
v -0.07501508 0.00526870 -0.00060451
v -0.08259410 0.00971223 -0.00078288
v -0.07525561 0.00485732 -0.00063254
v -0.08283463 0.00930085 -0.00081091
v -0.07546921 0.00448464 -0.00084076
v -0.08304823 0.00892817 -0.00101913
v -0.07562336 0.00420739 -0.00119748
v -0.08320238 0.00865092 -0.00137585
v -0.07569460 0.00406779 -0.00164838
v -0.08327362 0.00851132 -0.00182675
v -0.07567208 0.00408708 -0.00212482
v -0.08325110 0.00853061 -0.00230319
v -0.07555922 0.00426234 -0.00255427
v -0.08313823 0.00870587 -0.00273264
v -0.07537321 0.00456687 -0.00287134
v -0.08295222 0.00901040 -0.00304971
v -0.07514237 0.00495432 -0.00302777
v -0.08272138 0.00939785 -0.00320614
v -0.07490183 0.00536571 -0.00299974
v -0.08248086 0.00980923 -0.00317811
v -0.07468823 0.00573839 -0.00279151
v -0.08226725 0.01018192 -0.00296988
vn 0.906362 0.214807 -0.363821
vn -0.241960 0.888081 -0.390854
vn 0.949806 0.299969 -0.088809
vn -0.198540 0.973224 -0.115831
vn 0.936066 0.288204 0.201787
vn -0.212263 0.961458 0.174764
vn 0.867239 0.181294 0.463712
vn -0.281111 0.854563 0.436691
vn 0.753779 -0.004433 0.657113
vn -0.394540 0.668819 0.630095
vn 0.612984 -0.240753 0.752522
vn -0.535356 0.432508 0.725487
vn 0.466289 -0.491669 0.735415
vn -0.682045 0.181581 0.708409
vn 0.336002 -0.718978 0.608419
vn -0.812343 -0.045710 0.581386
vn 0.241970 -0.888079 0.390853
vn -0.906353 -0.214833 0.363828
vn 0.198523 -0.973227 0.115835
vn -0.949811 -0.299954 0.088805
vn 0.212277 -0.961456 -0.174759
vn -0.936067 -0.288200 -0.201789
vn 0.281066 -0.854569 -0.436707
vn -0.867237 -0.181294 -0.463717
vn 0.394562 -0.668824 -0.630076
vn -0.753773 0.004429 -0.657120
vn 0.535343 -0.432506 -0.725498
vn -0.612992 0.240761 -0.752513
vn 0.682052 -0.181589 -0.708400
vn -0.466264 0.491665 -0.735434
vn 0.812338 0.045714 -0.581393
vn -0.336008 0.718981 -0.608412
f 2//2 3//3 1//1
f 4//4 5//5 3//3
f 6//6 7//7 5//5
f 8//8 9//9 7//7
f 10//10 11//11 9//9
f 12//12 13//13 11//11
f 14//14 15//15 13//13
f 16//16 17//17 15//15
f 18//18 19//19 17//17
f 20//20 21//21 19//19
f 22//22 23//23 21//21
f 24//24 25//25 23//23
f 26//26 27//27 25//25
f 28//28 29//29 27//27
f 22//22 14//14 6//6
f 30//30 31//31 29//29
f 32//32 1//1 31//31
f 15//15 23//23 31//31
f 2//2 4//4 3//3
f 4//4 6//6 5//5
f 6//6 8//8 7//7
f 8//8 10//10 9//9
f 10//10 12//12 11//11
f 12//12 14//14 13//13
f 14//14 16//16 15//15
f 16//16 18//18 17//17
f 18//18 20//20 19//19
f 20//20 22//22 21//21
f 22//22 24//24 23//23
f 24//24 26//26 25//25
f 26//26 28//28 27//27
f 28//28 30//30 29//29
f 6//6 4//4 2//2
f 2//2 32//32 30//30
f 30//30 28//28 26//26
f 26//26 24//24 22//22
f 22//22 20//20 18//18
f 18//18 16//16 14//14
f 14//14 12//12 10//10
f 10//10 8//8 6//6
f 6//6 2//2 30//30
f 30//30 26//26 22//22
f 22//22 18//18 14//14
f 14//14 10//10 6//6
f 6//6 30//30 22//22
f 30//30 32//32 31//31
f 32//32 2//2 1//1
f 31//31 1//1 3//3
f 3//3 5//5 31//31
f 5//5 7//7 31//31
f 7//7 9//9 15//15
f 9//9 11//11 15//15
f 11//11 13//13 15//15
f 15//15 17//17 23//23
f 17//17 19//19 23//23
f 19//19 21//21 23//23
f 23//23 25//25 27//27
f 27//27 29//29 23//23
f 29//29 31//31 23//23
f 31//31 7//7 15//15
