v 0.00061750 -0.00572648 0.00313695
v -0.00047708 0.00515737 -0.00010368
v 0.00153931 -0.00361252 -0.00343439
v 0.00417057 0.00050837 0.00549389
v -0.00038220 -0.00034433 0.00519700
v 0.00140499 0.00393863 -0.00354046
v 0.00019685 -0.00306617 0.00475290
v -0.00191503 0.00168545 0.00430775
v -0.00180150 0.00386296 0.00199822
v -0.00174293 -0.00108884 0.00479227
v -0.00190023 0.00371889 -0.00225164
v -0.00181613 -0.00491507 0.00164671
v -0.00054453 0.00445590 0.00338811
v -0.00181220 -0.00262910 0.00433130
v -0.00018288 0.00240164 0.00460349
v 0.00680639 -0.00146761 0.00538853
v 0.00693876 -0.00427928 0.00369574
v -0.00186612 0.00241303 -0.00347957
v 0.00681189 0.00326386 -0.00244886
v -0.00176563 -0.00043805 -0.00400086
v 0.00332082 0.00436515 -0.00281414
v -0.00164375 0.00135348 -0.00398802
v 0.00617331 0.00422457 -0.00168223
v 0.00680669 0.00354176 0.00347983
v -0.00050541 0.00342215 -0.00368844
v 0.00356619 -0.00403688 -0.00273381
v 0.00372743 -0.00552045 0.00271926
v -0.00048503 -0.00305140 -0.00353569
v 0.00683427 -0.00463243 0.00247766
v 0.00623923 -0.00369744 -0.00208511
v 0.00689754 0.00379911 -0.00156487
v 0.00142614 0.00473818 0.00321033
v -0.00007462 0.00479325 -0.00185668
v -0.00067770 -0.00552430 0.00279804
v 0.00498606 -0.00026449 -0.00359999
v 0.00690375 -0.00302152 -0.00240065
v 0.00685594 0.00040790 -0.00315267
v 0.00693105 0.00092741 0.00522997
v -0.00184692 -0.00327564 -0.00218854
v -0.00189558 -0.00203398 -0.00340986
v 0.00018210 -0.00436090 -0.00164738
v 0.00545046 0.00140105 0.00523084
vn -0.081325 -0.917750 0.388743
vn -0.300627 0.953156 -0.033418
vn 0.000334 -0.589073 -0.808080
vn -0.025869 0.117422 0.992745
vn -0.181179 0.023644 0.983166
vn 0.027876 0.553249 -0.832549
vn -0.128168 -0.389369 0.912121
vn -0.783169 0.221101 0.581171
vn -0.856244 0.492160 0.156925
vn -0.677417 -0.073043 0.731963
vn -0.812454 0.513256 -0.276561
vn -0.770904 -0.636090 -0.033106
vn -0.349316 0.753236 0.557328
vn -0.761031 -0.285905 0.582314
vn -0.161272 0.379987 0.910824
vn 0.595526 -0.198880 0.778329
vn 0.690646 -0.545276 0.475061
vn -0.811442 0.266709 -0.520027
vn 0.698657 0.360600 -0.617937
vn -0.590671 -0.063579 -0.804403
vn 0.167904 0.804698 -0.569447
vn -0.451629 0.101795 -0.886380
vn 0.343595 0.900658 -0.266004
vn 0.662967 0.636234 0.394563
vn -0.214549 0.507686 -0.834400
vn 0.151148 -0.776270 -0.612012
vn 0.149055 -0.977329 0.150369
vn -0.225854 -0.551373 -0.803105
vn 0.699625 -0.714273 -0.018393
vn 0.385038 -0.800284 -0.459664
vn 0.830839 0.534632 -0.154513
vn 0.052860 0.867601 0.494443
vn -0.182353 0.917227 -0.354178
vn -0.389565 -0.873461 0.292071
vn 0.182065 -0.056282 -0.981674
vn 0.751531 -0.365394 -0.549261
vn 0.733263 0.032191 -0.679182
vn 0.700360 0.212384 0.681461
vn -0.787513 -0.531111 -0.312641
vn -0.796476 -0.281316 -0.535245
vn -0.176539 -0.910122 -0.374850
vn 0.075531 0.411526 0.908263
f 16//16 38//38 4//4
f 42//42 4//4 38//38
f 16//16 17//17 38//38
f 14//14 7//7 10//10
f 31//31 24//24 38//38
f 24//24 42//42 38//38
f 24//24 32//32 42//42
f 13//13 15//15 42//42
f 36//36 37//37 31//31
f 37//37 19//19 31//31
f 31//31 23//23 24//24
f 26//26 36//36 30//30
f 27//27 17//17 1//1
f 27//27 29//29 17//17
f 29//29 36//36 17//17
f 42//42 15//15 4//4
f 15//15 5//5 4//4
f 32//32 13//13 42//42
f 10//10 8//8 14//14
f 34//34 1//1 14//14
f 1//1 7//7 14//14
f 19//19 23//23 31//31
f 35//35 6//6 37//37
f 29//29 30//30 36//36
f 3//3 35//35 36//36
f 1//1 26//26 27//27
f 13//13 8//8 15//15
f 12//12 34//34 14//14
f 8//8 12//12 14//14
f 6//6 21//21 19//19
f 19//19 21//21 23//23
f 21//21 2//2 23//23
f 30//30 29//29 27//27
f 41//41 12//12 39//39
f 41//41 26//26 1//1
f 34//34 41//41 1//1
f 26//26 30//30 27//27
f 8//8 5//5 15//15
f 9//9 11//11 8//8
f 9//9 13//13 2//2
f 9//9 8//8 13//13
f 40//40 39//39 12//12
f 22//22 25//25 6//6
f 33//33 2//2 21//21
f 6//6 25//25 33//33
f 6//6 19//19 37//37
f 34//34 12//12 41//41
f 3//3 26//26 41//41
f 9//9 2//2 11//11
f 11//11 18//18 40//40
f 18//18 20//20 40//40
f 11//11 2//2 33//33
f 40//40 28//28 39//39
f 22//22 6//6 35//35
f 28//28 3//3 41//41
f 25//25 18//18 11//11
f 18//18 22//22 20//20
f 25//25 22//22 18//18
f 20//20 35//35 3//3
f 28//28 40//40 20//20
f 20//20 22//22 35//35
f 16//16 5//5 7//7
f 20//20 3//3 28//28
f 23//23 32//32 24//24
f 7//7 5//5 10//10
f 17//17 7//7 1//1
f 13//13 32//32 2//2
f 11//11 33//33 25//25
f 8//8 10//10 5//5
f 16//16 4//4 5//5
f 6//6 33//33 21//21
f 28//28 41//41 39//39
f 8//8 40//40 12//12
f 35//35 37//37 36//36
f 38//38 36//36 31//31
f 26//26 3//3 36//36
f 17//17 16//16 7//7
f 32//32 23//23 2//2
f 8//8 11//11 40//40
f 38//38 17//17 36//36
