v -0.09328344 0.00751190 -0.00035833
v -0.10097290 0.01199390 -0.00451292
v -0.09335244 0.00769714 -0.00003080
v -0.10104189 0.01217914 -0.00418538
v -0.09350336 0.00775900 0.00031526
v -0.10119281 0.01224099 -0.00383933
v -0.09371323 0.00768804 0.00062714
v -0.10140269 0.01217003 -0.00352744
v -0.09395011 0.00749507 0.00085738
v -0.10163955 0.01197707 -0.00329720
v -0.09417792 0.00720947 0.00097092
v -0.10186737 0.01169147 -0.00318366
v -0.09436199 0.00687472 0.00095048
v -0.10205144 0.01135672 -0.00320410
v -0.09447429 0.00654179 0.00079916
v -0.10216374 0.01102378 -0.00335542
v -0.09449773 0.00626135 0.00054000
v -0.10218719 0.01074335 -0.00361458
v -0.09442874 0.00607611 0.00021247
v -0.10211819 0.01055810 -0.00394211
v -0.09427782 0.00601425 -0.00013359
v -0.10196728 0.01049625 -0.00428817
v -0.09406795 0.00608521 -0.00044547
v -0.10175740 0.01056721 -0.00460006
v -0.09383108 0.00627818 -0.00067571
v -0.10152052 0.01076018 -0.00483029
v -0.09360326 0.00656378 -0.00078925
v -0.10129271 0.01104578 -0.00494383
v -0.09341919 0.00689853 -0.00076881
v -0.10110864 0.01138052 -0.00492339
v -0.09330689 0.00723146 -0.00061749
v -0.10099634 0.01171346 -0.00477207
vn 0.983236 0.172093 -0.060260
vn -0.059080 0.779647 -0.623426
vn 0.930727 0.313087 0.189009
vn -0.111604 0.920627 -0.374153
vn 0.815869 0.360150 0.452382
vn -0.226455 0.967701 -0.110782
vn 0.656133 0.306169 0.689746
vn -0.386174 0.913698 0.126591
vn 0.475872 0.159285 0.864970
vn -0.566452 0.766837 0.301818
vn 0.302480 -0.058059 0.951386
vn -0.739840 0.549479 0.388213
vn 0.162389 -0.312827 0.935825
vn -0.879914 0.294699 0.372698
vn 0.076908 -0.566212 0.820664
vn -0.965397 0.041334 0.257490
vn 0.059097 -0.779644 0.623428
vn -0.983233 -0.172107 0.060269
vn 0.111591 -0.920629 0.374152
vn -0.930725 -0.313094 -0.189008
vn 0.226461 -0.967699 0.110785
vn -0.815867 -0.360156 -0.452381
vn 0.386167 -0.913701 -0.126595
vn -0.656145 -0.306143 -0.689746
vn 0.566461 -0.766836 -0.301802
vn -0.475859 -0.159298 -0.864975
vn 0.739831 -0.549479 -0.388229
vn -0.302478 0.058061 -0.951386
vn 0.879922 -0.294711 -0.372668
vn -0.162406 0.312834 -0.935820
vn 0.965391 -0.041319 -0.257514
vn -0.076917 0.566215 -0.820661
f 2//2 3//3 1//1
f 4//4 5//5 3//3
f 6//6 7//7 5//5
f 8//8 9//9 7//7
f 10//10 11//11 9//9
f 12//12 13//13 11//11
f 14//14 15//15 13//13
f 16//16 17//17 15//15
f 18//18 19//19 17//17
f 20//20 21//21 19//19
f 22//22 23//23 21//21
f 24//24 25//25 23//23
f 26//26 27//27 25//25
f 28//28 29//29 27//27
f 22//22 14//14 6//6
f 30//30 31//31 29//29
f 32//32 1//1 31//31
f 19//19 23//23 31//31
f 2//2 4//4 3//3
f 4//4 6//6 5//5
f 6//6 8//8 7//7
f 8//8 10//10 9//9
f 10//10 12//12 11//11
f 12//12 14//14 13//13
f 14//14 16//16 15//15
f 16//16 18//18 17//17
f 18//18 20//20 19//19
f 20//20 22//22 21//21
f 22//22 24//24 23//23
f 24//24 26//26 25//25
f 26//26 28//28 27//27
f 28//28 30//30 29//29
f 6//6 4//4 2//2
f 2//2 32//32 6//6
f 32//32 30//30 6//6
f 30//30 28//28 22//22
f 28//28 26//26 22//22
f 26//26 24//24 22//22
f 22//22 20//20 14//14
f 20//20 18//18 14//14
f 18//18 16//16 14//14
f 14//14 12//12 10//10
f 10//10 8//8 14//14
f 8//8 6//6 14//14
f 6//6 30//30 22//22
f 30//30 32//32 31//31
f 32//32 2//2 1//1
f 31//31 1//1 3//3
f 3//3 5//5 7//7
f 7//7 9//9 11//11
f 11//11 13//13 7//7
f 13//13 15//15 7//7
f 15//15 17//17 19//19
f 19//19 21//21 23//23
f 23//23 25//25 27//27
f 27//27 29//29 23//23
f 29//29 31//31 23//23
f 31//31 3//3 15//15
f 3//3 7//7 15//15
f 15//15 19//19 31//31
