v 0.01058367 -0.01122981 0.00201961
v 0.01019026 -0.01651127 -0.00513574
v 0.01083063 -0.01122391 0.00200167
v 0.01043722 -0.01650537 -0.00515367
v 0.01105290 -0.01114219 0.00192914
v 0.01065949 -0.01642366 -0.00522621
v 0.01121665 -0.01099710 0.00181304
v 0.01082324 -0.01627857 -0.00534230
v 0.01129695 -0.01081073 0.00167106
v 0.01090354 -0.01609219 -0.00548428
v 0.01128157 -0.01061144 0.00152481
v 0.01088816 -0.01589290 -0.00563054
v 0.01117285 -0.01042957 0.00139655
v 0.01077944 -0.01571104 -0.00575880
v 0.01098735 -0.01029282 0.00130581
v 0.01059394 -0.01557429 -0.00584953
v 0.01075331 -0.01022201 0.00126641
v 0.01035990 -0.01550347 -0.00588894
v 0.01050636 -0.01022791 0.00128434
v 0.01011294 -0.01550937 -0.00587100
v 0.01028408 -0.01030962 0.00135687
v 0.00989067 -0.01559108 -0.00579847
v 0.01012034 -0.01045471 0.00147297
v 0.00972692 -0.01573618 -0.00568237
v 0.01004004 -0.01064109 0.00161495
v 0.00964663 -0.01592255 -0.00554039
v 0.01005542 -0.01084038 0.00176121
v 0.00966201 -0.01612184 -0.00539414
v 0.01016413 -0.01102224 0.00188947
v 0.00977072 -0.01630371 -0.00526588
v 0.01034963 -0.01115899 0.00198020
v 0.00995622 -0.01644046 -0.00517514
vn -0.070289 -0.197394 0.977801
vn -0.129128 -0.987317 -0.092369
vn 0.220020 -0.190477 0.956718
vn 0.161179 -0.980381 -0.113465
vn 0.481315 -0.094419 0.871448
vn 0.422472 -0.884322 -0.198726
vn 0.673815 0.076139 0.734967
vn 0.614974 -0.713759 -0.335195
vn 0.768194 0.295252 0.568071
vn 0.709365 -0.494661 -0.502107
vn 0.750125 0.529521 0.396131
vn 0.691274 -0.260393 -0.674044
vn 0.622328 0.743310 0.245353
vn 0.563504 -0.046567 -0.824800
vn 0.404259 0.904068 0.138696
vn 0.345413 0.114148 -0.931483
vn 0.129129 0.987315 0.092385
vn 0.070289 0.197411 -0.977798
vn -0.161181 0.980383 0.113448
vn -0.220023 0.190479 -0.956717
vn -0.422476 0.884323 0.198715
vn -0.481312 0.094409 -0.871450
vn -0.614976 0.713759 0.335190
vn -0.673801 -0.076159 -0.734978
vn -0.709354 0.494669 0.502116
vn -0.768205 -0.295245 -0.568060
vn -0.691286 0.260385 0.674035
vn -0.750126 -0.529521 -0.396128
vn -0.563489 0.046592 0.824809
vn -0.622315 -0.743315 -0.245370
vn -0.345419 -0.114155 0.931480
vn -0.404260 -0.904069 -0.138685
f 2//2 3//3 1//1
f 4//4 5//5 3//3
f 6//6 7//7 5//5
f 8//8 9//9 7//7
f 10//10 11//11 9//9
f 12//12 13//13 11//11
f 14//14 15//15 13//13
f 16//16 17//17 15//15
f 18//18 19//19 17//17
f 20//20 21//21 19//19
f 22//22 23//23 21//21
f 24//24 25//25 23//23
f 26//26 27//27 25//25
f 28//28 29//29 27//27
f 22//22 14//14 6//6
f 30//30 31//31 29//29
f 32//32 1//1 31//31
f 15//15 23//23 31//31
f 2//2 4//4 3//3
f 4//4 6//6 5//5
f 6//6 8//8 7//7
f 8//8 10//10 9//9
f 10//10 12//12 11//11
f 12//12 14//14 13//13
f 14//14 16//16 15//15
f 16//16 18//18 17//17
f 18//18 20//20 19//19
f 20//20 22//22 21//21
f 22//22 24//24 23//23
f 24//24 26//26 25//25
f 26//26 28//28 27//27
f 28//28 30//30 29//29
f 6//6 4//4 2//2
f 2//2 32//32 6//6
f 32//32 30//30 6//6
f 30//30 28//28 22//22
f 28//28 26//26 22//22
f 26//26 24//24 22//22
f 22//22 20//20 14//14
f 20//20 18//18 14//14
f 18//18 16//16 14//14
f 14//14 12//12 10//10
f 10//10 8//8 14//14
f 8//8 6//6 14//14
f 6//6 30//30 22//22
f 30//30 32//32 31//31
f 32//32 2//2 1//1
f 31//31 1//1 3//3
f 3//3 5//5 31//31
f 5//5 7//7 31//31
f 7//7 9//9 11//11
f 11//11 13//13 7//7
f 13//13 15//15 7//7
f 15//15 17//17 19//19
f 19//19 21//21 15//15
f 21//21 23//23 15//15
f 23//23 25//25 27//27
f 27//27 29//29 23//23
f 29//29 31//31 23//23
f 31//31 7//7 15//15
