v -0.08208202 0.00508398 -0.00233665
v -0.09325622 0.00831580 -0.00054523
v -0.08198029 0.00510777 -0.00174503
v -0.09315450 0.00833959 0.00004639
v -0.08194709 0.00490887 -0.00117911
v -0.09312129 0.00814068 0.00061231
v -0.08198747 0.00451756 -0.00072504
v -0.09316167 0.00774937 0.00106638
v -0.08209529 0.00399341 -0.00045196
v -0.09326949 0.00722522 0.00133946
v -0.08225412 0.00341622 -0.00040144
v -0.09342833 0.00664803 0.00138998
v -0.08243980 0.00287386 -0.00058117
v -0.09361400 0.00610567 0.00121025
v -0.08262404 0.00244890 -0.00096378
v -0.09379825 0.00568072 0.00082764
v -0.08277881 0.00220604 -0.00149103
v -0.09395301 0.00543786 0.00030038
v -0.08288053 0.00218225 -0.00208266
v -0.09405474 0.00541407 -0.00029124
v -0.08291374 0.00238115 -0.00264857
v -0.09408794 0.00561297 -0.00085716
v -0.08287336 0.00277247 -0.00310264
v -0.09404756 0.00600428 -0.00131122
v -0.08276554 0.00329662 -0.00337572
v -0.09393974 0.00652843 -0.00158430
v -0.08260670 0.00387381 -0.00342624
v -0.09378091 0.00710562 -0.00163482
v -0.08242103 0.00441616 -0.00324651
v -0.09359524 0.00764798 -0.00145509
v -0.08223678 0.00484112 -0.00286390
v -0.09341099 0.00807293 -0.00107248
vn 0.800891 0.514580 -0.306237
vn -0.463200 0.880180 -0.103578
vn 0.850194 0.526108 -0.019515
vn -0.413915 0.891702 0.183143
vn 0.866293 0.429701 0.254744
vn -0.397816 0.795311 0.457408
vn 0.846710 0.240073 0.474813
vn -0.417377 0.605669 0.677467
vn 0.794460 -0.013952 0.607156
vn -0.469633 0.351646 0.809808
vn 0.717485 -0.293682 0.631638
vn -0.546622 0.071923 0.834285
vn 0.627512 -0.556527 0.544524
vn -0.636570 -0.190947 0.747206
vn 0.538214 -0.762477 0.359103
vn -0.725897 -0.396867 0.561756
vn 0.463198 -0.880181 0.103582
vn -0.800893 -0.514578 0.306234
vn 0.413900 -0.891710 -0.183141
vn -0.850193 -0.526110 0.019512
vn 0.397824 -0.795310 -0.457404
vn -0.866288 -0.429706 -0.254750
vn 0.417372 -0.605672 -0.677467
vn -0.846722 -0.240057 -0.474799
vn 0.469628 -0.351648 -0.809811
vn -0.794463 0.013956 -0.607153
vn 0.546609 -0.071921 -0.834294
vn -0.717482 0.293683 -0.631641
vn 0.636605 0.190918 -0.747184
vn -0.627512 0.556529 -0.544523
vn 0.725891 0.396872 -0.561760
vn -0.538204 0.762482 -0.359106
f 2//2 3//3 1//1
f 4//4 5//5 3//3
f 6//6 7//7 5//5
f 8//8 9//9 7//7
f 10//10 11//11 9//9
f 12//12 13//13 11//11
f 14//14 15//15 13//13
f 16//16 17//17 15//15
f 18//18 19//19 17//17
f 20//20 21//21 19//19
f 22//22 23//23 21//21
f 24//24 25//25 23//23
f 26//26 27//27 25//25
f 28//28 29//29 27//27
f 22//22 14//14 6//6
f 30//30 31//31 29//29
f 32//32 1//1 31//31
f 15//15 23//23 31//31
f 2//2 4//4 3//3
f 4//4 6//6 5//5
f 6//6 8//8 7//7
f 8//8 10//10 9//9
f 10//10 12//12 11//11
f 12//12 14//14 13//13
f 14//14 16//16 15//15
f 16//16 18//18 17//17
f 18//18 20//20 19//19
f 20//20 22//22 21//21
f 22//22 24//24 23//23
f 24//24 26//26 25//25
f 26//26 28//28 27//27
f 28//28 30//30 29//29
f 6//6 4//4 2//2
f 2//2 32//32 6//6
f 32//32 30//30 6//6
f 30//30 28//28 22//22
f 28//28 26//26 22//22
f 26//26 24//24 22//22
f 22//22 20//20 14//14
f 20//20 18//18 14//14
f 18//18 16//16 14//14
f 14//14 12//12 10//10
f 10//10 8//8 14//14
f 8//8 6//6 14//14
f 6//6 30//30 22//22
f 30//30 32//32 31//31
f 32//32 2//2 1//1
f 31//31 1//1 7//7
f 1//1 3//3 7//7
f 3//3 5//5 7//7
f 7//7 9//9 15//15
f 9//9 11//11 15//15
f 11//11 13//13 15//15
f 15//15 17//17 23//23
f 17//17 19//19 23//23
f 19//19 21//21 23//23
f 23//23 25//25 31//31
f 25//25 27//27 31//31
f 27//27 29//29 31//31
f 31//31 7//7 15//15
