# Exported from Blender - world coordinates
# Vertices: 103, Faces: 68
v -0.08360305 -0.00320723 -0.00406024
v -0.08317285 -0.00444708 -0.00220410
v -0.08348031 -0.00304698 -0.00412114
v -0.08338167 -0.00317695 -0.00409776
v -0.08338167 -0.00317695 -0.00409776
v -0.08312415 -0.00311978 -0.00412656
v -0.08258750 -0.00426504 -0.00226977
v -0.08277258 -0.00433101 -0.00221785
v -0.08275276 -0.00434435 -0.00239211
v -0.08330563 -0.00374985 -0.00376901
v -0.08321333 -0.00385999 -0.00364731
v -0.08321333 -0.00385999 -0.00364731
v -0.08284590 -0.00335574 -0.00393873
v -0.08284590 -0.00335574 -0.00393873
v -0.08310642 -0.00447763 -0.00291283
v -0.08210941 -0.00415520 -0.00266992
v -0.08316676 -0.00351704 -0.00386215
v -0.08316676 -0.00351704 -0.00386215
v -0.08306747 -0.00343537 -0.00391879
v -0.08306747 -0.00343537 -0.00391879
v -0.08306747 -0.00343537 -0.00391879
v -0.08306747 -0.00343537 -0.00391879
v -0.08289025 -0.00360923 -0.00375178
v -0.08289025 -0.00360923 -0.00375178
v -0.08289025 -0.00360923 -0.00375178
v -0.08255086 -0.00421364 -0.00275767
v -0.08254811 -0.00421822 -0.00275837
v -0.08255086 -0.00421364 -0.00275767
v -0.08230527 -0.00420031 -0.00257755
v -0.08230527 -0.00420031 -0.00257755
v -0.08239128 -0.00411081 -0.00308074
v -0.08260111 -0.00418129 -0.00302963
v -0.08239128 -0.00411081 -0.00308074
v -0.08333925 -0.00348938 -0.00391833
v -0.08333925 -0.00348938 -0.00391833
v -0.08333925 -0.00348938 -0.00391833
v -0.08333925 -0.00348938 -0.00391833
v -0.08273234 -0.00431867 -0.00267597
v -0.08273234 -0.00431867 -0.00267597
v -0.08350416 -0.00333724 -0.00403627
v -0.08250158 -0.00424429 -0.00248473
v -0.08266224 -0.00413332 -0.00321925
v -0.08266224 -0.00413332 -0.00321925
v -0.08262829 -0.00408448 -0.00324696
v -0.08262829 -0.00408448 -0.00324696
v -0.08262829 -0.00408448 -0.00324696
v -0.08254455 -0.00407399 -0.00320835
v -0.08254455 -0.00407399 -0.00320835
v -0.08268225 -0.00378015 -0.00359566
v -0.08268225 -0.00378015 -0.00359566
v -0.08268225 -0.00378015 -0.00359566
v -0.08278611 -0.00383217 -0.00353410
v -0.08278611 -0.00383217 -0.00353410
v -0.08250919 -0.00359338 -0.00369243
v -0.08250919 -0.00359338 -0.00369243
v -0.08269243 -0.00363591 -0.00369375
v -0.08269243 -0.00363591 -0.00369375
v -0.08269243 -0.00363591 -0.00369375
v -0.08325420 -0.00331174 -0.00401863
v -0.08325420 -0.00331174 -0.00401863
v -0.08325420 -0.00331174 -0.00401863
v -0.08298860 -0.00321964 -0.00408541
v -0.08298860 -0.00321964 -0.00408541
v -0.08294851 -0.00389279 -0.00350428
v -0.08294851 -0.00389279 -0.00350428
v -0.08294851 -0.00389279 -0.00350428
v -0.08316380 -0.00399327 -0.00345985
v -0.08298682 -0.00404386 -0.00340316
v -0.08298682 -0.00404386 -0.00340316
v -0.08326896 -0.00429363 -0.00185489
v -0.08302964 -0.00433750 -0.00192267
v -0.08302964 -0.00433750 -0.00192267
v -0.08270142 -0.00349643 -0.00379870
v -0.08270142 -0.00349643 -0.00379870
v -0.08308201 -0.00370943 -0.00368855
v -0.08308201 -0.00370943 -0.00368855
v -0.08203593 -0.00385491 -0.00336401
v -0.08295637 -0.00443111 -0.00276310
v -0.08295659 -0.00443067 -0.00276308
v -0.08308651 -0.00449734 -0.00246423
v -0.08308651 -0.00449734 -0.00246423
v -0.08231687 -0.00369042 -0.00358613
v -0.08231687 -0.00369042 -0.00358613
v -0.08290759 -0.00435123 -0.00201779
v -0.08290759 -0.00435123 -0.00201779
v -0.08218352 -0.00403486 -0.00313012
v -0.08218352 -0.00403486 -0.00313012
v -0.08288480 -0.00431343 -0.00313180
v -0.08288480 -0.00431343 -0.00313180
v -0.08288480 -0.00431343 -0.00313180
v -0.08317269 -0.00444349 -0.00220530
v -0.08317269 -0.00444349 -0.00220530
v -0.08249047 -0.00395908 -0.00338352
v -0.08249047 -0.00395908 -0.00338352
v -0.08281399 -0.00408336 -0.00332819
v -0.08281399 -0.00408336 -0.00332819
v -0.08281399 -0.00408336 -0.00332819
v -0.08267571 -0.00427730 -0.00205527
v -0.08315957 -0.00423458 -0.00334937
v -0.08315957 -0.00423458 -0.00334937
v -0.08203260 -0.00393202 -0.00327563
v -0.08260097 -0.00418219 -0.00302996
v -0.08260097 -0.00418219 -0.00302996
vt 0.931692 0.913778
vt 0.932729 0.912472
vt 0.933393 0.913441
vt 0.256431 0.010246
vt 0.255212 0.010014
vt 0.256244 0.008948
vt 0.936573 0.515919
vt 0.937164 0.515344
vt 0.937999 0.516860
vt 0.938465 0.514963
vt 0.777206 0.158961
vt 0.777135 0.156191
vt 0.777956 0.157685
vt 0.935632 0.515518
vt 0.978383 0.303033
vt 0.979809 0.303659
vt 0.978097 0.304051
vt 0.253613 0.009479
vt 0.253299 0.008014
vt 0.932356 0.914747
vt 0.254957 0.008174
vt 0.254485 0.006858
vt 0.266211 0.721971
vt 0.266412 0.721632
vt 0.266976 0.721738
vt 0.942046 0.728864
vt 0.942649 0.729708
vt 0.940461 0.730125
vt 0.793240 0.770719
vt 0.791734 0.772243
vt 0.791958 0.771142
vt 0.790747 0.771044
vt 0.933170 0.915835
vt 0.934070 0.914421
vt 0.826798 0.433700
vt 0.827326 0.435544
vt 0.825701 0.434914
vt 0.387795 0.472638
vt 0.389702 0.472181
vt 0.388494 0.473467
vt 0.935091 0.915278
vt 0.936166 0.913584
vt 0.212836 0.164758
vt 0.211194 0.164282
vt 0.212429 0.163542
vt 0.935911 0.518326
vt 0.937532 0.519142
vt 0.936266 0.519720
vt 0.937167 0.520226
vt 0.604319 0.648614
vt 0.604038 0.646211
vt 0.605806 0.648005
vt 0.939159 0.516211
vt 0.028517 0.160949
vt 0.027207 0.160910
vt 0.028121 0.159725
vt 0.939077 0.517271
vt 0.936902 0.517522
vt 0.938453 0.518789
vt 0.979751 0.302224
vt 0.981095 0.301127
vt 0.980635 0.302901
vt 0.267165 0.724783
vt 0.265496 0.724991
vt 0.268058 0.724016
vt 0.264153 0.724670
vt 0.794263 0.771359
vt 0.775615 0.158764
vt 0.774037 0.155982
vt 0.264944 0.723136
vt 0.254590 0.012293
vt 0.257617 0.011262
vt 0.252860 0.011012
vt 0.256261 0.012823
vt 0.258203 0.011960
vt 0.553977 0.621089
vt 0.556675 0.619927
vt 0.555486 0.621509
vt 0.940835 0.522036
vt 0.939981 0.520059
vt 0.941981 0.521544
vt 0.941108 0.518059
vt 0.942641 0.519795
vt 0.938970 0.518324
vt 0.724352 0.493772
vt 0.724948 0.492681
vt 0.724897 0.493891
vt 0.725908 0.494593
vt 0.938125 0.520761
vt 0.723226 0.493412
vt 0.939035 0.521480
vt 0.937616 0.522589
vt 0.945073 0.730143
vt 0.939276 0.521156
vt 0.943255 0.730854
vt 0.257540 0.009701
vt 0.982089 0.301135
vt 0.984034 0.299988
vt 0.983207 0.302019
vt 0.935882 0.521251
vt 0.942666 0.520511
vt 0.267004 0.722898
vt 0.724863 0.495082
vn -0.124994 -0.269301 -0.954910
vn -0.125396 -0.267057 -0.955487
vn -0.029675 -0.337035 -0.941024
vn 0.319623 -0.940997 0.111197
vn 0.393140 -0.918700 0.037832
vn 0.379476 -0.921325 0.084608
vn 0.110685 -0.655375 -0.747150
vn 0.119858 -0.632054 -0.765599
vn 0.124946 -0.629690 -0.766732
vn 0.155006 -0.603793 -0.781925
vn 0.158109 -0.976730 -0.144913
vn 0.201371 -0.957797 -0.205123
vn 0.157718 -0.977120 -0.142696
vn 0.131485 -0.667929 -0.732518
vn 0.272709 -0.493127 -0.826109
vn 0.332454 -0.516230 -0.789291
vn 0.205366 -0.466634 -0.860278
vn 0.474784 -0.878933 -0.045357
vn 0.308717 -0.943649 -0.119247
vn 0.012710 -0.397593 -0.917474
vn 0.280076 -0.954258 -0.104638
vn 0.154120 -0.978412 -0.137687
vn 0.458501 -0.779306 -0.427153
vn 0.385573 -0.643199 -0.661535
vn 0.434781 -0.779574 -0.450810
vn -0.085074 -0.685642 -0.722950
vn -0.066845 -0.650956 -0.756167
vn -0.058837 -0.711337 -0.700384
vn 0.152523 -0.562386 -0.812686
vn 0.153128 -0.554753 -0.817803
vn 0.151362 -0.548535 -0.822313
vn 0.167068 -0.546313 -0.820750
vn 0.113315 -0.529100 -0.840960
vn 0.077386 -0.530984 -0.843841
vn 0.103103 -0.526053 -0.844179
vn 0.013271 -0.496855 -0.867732
vn 0.014808 -0.614573 -0.788721
vn 0.162272 -0.639664 -0.751331
vn 0.231489 -0.762935 -0.603608
vn 0.151296 -0.654186 -0.741047
vn 0.180986 -0.604799 -0.775540
vn 0.163949 -0.556131 -0.814763
vn -0.058732 -0.919770 0.388037
vn -0.058732 -0.919771 0.388037
vn 0.161539 -0.597237 -0.785629
vn 0.142501 -0.589236 -0.795295
vn 0.153728 -0.587764 -0.794293
vn 0.098897 -0.657484 -0.746950
vn 0.109567 -0.665261 -0.738528
vn 0.364262 -0.526173 -0.768411
vn 0.354470 -0.521705 -0.775999
vn 0.362812 -0.526989 -0.768537
vn 0.461329 -0.885901 -0.048527
vn 0.456515 -0.874018 -0.166393
vn 0.462989 -0.870893 -0.164887
vn 0.456044 -0.870054 -0.187166
vn 0.160353 -0.567120 -0.807875
vn 0.211565 -0.952250 -0.220138
vn 0.256031 -0.924332 -0.282944
vn 0.469758 -0.851074 -0.234522
vn 0.407559 -0.911895 0.048417
vn 0.256484 -0.945833 0.199038
vn 0.437735 -0.898601 -0.030065
vn 0.122251 -0.948062 0.293657
vn 0.155438 -0.955567 0.250463
vn 0.194335 -0.850022 -0.489589
vn 0.172683 -0.727830 -0.663660
vn 0.173092 -0.866222 -0.468721
vn 0.182850 -0.664542 -0.724535
vn 0.191708 -0.709538 -0.678089
vn 0.164393 -0.675737 -0.718578
vn 0.259849 -0.827549 -0.497635
vn 0.242099 -0.834765 -0.494525
vn 0.235131 -0.848872 -0.473423
vn 0.190243 -0.858497 -0.476226
vn 0.203050 -0.659590 -0.723680
vn 0.225117 -0.820197 -0.525928
vn 0.293471 -0.645685 -0.704958
vn 0.224983 -0.671721 -0.705814
vn 0.026146 -0.635491 -0.771665
vn 0.310336 -0.622989 -0.718036
vn 0.097607 -0.637420 -0.764309
vn 0.319125 -0.940039 0.120355
vn 0.404338 -0.568352 -0.716580
vn 0.170815 -0.407668 -0.897011
vn 0.181789 -0.800810 -0.570663
vn 0.475528 -0.834284 -0.279005
vn 0.181328 -0.865220 -0.467456
f 1/1/1 3/2/2 5/3/3
f 8/4/4 9/5/5 7/6/6
f 17/7/7 22/8/8 24/9/9
f 24/9/9 22/8/8 14/10/10
f 28/11/11 16/12/12 30/13/13
f 36/14/14 22/8/8 17/7/7
f 18/15/15 10/16/16 37/17/17
f 9/5/5 38/18/18 26/19/19
f 40/20/20 1/1/1 5/3/3
f 41/21/21 26/19/19 29/22/22
f 9/5/5 26/19/19 41/21/21
f 9/5/5 41/21/21 7/6/6
f 42/23/23 44/24/24 47/25/25
f 51/26/26 53/27/27 25/28/28
f 55/29/29 49/30/30 57/31/31
f 57/31/31 49/30/30 23/32/32
f 35/33/33 40/20/20 61/34/34
f 40/20/20 5/3/3 61/34/34
f 20/35/35 34/36/35 60/37/35
f 4/38/36 6/39/36 59/40/36
f 21/41/37 61/34/34 63/42/37
f 19/43/38 62/44/38 13/45/38
f 11/46/39 64/47/40 67/48/41
f 64/47/40 68/49/42 67/48/41
f 70/50/43 2/51/44 72/52/44
f 14/10/10 74/53/45 24/9/9
f 56/54/46 73/55/46 54/56/46
f 74/53/45 58/57/47 24/9/9
f 75/58/48 52/59/49 64/47/40
f 52/59/49 75/58/48 24/9/9
f 76/60/50 66/61/51 12/62/52
f 76/60/50 10/16/16 18/15/15
f 24/9/9 75/58/48 17/7/7
f 10/16/16 76/60/50 12/62/52
f 39/63/53 79/64/54 27/65/55
f 79/64/54 15/66/56 27/65/55
f 49/30/30 55/29/29 82/67/57
f 16/12/12 32/68/58 86/69/59
f 27/65/55 15/66/56 88/70/60
f 80/71/61 9/5/5 84/72/62
f 9/5/5 8/4/4 84/72/62
f 78/73/63 38/18/18 9/5/5
f 80/71/61 78/73/63 9/5/5
f 91/74/64 84/72/62 71/75/64
f 81/76/65 85/77/65 92/78/65
f 33/79/66 94/80/67 87/81/68
f 94/80/67 83/82/69 77/83/70
f 50/84/71 83/82/69 94/80/67
f 45/85/72 93/86/73 48/87/74
f 48/87/74 93/86/73 31/88/75
f 96/89/76 50/84/71 94/80/67
f 95/90/77 93/86/73 45/85/72
f 43/91/78 89/92/79 96/89/76
f 96/89/76 89/92/79 68/49/42
f 53/27/27 51/26/26 97/93/80
f 96/89/76 46/94/81 43/91/78
f 53/27/27 97/93/80 65/95/82
f 64/47/40 96/89/76 68/49/42
f 8/4/4 98/96/83 84/72/62
f 69/97/84 90/98/84 100/99/84
f 67/48/41 68/49/42 99/100/85
f 94/80/67 101/101/86 87/81/68
f 101/101/86 94/80/67 77/83/70
f 102/102/87 88/70/60 42/23/23
f 102/102/87 27/65/55 88/70/60
f 102/102/87 42/23/23 47/25/25
f 32/68/58 16/12/12 28/11/11
f 31/88/75 103/103/88 48/87/74
